%TF.GenerationSoftware,KiCad,Pcbnew,10.0.3*%
%TF.CreationDate,2026-09-01T16:16:07+05:30*%
%TF.ProjectId,Battery Circuit,42617474-6572-4792-9043-697263756974,rev?*%
%TF.SameCoordinates,Original*%
%TF.FileFunction,Legend,Top*%
%TF.FilePolarity,Positive*%
%FSLAX46Y46*%
G04 Gerber Fmt 4.6, Leading zero omitted, Abs format (unit mm)*
G04 Created by KiCad (PCBNEW 10.0.3) date 2026-09-01 16:16:07*
%MOMM*%
%LPD*%
G01*
G04 APERTURE LIST*
%ADD10C,0.120000*%
%ADD11C,0.127000*%
%ADD12C,0.200000*%
G04 APERTURE END LIST*
%TO.C,TH1*%
D10*
X134421359Y-105555000D02*
X134728641Y-105555000D01*
X134421359Y-104795000D02*
X134728641Y-104795000D01*
%TO.C,U2*%
X130590000Y-111822500D02*
X130590000Y-111597500D01*
X130815000Y-111822500D02*
X130590000Y-111822500D01*
X134810000Y-111822500D02*
X134585000Y-111822500D01*
X134810000Y-111597500D02*
X134810000Y-111822500D01*
X130590000Y-107827500D02*
X130590000Y-107602500D01*
X130590000Y-107602500D02*
X130815000Y-107602500D01*
X134585000Y-107602500D02*
X134810000Y-107602500D01*
X134810000Y-107602500D02*
X134810000Y-107827500D01*
X131200000Y-112352500D02*
X131440000Y-112682500D01*
X130960000Y-112682500D01*
X131200000Y-112352500D01*
G36*
X131440000Y-112682500D02*
G01*
X130960000Y-112682500D01*
X131200000Y-112352500D01*
X131440000Y-112682500D01*
G37*
%TO.C,R14*%
X134356359Y-103670000D02*
X134663641Y-103670000D01*
X134356359Y-104430000D02*
X134663641Y-104430000D01*
%TO.C,TP3*%
X149590500Y-100699000D02*
X152990500Y-100699000D01*
X149590500Y-104099000D02*
X149590500Y-100699000D01*
X152990500Y-100699000D02*
X152990500Y-104099000D01*
X152990500Y-104099000D02*
X149590500Y-104099000D01*
%TO.C,R1*%
X157986359Y-122320000D02*
X158293641Y-122320000D01*
X157986359Y-123080000D02*
X158293641Y-123080000D01*
%TO.C,J2*%
X129120000Y-101080000D02*
X129120000Y-93350000D01*
X131880000Y-93350000D02*
X129120000Y-93350000D01*
X131880000Y-101080000D02*
X129120000Y-101080000D01*
X131880000Y-101080000D02*
X131880000Y-93350000D01*
X131880000Y-102350000D02*
X131880000Y-103730000D01*
X131880000Y-103730000D02*
X130500000Y-103730000D01*
%TO.C,R8*%
X136120000Y-106183641D02*
X136120000Y-105876359D01*
X136880000Y-106183641D02*
X136880000Y-105876359D01*
%TO.C,R12*%
X141903641Y-124820000D02*
X141596359Y-124820000D01*
X141903641Y-125580000D02*
X141596359Y-125580000D01*
%TO.C,C10*%
X128715000Y-122088748D02*
X128715000Y-122611252D01*
X130185000Y-122088748D02*
X130185000Y-122611252D01*
%TO.C,SW1*%
X160450000Y-101500000D02*
X160750000Y-101500000D01*
X160450000Y-104800000D02*
X160450000Y-101500000D01*
X160750000Y-104800000D02*
X160450000Y-104800000D01*
X162950000Y-104800000D02*
X163250000Y-104800000D01*
X163250000Y-101500000D02*
X162950000Y-101500000D01*
X163250000Y-104800000D02*
X163250000Y-101500000D01*
%TO.C,Q2*%
X160390000Y-97827500D02*
X160440000Y-97827500D01*
X160390000Y-99347500D02*
X160390000Y-97827500D01*
X161390000Y-99347500D02*
X160390000Y-99347500D01*
X161560000Y-97827500D02*
X162340000Y-97827500D01*
X163460000Y-97827500D02*
X163510000Y-97827500D01*
X163510000Y-97827500D02*
X163510000Y-99347500D01*
X163510000Y-99347500D02*
X162510000Y-99347500D01*
X162330000Y-97287500D02*
X162000000Y-97527500D01*
X162000000Y-97047500D01*
X162330000Y-97287500D01*
G36*
X162330000Y-97287500D02*
G01*
X162000000Y-97527500D01*
X162000000Y-97047500D01*
X162330000Y-97287500D01*
G37*
%TO.C,C6*%
X136140000Y-108137836D02*
X136140000Y-107922164D01*
X136860000Y-108137836D02*
X136860000Y-107922164D01*
%TO.C,R9*%
X158593641Y-108320000D02*
X158286359Y-108320000D01*
X158593641Y-109080000D02*
X158286359Y-109080000D01*
%TO.C,R10*%
X137120000Y-111956359D02*
X137120000Y-112263641D01*
X137880000Y-111956359D02*
X137880000Y-112263641D01*
%TO.C,C2*%
X132172164Y-113090000D02*
X132387836Y-113090000D01*
X132172164Y-113810000D02*
X132387836Y-113810000D01*
%TO.C,D2*%
X155790000Y-91800000D02*
X155790000Y-95100000D01*
X155790000Y-91800000D02*
X161300000Y-91800000D01*
X155790000Y-95100000D02*
X161300000Y-95100000D01*
%TO.C,TP4*%
X135090500Y-98699000D02*
X138490500Y-98699000D01*
X135090500Y-102099000D02*
X135090500Y-98699000D01*
X138490500Y-98699000D02*
X138490500Y-102099000D01*
X138490500Y-102099000D02*
X135090500Y-102099000D01*
%TO.C,R6*%
X156573641Y-108320000D02*
X156266359Y-108320000D01*
X156573641Y-109080000D02*
X156266359Y-109080000D01*
%TO.C,R11*%
X138170000Y-126496359D02*
X138170000Y-126803641D01*
X138930000Y-126496359D02*
X138930000Y-126803641D01*
%TO.C,R5*%
X157986359Y-111320000D02*
X158293641Y-111320000D01*
X157986359Y-112080000D02*
X158293641Y-112080000D01*
%TO.C,C1*%
X136992164Y-125740000D02*
X137207836Y-125740000D01*
X136992164Y-126460000D02*
X137207836Y-126460000D01*
%TO.C,R7*%
X159120000Y-96513641D02*
X159120000Y-96206359D01*
X159880000Y-96513641D02*
X159880000Y-96206359D01*
%TO.C,TP1*%
X140690500Y-100799000D02*
X144090500Y-100799000D01*
X140690500Y-104199000D02*
X140690500Y-100799000D01*
X144090500Y-100799000D02*
X144090500Y-104199000D01*
X144090500Y-104199000D02*
X140690500Y-104199000D01*
%TO.C,R4*%
X157836359Y-114070000D02*
X158143641Y-114070000D01*
X157836359Y-114830000D02*
X158143641Y-114830000D01*
%TO.C,C8*%
X132234420Y-114290000D02*
X132515580Y-114290000D01*
X132234420Y-115310000D02*
X132515580Y-115310000D01*
%TO.C,TP2*%
X145140500Y-100749000D02*
X148540500Y-100749000D01*
X145140500Y-104149000D02*
X145140500Y-100749000D01*
X148540500Y-100749000D02*
X148540500Y-104149000D01*
X148540500Y-104149000D02*
X145140500Y-104149000D01*
%TO.C,D3*%
X157367500Y-124835000D02*
X159652500Y-124835000D01*
X159652500Y-123365000D02*
X157367500Y-123365000D01*
X159652500Y-124835000D02*
X159652500Y-123365000D01*
%TO.C,U1*%
X137177500Y-122190000D02*
X138997500Y-122190000D01*
X137177500Y-122240000D02*
X137177500Y-122190000D01*
X137177500Y-125310000D02*
X137177500Y-125260000D01*
X138997500Y-122190000D02*
X138997500Y-122240000D01*
X138997500Y-125260000D02*
X138997500Y-125310000D01*
X138997500Y-125310000D02*
X137177500Y-125310000D01*
X136637500Y-122240000D02*
X136397500Y-121910000D01*
X136877500Y-121910000D01*
X136637500Y-122240000D01*
G36*
X136637500Y-122240000D02*
G01*
X136397500Y-121910000D01*
X136877500Y-121910000D01*
X136637500Y-122240000D01*
G37*
%TO.C,R13*%
X135120000Y-114196359D02*
X135120000Y-114503641D01*
X135880000Y-114196359D02*
X135880000Y-114503641D01*
%TO.C,L1*%
X130790000Y-122290000D02*
X130790000Y-123315000D01*
X130790000Y-122290000D02*
X131815000Y-122290000D01*
X130790000Y-126510000D02*
X130790000Y-125485000D01*
X130790000Y-126510000D02*
X131815000Y-126510000D01*
X135560000Y-122290000D02*
X134535000Y-122290000D01*
X135560000Y-122290000D02*
X135560000Y-123315000D01*
X135560000Y-126510000D02*
X134535000Y-126510000D01*
X135560000Y-126510000D02*
X135560000Y-125485000D01*
%TO.C,C7*%
X136190000Y-115387836D02*
X136190000Y-115172164D01*
X136910000Y-115387836D02*
X136910000Y-115172164D01*
%TO.C,TP5*%
X155290500Y-98299000D02*
X158690500Y-98299000D01*
X155290500Y-101699000D02*
X155290500Y-98299000D01*
X158690500Y-98299000D02*
X158690500Y-101699000D01*
X158690500Y-101699000D02*
X155290500Y-101699000D01*
%TO.C,D5*%
X157217500Y-119285000D02*
X159502500Y-119285000D01*
X159502500Y-117815000D02*
X157217500Y-117815000D01*
X159502500Y-119285000D02*
X159502500Y-117815000D01*
%TO.C,J1*%
D11*
X135890500Y-93299000D02*
X137290500Y-93299000D01*
X135890500Y-97299000D02*
X135890500Y-93299000D01*
X135890500Y-97299000D02*
X154690500Y-97299000D01*
X153290500Y-93299000D02*
X154690500Y-93299000D01*
X154690500Y-93299000D02*
X154690500Y-97299000D01*
D12*
X135390500Y-94099000D02*
G75*
G02*
X135190500Y-94099000I-100000J0D01*
G01*
X135190500Y-94099000D02*
G75*
G02*
X135390500Y-94099000I100000J0D01*
G01*
%TO.C,C9*%
D10*
X141888748Y-122815000D02*
X142411252Y-122815000D01*
X141888748Y-124285000D02*
X142411252Y-124285000D01*
%TO.C,D6*%
X157130000Y-116585000D02*
X159415000Y-116585000D01*
X159415000Y-115115000D02*
X157130000Y-115115000D01*
X159415000Y-116585000D02*
X159415000Y-115115000D01*
%TO.C,C3*%
X140790000Y-106377836D02*
X140790000Y-106162164D01*
X141510000Y-106377836D02*
X141510000Y-106162164D01*
%TO.C,Q1*%
X159740000Y-107502500D02*
X159790000Y-107502500D01*
X159740000Y-109022500D02*
X159740000Y-107502500D01*
X160740000Y-109022500D02*
X159740000Y-109022500D01*
X160910000Y-107502500D02*
X161690000Y-107502500D01*
X162810000Y-107502500D02*
X162860000Y-107502500D01*
X162860000Y-107502500D02*
X162860000Y-109022500D01*
X162860000Y-109022500D02*
X161860000Y-109022500D01*
X161680000Y-106962500D02*
X161350000Y-107202500D01*
X161350000Y-106722500D01*
X161680000Y-106962500D01*
G36*
X161680000Y-106962500D02*
G01*
X161350000Y-107202500D01*
X161350000Y-106722500D01*
X161680000Y-106962500D01*
G37*
%TO.C,D4*%
X157280000Y-121935000D02*
X159565000Y-121935000D01*
X159565000Y-120465000D02*
X157280000Y-120465000D01*
X159565000Y-121935000D02*
X159565000Y-120465000D01*
%TO.C,R3*%
X157786359Y-116820000D02*
X158093641Y-116820000D01*
X157786359Y-117580000D02*
X158093641Y-117580000D01*
%TO.C,D1*%
X159360000Y-104650000D02*
X153850000Y-104650000D01*
X159360000Y-107950000D02*
X153850000Y-107950000D01*
X159360000Y-107950000D02*
X159360000Y-104650000D01*
%TO.C,C5*%
X139690000Y-106387836D02*
X139690000Y-106172164D01*
X140410000Y-106387836D02*
X140410000Y-106172164D01*
%TO.C,C4*%
X141840000Y-106377836D02*
X141840000Y-106162164D01*
X142560000Y-106377836D02*
X142560000Y-106162164D01*
%TO.C,R2*%
X157986359Y-119470000D02*
X158293641Y-119470000D01*
X157986359Y-120230000D02*
X158293641Y-120230000D01*
%TO.C,D7*%
X157192500Y-113785000D02*
X159477500Y-113785000D01*
X159477500Y-112315000D02*
X157192500Y-112315000D01*
X159477500Y-113785000D02*
X159477500Y-112315000D01*
%TD*%
M02*
