%TF.GenerationSoftware,KiCad,Pcbnew,10.0.3*%
%TF.CreationDate,2026-09-01T16:16:07+05:30*%
%TF.ProjectId,Battery Circuit,42617474-6572-4792-9043-697263756974,rev?*%
%TF.SameCoordinates,Original*%
%TF.FileFunction,Copper,L4,Bot*%
%TF.FilePolarity,Positive*%
%FSLAX46Y46*%
G04 Gerber Fmt 4.6, Leading zero omitted, Abs format (unit mm)*
G04 Created by KiCad (PCBNEW 10.0.3) date 2026-09-01 16:16:07*
%MOMM*%
%LPD*%
G01*
G04 APERTURE LIST*
%TA.AperFunction,ComponentPad*%
%ADD10R,1.700000X1.700000*%
%TD*%
%TA.AperFunction,ComponentPad*%
%ADD11C,1.700000*%
%TD*%
%TA.AperFunction,ComponentPad*%
%ADD12R,1.350000X1.350000*%
%TD*%
%TA.AperFunction,ComponentPad*%
%ADD13C,1.350000*%
%TD*%
%TA.AperFunction,ViaPad*%
%ADD14C,0.600000*%
%TD*%
%TA.AperFunction,ViaPad*%
%ADD15C,0.500000*%
%TD*%
%TA.AperFunction,Conductor*%
%ADD16C,0.200000*%
%TD*%
%TA.AperFunction,Conductor*%
%ADD17C,0.300000*%
%TD*%
G04 APERTURE END LIST*
D10*
%TO.P,J2,1,Pin_1_1*%
%TO.N,/+3V3*%
X130500000Y-102350000D03*
D11*
%TO.P,J2,2,Pin_2_2*%
%TO.N,/SWDIO*%
X130500000Y-99810000D03*
%TO.P,J2,3,Pin_3_3*%
%TO.N,/SWCLK*%
X130500000Y-97270000D03*
%TO.P,J2,4,Pin_4_4*%
%TO.N,GND*%
X130500000Y-94730000D03*
%TD*%
D12*
%TO.P,J1,1,1_1*%
%TO.N,GND*%
X138290500Y-94099000D03*
D13*
%TO.P,J1,2,2_2*%
X140290500Y-94099000D03*
%TO.P,J1,3,3_3*%
%TO.N,Net-(J1-Pad3)*%
X144290500Y-94099000D03*
%TO.P,J1,4,4_4*%
%TO.N,Net-(J1-Pad4)*%
X146290500Y-94099000D03*
%TO.P,J1,5,5_5*%
%TO.N,Net-(J1-Pad5)*%
X148290500Y-94099000D03*
%TO.P,J1,6,6_6*%
%TO.N,/+4S_PROT*%
X150290500Y-94099000D03*
%TO.P,J1,7,7_7*%
X152290500Y-94099000D03*
%TD*%
D14*
%TO.N,/+4S_SW*%
X133900000Y-118450000D03*
%TO.N,GND*%
X140150000Y-96150000D03*
X136100000Y-95600000D03*
%TO.N,/+4S_PROT*%
X154650000Y-96700000D03*
X157450000Y-104350000D03*
%TO.N,GND*%
X138250000Y-96350000D03*
%TO.N,/+4S_PROT*%
X154550000Y-94150000D03*
X154550000Y-108750000D03*
%TO.N,GND*%
X136800000Y-97100000D03*
X139050000Y-98000000D03*
D15*
%TO.N,Net-(U2-PA2)*%
X136200645Y-111848257D03*
X156250000Y-122600000D03*
%TO.N,/SWDIO*%
X132500000Y-105450000D03*
X132800000Y-100350000D03*
%TO.N,/SWCLK*%
X128650000Y-99800000D03*
X129900000Y-106900000D03*
D14*
%TO.N,GND*%
X139400000Y-105300000D03*
X140800000Y-105100000D03*
X137850000Y-103000000D03*
X136350000Y-116450000D03*
D15*
X136300000Y-108279708D03*
D14*
X151350000Y-106850000D03*
D15*
X142900000Y-124850000D03*
X128650000Y-124500000D03*
X132372978Y-114024658D03*
X156050000Y-120900000D03*
X132750000Y-109800000D03*
X155600000Y-118250000D03*
X135350000Y-106250000D03*
X154050000Y-115450000D03*
D14*
X134100000Y-105700000D03*
X142950000Y-105250000D03*
D15*
X133225735Y-113974265D03*
D14*
X159900000Y-101000000D03*
X161950000Y-95700000D03*
D15*
X134309785Y-114440000D03*
X154300000Y-112362390D03*
D14*
X160800000Y-100100000D03*
D15*
X136050000Y-121200000D03*
X151100000Y-122800000D03*
X143850000Y-125100000D03*
%TO.N,Net-(R9-Pad1)*%
X161600000Y-105950000D03*
X159800000Y-109250000D03*
%TO.N,Net-(Q1-G)*%
X159900000Y-110550000D03*
X162650000Y-109050000D03*
D14*
%TO.N,/+4S_PROT*%
X155600000Y-103200000D03*
%TO.N,/TEMP_SENSE*%
X134000000Y-104050000D03*
X135250000Y-105000000D03*
D15*
%TO.N,/LATCH_HOLD*%
X158150000Y-95350000D03*
X135700000Y-112337500D03*
%TO.N,Net-(U2-PA3)*%
X155750000Y-119450000D03*
X136250000Y-111150000D03*
%TO.N,Net-(U2-PA4)*%
X137384156Y-110164126D03*
X155400000Y-117500000D03*
%TO.N,Net-(U2-PA5)*%
X136737288Y-109896610D03*
X155750000Y-114150000D03*
%TO.N,Net-(U2-PA6)*%
X136300000Y-109350000D03*
X156100000Y-111500000D03*
%TO.N,Net-(U1-BOOT)*%
X136100000Y-127000000D03*
X138200000Y-123150000D03*
%TO.N,Net-(U1-SW)*%
X135935580Y-125695630D03*
X133250000Y-126300000D03*
%TD*%
%TO.N,/TEMP_SENSE*%
D16*
X134000000Y-104050000D02*
X134000000Y-104415400D01*
X134000000Y-104415400D02*
X134584600Y-105000000D01*
X134584600Y-105000000D02*
X135250000Y-105000000D01*
%TO.N,Net-(U2-PA2)*%
D17*
X137518000Y-119485346D02*
X138932654Y-120900000D01*
X138932654Y-120900000D02*
X154550000Y-120900000D01*
X137518000Y-113165612D02*
X137518000Y-119485346D01*
X154550000Y-120900000D02*
X156250000Y-122600000D01*
X136200645Y-111848257D02*
X137518000Y-113165612D01*
%TO.N,/SWDIO*%
X133250000Y-100800000D02*
X132800000Y-100350000D01*
X132500000Y-105450000D02*
X133250000Y-104700000D01*
X133250000Y-104700000D02*
X133250000Y-100800000D01*
%TO.N,/SWCLK*%
X129150000Y-106150000D02*
X129150000Y-100300000D01*
X129150000Y-100300000D02*
X128650000Y-99800000D01*
X129900000Y-106900000D02*
X129150000Y-106150000D01*
%TO.N,Net-(R9-Pad1)*%
X159800000Y-107750000D02*
X159800000Y-109250000D01*
X161600000Y-105950000D02*
X159800000Y-107750000D01*
%TO.N,Net-(Q1-G)*%
X161150000Y-110550000D02*
X159900000Y-110550000D01*
X162650000Y-109050000D02*
X161150000Y-110550000D01*
%TO.N,/LATCH_HOLD*%
X135200000Y-111000000D02*
X135200000Y-111837500D01*
X158150000Y-95350000D02*
X157450000Y-96050000D01*
X146350000Y-96050000D02*
X135700000Y-106700000D01*
X135700000Y-110500000D02*
X135200000Y-111000000D01*
X157450000Y-96050000D02*
X146350000Y-96050000D01*
X135200000Y-111837500D02*
X135700000Y-112337500D01*
X135700000Y-106700000D02*
X135700000Y-110500000D01*
%TO.N,Net-(U2-PA3)*%
X138018000Y-111169761D02*
X138018000Y-119278239D01*
X137637239Y-110789000D02*
X138018000Y-111169761D01*
X138018000Y-119278239D02*
X138589761Y-119850000D01*
X154500000Y-119450000D02*
X155750000Y-119450000D01*
X138589761Y-119850000D02*
X154100000Y-119850000D01*
X154100000Y-119850000D02*
X154500000Y-119450000D01*
X136611000Y-110789000D02*
X137637239Y-110789000D01*
X136250000Y-111150000D02*
X136611000Y-110789000D01*
%TO.N,Net-(U2-PA4)*%
X151794365Y-108750000D02*
X138798282Y-108750000D01*
X155400000Y-117500000D02*
X155400000Y-116750000D01*
X138798282Y-108750000D02*
X137384156Y-110164126D01*
X154900000Y-116250000D02*
X154900000Y-111855635D01*
X155400000Y-116750000D02*
X154900000Y-116250000D01*
X154900000Y-111855635D02*
X151794365Y-108750000D01*
%TO.N,Net-(U2-PA5)*%
X155750000Y-111998529D02*
X155750000Y-114150000D01*
X138433898Y-108200000D02*
X151951471Y-108200000D01*
X136737288Y-109896610D02*
X138433898Y-108200000D01*
X151951471Y-108200000D02*
X155750000Y-111998529D01*
%TO.N,Net-(U2-PA6)*%
X152250000Y-107650000D02*
X138000000Y-107650000D01*
X156100000Y-111500000D02*
X152250000Y-107650000D01*
X138000000Y-107650000D02*
X136300000Y-109350000D01*
%TO.N,Net-(U1-BOOT)*%
X138200000Y-124900000D02*
X136100000Y-127000000D01*
X138200000Y-123150000D02*
X138200000Y-124900000D01*
%TO.N,Net-(U1-SW)*%
X135935580Y-125695630D02*
X133854370Y-125695630D01*
X133854370Y-125695630D02*
X133250000Y-126300000D01*
%TD*%
%TA.AperFunction,Conductor*%
%TO.N,Net-(J1-Pad3)*%
G36*
X144991373Y-96854538D02*
G01*
X144983628Y-96888972D01*
X144973548Y-96915428D01*
X144945355Y-96958960D01*
X141248671Y-100655644D01*
X141220421Y-100676793D01*
X141210494Y-100682214D01*
X141197365Y-100685070D01*
X141192805Y-100688422D01*
X141177572Y-100689376D01*
X141142221Y-100697068D01*
X141129649Y-100692379D01*
X141123072Y-100692792D01*
X141107549Y-100684137D01*
X141076756Y-100672654D01*
X141069452Y-100662898D01*
X141062046Y-100658769D01*
X141051263Y-100638602D01*
X141034883Y-100616722D01*
X141034874Y-100616697D01*
X141034307Y-100615176D01*
X141032747Y-100603970D01*
X141029102Y-100597153D01*
X141026895Y-100561928D01*
X141026929Y-100561505D01*
X141029818Y-100543074D01*
X141160180Y-99988448D01*
X141159846Y-99990582D01*
X141159696Y-99990858D01*
X141159729Y-99991327D01*
X141157291Y-100006879D01*
X141157257Y-100007302D01*
X141164669Y-100060550D01*
X141165236Y-100062071D01*
X141165245Y-100062096D01*
X141165262Y-100062118D01*
X141182145Y-100093051D01*
X141196424Y-100103744D01*
X141207118Y-100118028D01*
X141223811Y-100124253D01*
X141238071Y-100134932D01*
X141255866Y-100136207D01*
X141272583Y-100142442D01*
X141289990Y-100138654D01*
X141307762Y-100139929D01*
X141323423Y-100131380D01*
X141340856Y-100127588D01*
X141350783Y-100122167D01*
X141379033Y-100101018D01*
X144981548Y-96498503D01*
X145009741Y-96454971D01*
X145019821Y-96428515D01*
X145027566Y-96394083D01*
X144991373Y-96854538D01*
G37*
%TD.AperFunction*%
%TA.AperFunction,Conductor*%
G36*
X145211421Y-92406192D02*
G01*
X145228186Y-92412263D01*
X145245986Y-92413366D01*
X145260356Y-92423911D01*
X145277116Y-92429980D01*
X145287938Y-92444151D01*
X145302316Y-92454702D01*
X145319516Y-92485501D01*
X145319522Y-92485509D01*
X145319525Y-92485517D01*
X145322143Y-92492337D01*
X145329998Y-92546492D01*
X145290500Y-93049000D01*
X145279975Y-93182892D01*
X145262087Y-93237959D01*
X145238228Y-93276896D01*
X145241880Y-93270517D01*
X145242721Y-93266463D01*
X145252184Y-93244504D01*
X145251723Y-93223085D01*
X145256077Y-93202105D01*
X145250986Y-93188846D01*
X145250681Y-93174650D01*
X145238712Y-93156879D01*
X145231033Y-93136878D01*
X145219583Y-93128476D01*
X145211650Y-93116698D01*
X145191973Y-93108218D01*
X145174700Y-93095545D01*
X145160526Y-93094667D01*
X145147485Y-93089048D01*
X145126348Y-93092552D01*
X145104964Y-93091229D01*
X144932362Y-93130514D01*
X144872205Y-93163738D01*
X144546642Y-93489302D01*
X144536859Y-93500324D01*
X144510891Y-93565189D01*
X144524113Y-93633796D01*
X144572328Y-93684363D01*
X144597500Y-93698896D01*
X144597504Y-93698899D01*
X144597507Y-93698901D01*
X144690599Y-93791993D01*
X144705137Y-93817173D01*
X144713253Y-93829479D01*
X144769187Y-93871350D01*
X144838878Y-93876334D01*
X144900201Y-93842849D01*
X145139373Y-93603676D01*
X145147125Y-93595169D01*
X145174779Y-93531007D01*
X144959867Y-95293566D01*
X144954150Y-95238558D01*
X144913893Y-95181452D01*
X144849152Y-95155177D01*
X144780483Y-95168073D01*
X144741543Y-95187915D01*
X144741540Y-95187916D01*
X144565647Y-95245066D01*
X144382973Y-95274000D01*
X144382972Y-95274000D01*
X144198027Y-95274000D01*
X144015352Y-95245066D01*
X143839459Y-95187916D01*
X143839456Y-95187915D01*
X143674665Y-95103949D01*
X143654068Y-95088984D01*
X143654068Y-95088983D01*
X143654067Y-95088983D01*
X143654068Y-95088982D01*
X144034349Y-94708702D01*
X144044138Y-94697673D01*
X144070106Y-94632809D01*
X144056884Y-94564202D01*
X144008669Y-94513634D01*
X143983493Y-94499099D01*
X143890401Y-94406007D01*
X143890399Y-94406004D01*
X143890396Y-94406000D01*
X143875863Y-94380828D01*
X143867744Y-94368518D01*
X143811810Y-94326647D01*
X143742119Y-94321663D01*
X143680798Y-94355146D01*
X143300515Y-94735430D01*
X143300514Y-94735429D01*
X143285556Y-94714843D01*
X143285554Y-94714839D01*
X143285550Y-94714834D01*
X143201584Y-94550043D01*
X143201583Y-94550040D01*
X143201582Y-94550039D01*
X143201581Y-94550036D01*
X143144433Y-94374148D01*
X143115500Y-94191472D01*
X143115500Y-94006526D01*
X143144432Y-93823852D01*
X143177434Y-93722280D01*
X143183095Y-93673931D01*
X143158051Y-93608704D01*
X143101718Y-93567372D01*
X143031985Y-93563056D01*
X142725474Y-93632821D01*
X142666788Y-93664599D01*
X142632288Y-93725353D01*
X142794582Y-93034869D01*
X142807462Y-93002017D01*
X142815619Y-92987653D01*
X142864394Y-92939850D01*
X142876900Y-92933078D01*
X142908411Y-92921214D01*
X145162396Y-92408189D01*
X145197569Y-92405335D01*
X145211421Y-92406192D01*
G37*
%TD.AperFunction*%
%TD*%
%TA.AperFunction,Conductor*%
%TO.N,GND*%
G36*
X141839760Y-92310001D02*
G01*
X134876006Y-92744662D01*
X134900876Y-92737800D01*
X136596067Y-92550434D01*
X136603945Y-92549817D01*
X141830861Y-92307830D01*
X141839760Y-92310001D01*
G37*
%TD.AperFunction*%
%TD*%
%TA.AperFunction,Conductor*%
%TO.N,Net-(J1-Pad5)*%
G36*
X149088891Y-93490523D02*
G01*
X149154658Y-93514110D01*
X149197234Y-93569510D01*
X149203099Y-93639133D01*
X149199540Y-93652626D01*
X149143945Y-93823732D01*
X149115000Y-94006486D01*
X149115000Y-94191513D01*
X149143945Y-94374265D01*
X149201119Y-94550232D01*
X149201120Y-94550235D01*
X149257196Y-94660289D01*
X149285122Y-94715096D01*
X149393879Y-94864787D01*
X149524713Y-94995621D01*
X149674404Y-95104378D01*
X149793411Y-95165015D01*
X149844207Y-95212990D01*
X149861002Y-95280811D01*
X149838465Y-95346945D01*
X149783750Y-95390397D01*
X149737116Y-95399500D01*
X148144173Y-95399500D01*
X148077134Y-95379815D01*
X148031379Y-95327011D01*
X148023838Y-95305425D01*
X147877036Y-94715096D01*
X147590686Y-93563609D01*
X147593610Y-93493802D01*
X147633812Y-93436657D01*
X147698526Y-93410317D01*
X147718300Y-93409900D01*
X149088891Y-93490523D01*
G37*
%TD.AperFunction*%
%TD*%
%TA.AperFunction,Conductor*%
%TO.N,GND*%
G36*
X141898737Y-92324393D02*
G01*
X141946885Y-92375024D01*
X141960017Y-92443649D01*
X141956416Y-92463615D01*
X139401533Y-102054897D01*
X139369392Y-102110660D01*
X138180958Y-103299094D01*
X138119635Y-103332579D01*
X138049943Y-103327595D01*
X138040642Y-103323687D01*
X134861865Y-101833456D01*
X134809520Y-101787177D01*
X134790500Y-101721182D01*
X134790500Y-92861049D01*
X134810185Y-92794010D01*
X134862989Y-92748255D01*
X134876006Y-92744662D01*
X141839759Y-92310001D01*
X141898737Y-92324393D01*
G37*
%TD.AperFunction*%
%TD*%
%TA.AperFunction,Conductor*%
%TO.N,Net-(J1-Pad3)*%
G36*
X143101718Y-93567372D02*
G01*
X143158051Y-93608704D01*
X143183095Y-93673931D01*
X143177434Y-93722280D01*
X143144432Y-93823852D01*
X143115500Y-94006526D01*
X143115500Y-94191472D01*
X143144433Y-94374148D01*
X143201581Y-94550036D01*
X143201582Y-94550039D01*
X143201583Y-94550040D01*
X143201584Y-94550043D01*
X143285550Y-94714834D01*
X143285554Y-94714839D01*
X143285556Y-94714843D01*
X143300514Y-94735429D01*
X143300515Y-94735430D01*
X143680798Y-94355146D01*
X143742119Y-94321663D01*
X143811810Y-94326647D01*
X143867744Y-94368518D01*
X143875863Y-94380828D01*
X143890396Y-94406000D01*
X143890399Y-94406004D01*
X143890401Y-94406007D01*
X143983493Y-94499099D01*
X144008669Y-94513634D01*
X144056884Y-94564202D01*
X144070106Y-94632809D01*
X144044138Y-94697673D01*
X144034349Y-94708702D01*
X143654068Y-95088982D01*
X143654067Y-95088983D01*
X143654068Y-95088983D01*
X143654068Y-95088984D01*
X143674665Y-95103949D01*
X143839456Y-95187915D01*
X143839459Y-95187916D01*
X144015352Y-95245066D01*
X144198027Y-95274000D01*
X144382972Y-95274000D01*
X144382973Y-95274000D01*
X144565647Y-95245066D01*
X144741540Y-95187916D01*
X144741543Y-95187915D01*
X144780483Y-95168073D01*
X144849152Y-95155177D01*
X144913893Y-95181452D01*
X144954150Y-95238558D01*
X144959867Y-95293566D01*
X144912559Y-95681552D01*
X144912348Y-95802173D01*
X144919253Y-95860504D01*
X144919254Y-95860507D01*
X144947616Y-95977720D01*
X144948871Y-95981085D01*
X144948978Y-95981370D01*
X144948989Y-95981399D01*
X145017947Y-96107678D01*
X145017950Y-96107683D01*
X145019005Y-96109092D01*
X145019212Y-96109648D01*
X145020344Y-96111409D01*
X145019961Y-96111655D01*
X145028388Y-96134244D01*
X145041092Y-96157905D01*
X145041901Y-96170469D01*
X145043426Y-96174555D01*
X145043362Y-96193126D01*
X145027566Y-96394083D01*
X145019821Y-96428515D01*
X145009741Y-96454971D01*
X144981548Y-96498503D01*
X141379033Y-100101018D01*
X141350783Y-100122167D01*
X141340856Y-100127588D01*
X141323423Y-100131380D01*
X141307762Y-100139929D01*
X141289990Y-100138654D01*
X141272583Y-100142442D01*
X141255866Y-100136207D01*
X141238071Y-100134932D01*
X141223811Y-100124253D01*
X141207118Y-100118028D01*
X141196424Y-100103744D01*
X141182145Y-100093051D01*
X141165262Y-100062118D01*
X141165245Y-100062096D01*
X141165236Y-100062071D01*
X141164669Y-100060550D01*
X141157257Y-100007302D01*
X141157291Y-100006879D01*
X141159729Y-99991327D01*
X141159696Y-99990858D01*
X141159846Y-99990582D01*
X141160180Y-99988448D01*
X142632288Y-93725353D01*
X142666788Y-93664599D01*
X142725474Y-93632821D01*
X143031985Y-93563056D01*
X143101718Y-93567372D01*
G37*
%TD.AperFunction*%
%TA.AperFunction,Conductor*%
G36*
X145160524Y-93094667D02*
G01*
X145174699Y-93095545D01*
X145191971Y-93108218D01*
X145211646Y-93116696D01*
X145219580Y-93128475D01*
X145231032Y-93136878D01*
X145238710Y-93156877D01*
X145250679Y-93174646D01*
X145250984Y-93188845D01*
X145256076Y-93202105D01*
X145251722Y-93223083D01*
X145252184Y-93244500D01*
X145242719Y-93266464D01*
X145241879Y-93270517D01*
X145238218Y-93276913D01*
X145235316Y-93281649D01*
X145235314Y-93281653D01*
X145229125Y-93296011D01*
X145205379Y-93364103D01*
X145205374Y-93364119D01*
X145196161Y-93398179D01*
X145182346Y-93468967D01*
X145182343Y-93468984D01*
X145174780Y-93531005D01*
X145147125Y-93595169D01*
X145139373Y-93603676D01*
X144900201Y-93842849D01*
X144838878Y-93876334D01*
X144769187Y-93871350D01*
X144713253Y-93829479D01*
X144705137Y-93817173D01*
X144690599Y-93791993D01*
X144597507Y-93698901D01*
X144597504Y-93698899D01*
X144597500Y-93698896D01*
X144572328Y-93684363D01*
X144524113Y-93633796D01*
X144510891Y-93565189D01*
X144536859Y-93500324D01*
X144546642Y-93489302D01*
X144872205Y-93163738D01*
X144932362Y-93130514D01*
X145104964Y-93091229D01*
X145126344Y-93092552D01*
X145147480Y-93089047D01*
X145160524Y-93094667D01*
G37*
%TD.AperFunction*%
%TD*%
%TA.AperFunction,Conductor*%
%TO.N,/+4S_PROT*%
G36*
X160093737Y-91707037D02*
G01*
X160108824Y-91711159D01*
X160123996Y-91720506D01*
X160141175Y-91725196D01*
X160168284Y-91747793D01*
X160169589Y-91749243D01*
X160198031Y-91803320D01*
X160199779Y-91810613D01*
X160203161Y-91836647D01*
X160376595Y-99332888D01*
X160372382Y-99367927D01*
X160367137Y-99387451D01*
X160359744Y-99400552D01*
X160357405Y-99412473D01*
X160336836Y-99441153D01*
X160331270Y-99446951D01*
X160310712Y-99464177D01*
X160289713Y-99478208D01*
X160289703Y-99478216D01*
X160289704Y-99478217D01*
X160178211Y-99589708D01*
X160090613Y-99720807D01*
X160090603Y-99720824D01*
X160090598Y-99720833D01*
X160030264Y-99866496D01*
X160030257Y-99866527D01*
X159999500Y-100021150D01*
X159999500Y-100057670D01*
X159999499Y-100057676D01*
X159999500Y-100057679D01*
X159994475Y-100092614D01*
X159990070Y-100107612D01*
X159952327Y-100166355D01*
X159952292Y-100166385D01*
X159952291Y-100166387D01*
X159952289Y-100166387D01*
X159950958Y-100167542D01*
X159896097Y-100195018D01*
X159888539Y-100196663D01*
X159862168Y-100199500D01*
X159821153Y-100199500D01*
X159666527Y-100230257D01*
X159666496Y-100230264D01*
X159520833Y-100290598D01*
X159520824Y-100290603D01*
X159520807Y-100290613D01*
X159389708Y-100378211D01*
X159389707Y-100378212D01*
X159389701Y-100378217D01*
X159278217Y-100489701D01*
X159278212Y-100489707D01*
X159278211Y-100489708D01*
X159190613Y-100620807D01*
X159190603Y-100620824D01*
X159190598Y-100620833D01*
X159130264Y-100766496D01*
X159130257Y-100766527D01*
X159099500Y-100921150D01*
X159099500Y-100921153D01*
X159099500Y-101078846D01*
X159099500Y-101078848D01*
X159099499Y-101078848D01*
X159130257Y-101233471D01*
X159130264Y-101233502D01*
X159190598Y-101379165D01*
X159190603Y-101379174D01*
X159190613Y-101379191D01*
X159278211Y-101510290D01*
X159278212Y-101510291D01*
X159278217Y-101510297D01*
X159389701Y-101621781D01*
X159389707Y-101621786D01*
X159389711Y-101621789D01*
X159520814Y-101709390D01*
X159520827Y-101709397D01*
X159594573Y-101739943D01*
X159666503Y-101769737D01*
X159706420Y-101777677D01*
X159801303Y-101796551D01*
X159801304Y-101796550D01*
X159818805Y-101800032D01*
X159821153Y-101800499D01*
X159821156Y-101800500D01*
X159821158Y-101800500D01*
X159978844Y-101800500D01*
X159978845Y-101800499D01*
X160133497Y-101769737D01*
X160246432Y-101722957D01*
X160280621Y-101714231D01*
X160281435Y-101714143D01*
X160294422Y-101712747D01*
X160363181Y-101725151D01*
X160414319Y-101772760D01*
X160414327Y-101772773D01*
X160417236Y-101777677D01*
X160434555Y-101838072D01*
X160531450Y-106026102D01*
X160527236Y-106061144D01*
X160520537Y-106086078D01*
X160488465Y-106141585D01*
X159303655Y-107326396D01*
X159303653Y-107326398D01*
X159294727Y-107335325D01*
X159294724Y-107335328D01*
X159233830Y-107426463D01*
X159233831Y-107426464D01*
X159223536Y-107441871D01*
X159223533Y-107441877D01*
X159216676Y-107458430D01*
X159216672Y-107458437D01*
X159174504Y-107560240D01*
X159174495Y-107560265D01*
X159174493Y-107560273D01*
X159149500Y-107685923D01*
X159149500Y-108452897D01*
X159143749Y-108472479D01*
X159142880Y-108492870D01*
X159134106Y-108505321D01*
X159129815Y-108519936D01*
X159114392Y-108533299D01*
X159102636Y-108549985D01*
X159083430Y-108560128D01*
X159077011Y-108565691D01*
X159072158Y-108567784D01*
X159067247Y-108569778D01*
X158990536Y-108593546D01*
X158927422Y-108623510D01*
X158927421Y-108623511D01*
X158915575Y-108631374D01*
X158915570Y-108631377D01*
X158807549Y-108703088D01*
X158281989Y-109172338D01*
X158218871Y-109202304D01*
X158204262Y-109203747D01*
X155196980Y-109321679D01*
X155188732Y-109322070D01*
X155184826Y-109322288D01*
X155176825Y-109322797D01*
X155176816Y-109322798D01*
X155036241Y-109353379D01*
X155036237Y-109353380D01*
X154992246Y-109369788D01*
X154922555Y-109374772D01*
X154861233Y-109341287D01*
X152671846Y-107151899D01*
X152671845Y-107151898D01*
X152664674Y-107144727D01*
X152664671Y-107144724D01*
X152623309Y-107117087D01*
X152621641Y-107115891D01*
X152619822Y-107113561D01*
X152598765Y-107094647D01*
X152588740Y-107082651D01*
X152579996Y-107062563D01*
X152578637Y-107060823D01*
X152578475Y-107059069D01*
X152560855Y-107018591D01*
X152559682Y-107009246D01*
X152564524Y-106956289D01*
X155550000Y-97550000D01*
X155549999Y-97549999D01*
X155550000Y-97549998D01*
X150672983Y-96949750D01*
X150672982Y-96949751D01*
X150672980Y-96949750D01*
X150672960Y-96949748D01*
X150638920Y-96940504D01*
X150633882Y-96938327D01*
X150580151Y-96893665D01*
X150559095Y-96827044D01*
X150577400Y-96759615D01*
X150629254Y-96712786D01*
X150683069Y-96700500D01*
X156865587Y-96700500D01*
X156900521Y-96705523D01*
X156932631Y-96714951D01*
X156966017Y-96730447D01*
X157079989Y-96805698D01*
X157450000Y-97050000D01*
X157499999Y-97050000D01*
X157500000Y-97050000D01*
X157500000Y-97049999D01*
X157329218Y-96937958D01*
X157319781Y-96927837D01*
X157310510Y-96922904D01*
X157302760Y-96914591D01*
X157295435Y-96905974D01*
X157291812Y-96897838D01*
X157289055Y-96894881D01*
X157283577Y-96885102D01*
X157280864Y-96873252D01*
X157267013Y-96842146D01*
X157269714Y-96824542D01*
X157267986Y-96816993D01*
X157273009Y-96803065D01*
X157277610Y-96773085D01*
X157288113Y-96761193D01*
X157291693Y-96751269D01*
X157307709Y-96739006D01*
X157323861Y-96720718D01*
X157325730Y-96719542D01*
X157337604Y-96716118D01*
X157347170Y-96708794D01*
X157369332Y-96706967D01*
X157391759Y-96700500D01*
X157514073Y-96700500D01*
X157598615Y-96683682D01*
X157639744Y-96675501D01*
X157758127Y-96626465D01*
X157864669Y-96555277D01*
X158306537Y-96113406D01*
X158330456Y-96094740D01*
X158361276Y-96076269D01*
X158377541Y-96068083D01*
X158498939Y-96017799D01*
X158501739Y-96016823D01*
X158503183Y-96016155D01*
X158507838Y-96014114D01*
X158517105Y-96010275D01*
X158525990Y-96001389D01*
X158628416Y-95932951D01*
X158732951Y-95828416D01*
X158815084Y-95705495D01*
X158871658Y-95568913D01*
X158877035Y-95541876D01*
X158881096Y-95521465D01*
X158881096Y-95521462D01*
X158900500Y-95423920D01*
X158900500Y-95276079D01*
X158900500Y-95276076D01*
X158871419Y-95129885D01*
X158869333Y-95125474D01*
X158849756Y-95078210D01*
X158815092Y-94994524D01*
X158815087Y-94994512D01*
X158815087Y-94994511D01*
X158815080Y-94994498D01*
X158732951Y-94871584D01*
X158732948Y-94871580D01*
X158732943Y-94871574D01*
X158628424Y-94767055D01*
X158628418Y-94767050D01*
X158628417Y-94767049D01*
X158505507Y-94684923D01*
X158505506Y-94684922D01*
X158505501Y-94684919D01*
X158505488Y-94684912D01*
X158505481Y-94684908D01*
X158368919Y-94628344D01*
X158368920Y-94628344D01*
X158368917Y-94628343D01*
X158368907Y-94628340D01*
X158368905Y-94628339D01*
X158368900Y-94628338D01*
X158223922Y-94599500D01*
X158223920Y-94599500D01*
X158223918Y-94599500D01*
X158076082Y-94599500D01*
X158076080Y-94599500D01*
X158076078Y-94599500D01*
X157931096Y-94628338D01*
X157931079Y-94628344D01*
X157794517Y-94684908D01*
X157794508Y-94684913D01*
X157794491Y-94684923D01*
X157671581Y-94767049D01*
X157671580Y-94767050D01*
X157671574Y-94767055D01*
X157567055Y-94871574D01*
X157567050Y-94871580D01*
X157567049Y-94871581D01*
X157484915Y-94994502D01*
X157484910Y-94994512D01*
X157431922Y-95122442D01*
X157423718Y-95138741D01*
X157405257Y-95169540D01*
X157386583Y-95193469D01*
X157303972Y-95276082D01*
X157253043Y-95327011D01*
X157229480Y-95350574D01*
X157201229Y-95371722D01*
X157178141Y-95384330D01*
X157118711Y-95399500D01*
X155039063Y-95399500D01*
X155039062Y-95399499D01*
X155039062Y-95399500D01*
X155004127Y-95394477D01*
X154971852Y-95385000D01*
X154938769Y-95369702D01*
X154920709Y-95357854D01*
X150000327Y-92129832D01*
X149973869Y-92106465D01*
X149966544Y-92097848D01*
X149938122Y-92034020D01*
X149948719Y-91964959D01*
X149994963Y-91912597D01*
X149997110Y-91911245D01*
X150060808Y-91892211D01*
X160058722Y-91702677D01*
X160093737Y-91707037D01*
G37*
%TD.AperFunction*%
%TA.AperFunction,Conductor*%
G36*
X149806630Y-92005538D02*
G01*
X149807855Y-92006092D01*
X149825069Y-92015589D01*
X154543692Y-95131092D01*
X154590804Y-95162198D01*
X154600358Y-95172553D01*
X154609879Y-95177713D01*
X154617185Y-95185633D01*
X154624485Y-95194270D01*
X154628247Y-95202784D01*
X154631121Y-95205899D01*
X154636526Y-95215722D01*
X154639086Y-95227310D01*
X154652727Y-95258178D01*
X154649899Y-95276259D01*
X154651598Y-95283947D01*
X154646567Y-95297566D01*
X154641933Y-95327209D01*
X154631126Y-95339379D01*
X154627392Y-95349490D01*
X154611538Y-95361437D01*
X154595566Y-95379425D01*
X154593671Y-95380611D01*
X154581435Y-95384124D01*
X154571594Y-95391541D01*
X154549974Y-95393157D01*
X154527886Y-95399500D01*
X150487956Y-95399500D01*
X150420917Y-95379815D01*
X150375162Y-95327011D01*
X150364575Y-95287873D01*
X150352708Y-95169540D01*
X150351681Y-95159301D01*
X150345999Y-95136356D01*
X150334889Y-95091490D01*
X150334882Y-95091469D01*
X150280779Y-94958166D01*
X150280774Y-94958158D01*
X150191298Y-94845487D01*
X150140859Y-94797849D01*
X150140858Y-94797848D01*
X150140503Y-94797513D01*
X150140500Y-94797511D01*
X150022903Y-94714611D01*
X149943150Y-94673974D01*
X149938494Y-94671057D01*
X149937637Y-94670091D01*
X149931446Y-94666297D01*
X149861914Y-94615779D01*
X149847118Y-94603142D01*
X149786356Y-94542380D01*
X149773725Y-94527592D01*
X149723191Y-94458038D01*
X149713034Y-94441464D01*
X149707598Y-94430794D01*
X149674011Y-94364877D01*
X149666572Y-94346917D01*
X149640010Y-94265166D01*
X149635470Y-94246250D01*
X149622027Y-94161372D01*
X149620500Y-94141975D01*
X149620500Y-94056032D01*
X149622026Y-94036636D01*
X149623351Y-94028264D01*
X149635472Y-93951730D01*
X149640011Y-93932825D01*
X149680300Y-93808832D01*
X149688323Y-93781551D01*
X149691882Y-93768058D01*
X149691882Y-93768055D01*
X149691888Y-93768035D01*
X149698364Y-93740339D01*
X149698366Y-93740332D01*
X149706815Y-93596700D01*
X149701388Y-93532276D01*
X149701297Y-93530128D01*
X149700950Y-93527077D01*
X149700950Y-93527073D01*
X149668590Y-93386879D01*
X149598043Y-93261480D01*
X149598040Y-93261476D01*
X149598039Y-93261474D01*
X149555473Y-93206087D01*
X149555469Y-93206082D01*
X149539688Y-93190695D01*
X149505431Y-93129800D01*
X149503192Y-93086689D01*
X149621567Y-92129832D01*
X149623265Y-92116100D01*
X149632535Y-92082057D01*
X149638055Y-92069312D01*
X149682756Y-92015621D01*
X149749387Y-91994617D01*
X149753083Y-91994544D01*
X149806630Y-92005538D01*
G37*
%TD.AperFunction*%
%TD*%
%TA.AperFunction,Conductor*%
%TO.N,Net-(J1-Pad4)*%
G36*
X146967004Y-93439592D02*
G01*
X147033394Y-93461360D01*
X147077477Y-93515568D01*
X147086498Y-93551036D01*
X147100126Y-93685598D01*
X147100127Y-93685603D01*
X147134182Y-93822547D01*
X147136320Y-93871868D01*
X147115000Y-94006480D01*
X147115000Y-94191518D01*
X147143945Y-94374268D01*
X147201110Y-94550208D01*
X147201117Y-94550227D01*
X147201117Y-94550228D01*
X147201118Y-94550231D01*
X147201119Y-94550232D01*
X147201120Y-94550235D01*
X147285122Y-94715096D01*
X147378909Y-94844182D01*
X147398924Y-94887139D01*
X147488059Y-95245575D01*
X147485135Y-95315384D01*
X147444933Y-95372529D01*
X147380219Y-95398869D01*
X147367724Y-95399500D01*
X146285926Y-95399500D01*
X146160273Y-95424493D01*
X146160265Y-95424495D01*
X146160245Y-95424502D01*
X146041877Y-95473531D01*
X146041864Y-95473538D01*
X145935331Y-95544721D01*
X145935315Y-95544736D01*
X145636399Y-95843652D01*
X145613678Y-95860662D01*
X145608149Y-95864801D01*
X145598222Y-95870222D01*
X145529949Y-95885076D01*
X145464484Y-95860662D01*
X145422611Y-95804730D01*
X145421249Y-95801078D01*
X145414343Y-95742742D01*
X145684128Y-93530161D01*
X145693342Y-93496095D01*
X145699530Y-93481738D01*
X145744133Y-93427971D01*
X145748093Y-93425304D01*
X145800315Y-93405332D01*
X145802846Y-93404980D01*
X145823747Y-93403866D01*
X146967004Y-93439592D01*
G37*
%TD.AperFunction*%
%TD*%
%TA.AperFunction,Conductor*%
%TO.N,/+4S_SW*%
G36*
X163337582Y-108306225D02*
G01*
X163385759Y-108356829D01*
X163399500Y-108413565D01*
X163399500Y-118930947D01*
X163399390Y-118936177D01*
X163133960Y-125223426D01*
X163111465Y-125289576D01*
X163056778Y-125333063D01*
X162987262Y-125340080D01*
X162937184Y-125318514D01*
X162897354Y-125289576D01*
X162864433Y-125265657D01*
X162850253Y-125258432D01*
X162653996Y-125158433D01*
X162429368Y-125085446D01*
X162196097Y-125048500D01*
X162196092Y-125048500D01*
X161959908Y-125048500D01*
X161959903Y-125048500D01*
X161726631Y-125085446D01*
X161502003Y-125158433D01*
X161291566Y-125265657D01*
X161205048Y-125328517D01*
X161100490Y-125404483D01*
X161100488Y-125404485D01*
X161100487Y-125404485D01*
X160933485Y-125571487D01*
X160933485Y-125571488D01*
X160933483Y-125571490D01*
X160893871Y-125626011D01*
X160794657Y-125762566D01*
X160687433Y-125973003D01*
X160614446Y-126197631D01*
X160577500Y-126430902D01*
X160577500Y-126566845D01*
X160557815Y-126633884D01*
X160505011Y-126679639D01*
X160460201Y-126690664D01*
X152209201Y-127137176D01*
X152141195Y-127121143D01*
X152092654Y-127070888D01*
X152078500Y-127013357D01*
X152078500Y-126133110D01*
X152078500Y-126133108D01*
X152044392Y-126005814D01*
X151978500Y-125891686D01*
X151885314Y-125798500D01*
X151823075Y-125762566D01*
X151771187Y-125732608D01*
X151707539Y-125715554D01*
X151643892Y-125698500D01*
X144177140Y-125698500D01*
X144110101Y-125678815D01*
X144064346Y-125626011D01*
X144054402Y-125556853D01*
X144083427Y-125493297D01*
X144115140Y-125467113D01*
X144115141Y-125467112D01*
X144126613Y-125460489D01*
X144210489Y-125376613D01*
X144269799Y-125273886D01*
X144300500Y-125159309D01*
X144300500Y-125040691D01*
X144269799Y-124926114D01*
X144210489Y-124823387D01*
X144126613Y-124739511D01*
X144023886Y-124680201D01*
X143909309Y-124649500D01*
X143790691Y-124649500D01*
X143676114Y-124680201D01*
X143676112Y-124680201D01*
X143676112Y-124680202D01*
X143573387Y-124739511D01*
X143573383Y-124739514D01*
X143538652Y-124774245D01*
X143477329Y-124807730D01*
X143407637Y-124802744D01*
X143351704Y-124760872D01*
X143331198Y-124718659D01*
X143319799Y-124676114D01*
X143260489Y-124573387D01*
X143176613Y-124489511D01*
X143073886Y-124430201D01*
X142959309Y-124399500D01*
X142840691Y-124399500D01*
X142726114Y-124430201D01*
X142726112Y-124430201D01*
X142726112Y-124430202D01*
X142623387Y-124489511D01*
X142623384Y-124489513D01*
X142539513Y-124573384D01*
X142539511Y-124573387D01*
X142480201Y-124676114D01*
X142449500Y-124790691D01*
X142449500Y-124909309D01*
X142480201Y-125023886D01*
X142539511Y-125126613D01*
X142623387Y-125210489D01*
X142726114Y-125269799D01*
X142840691Y-125300500D01*
X142840694Y-125300500D01*
X142959306Y-125300500D01*
X142959309Y-125300500D01*
X143073886Y-125269799D01*
X143176613Y-125210489D01*
X143211347Y-125175754D01*
X143272667Y-125142270D01*
X143342359Y-125147254D01*
X143398293Y-125189124D01*
X143418801Y-125231341D01*
X143430201Y-125273886D01*
X143489511Y-125376613D01*
X143573387Y-125460489D01*
X143584857Y-125467111D01*
X143584860Y-125467113D01*
X143633076Y-125517680D01*
X143646298Y-125586287D01*
X143620330Y-125651152D01*
X143563416Y-125691680D01*
X143522860Y-125698500D01*
X139512108Y-125698500D01*
X139384812Y-125732608D01*
X139270686Y-125798500D01*
X139270683Y-125798502D01*
X139177502Y-125891683D01*
X139177500Y-125891686D01*
X139111608Y-126005812D01*
X139077500Y-126133108D01*
X139077500Y-127730345D01*
X139057815Y-127797384D01*
X139005011Y-127843139D01*
X138960201Y-127854164D01*
X137115028Y-127954018D01*
X137108613Y-127954199D01*
X130378937Y-127969737D01*
X130311853Y-127950207D01*
X130265976Y-127897509D01*
X130255873Y-127828373D01*
X130284751Y-127764751D01*
X130290943Y-127758083D01*
X130422517Y-127626510D01*
X130561343Y-127435433D01*
X130668568Y-127224992D01*
X130741553Y-127000368D01*
X130751005Y-126940691D01*
X135649500Y-126940691D01*
X135649500Y-127059309D01*
X135680201Y-127173886D01*
X135739511Y-127276613D01*
X135823387Y-127360489D01*
X135926114Y-127419799D01*
X136040691Y-127450500D01*
X136040694Y-127450500D01*
X136159306Y-127450500D01*
X136159309Y-127450500D01*
X136273886Y-127419799D01*
X136376613Y-127360489D01*
X136460489Y-127276613D01*
X136519799Y-127173886D01*
X136547072Y-127072100D01*
X136579162Y-127016519D01*
X138480469Y-125115213D01*
X138526614Y-125035288D01*
X138534840Y-125004587D01*
X138550500Y-124946144D01*
X138550500Y-123477140D01*
X138567112Y-123415140D01*
X138619799Y-123323886D01*
X138650500Y-123209309D01*
X138650500Y-123090691D01*
X138619799Y-122976114D01*
X138560489Y-122873387D01*
X138476613Y-122789511D01*
X138392055Y-122740691D01*
X150649500Y-122740691D01*
X150649500Y-122859309D01*
X150680201Y-122973886D01*
X150739511Y-123076613D01*
X150823387Y-123160489D01*
X150926114Y-123219799D01*
X151040691Y-123250500D01*
X151040694Y-123250500D01*
X151159306Y-123250500D01*
X151159309Y-123250500D01*
X151273886Y-123219799D01*
X151376613Y-123160489D01*
X151460489Y-123076613D01*
X151519799Y-122973886D01*
X151550500Y-122859309D01*
X151550500Y-122740691D01*
X151519799Y-122626114D01*
X151460489Y-122523387D01*
X151376613Y-122439511D01*
X151273886Y-122380201D01*
X151159309Y-122349500D01*
X151040691Y-122349500D01*
X150926114Y-122380201D01*
X150926112Y-122380201D01*
X150926112Y-122380202D01*
X150823387Y-122439511D01*
X150823384Y-122439513D01*
X150739513Y-122523384D01*
X150739511Y-122523387D01*
X150680201Y-122626114D01*
X150649500Y-122740691D01*
X138392055Y-122740691D01*
X138373886Y-122730201D01*
X138259309Y-122699500D01*
X138140691Y-122699500D01*
X138026114Y-122730201D01*
X138026112Y-122730201D01*
X138026112Y-122730202D01*
X137923387Y-122789511D01*
X137923384Y-122789513D01*
X137839513Y-122873384D01*
X137839511Y-122873387D01*
X137780201Y-122976114D01*
X137749500Y-123090691D01*
X137749500Y-123209309D01*
X137780201Y-123323886D01*
X137832887Y-123415140D01*
X137849500Y-123477140D01*
X137849500Y-124703456D01*
X137829815Y-124770495D01*
X137813181Y-124791137D01*
X136503080Y-126101237D01*
X136083482Y-126520835D01*
X136027895Y-126552928D01*
X135926114Y-126580201D01*
X135926112Y-126580201D01*
X135926112Y-126580202D01*
X135823387Y-126639511D01*
X135823384Y-126639513D01*
X135739513Y-126723384D01*
X135739511Y-126723387D01*
X135680201Y-126826114D01*
X135649500Y-126940691D01*
X130751005Y-126940691D01*
X130778500Y-126767097D01*
X130778500Y-126530902D01*
X130753348Y-126372103D01*
X130741553Y-126297632D01*
X130741552Y-126297628D01*
X130741552Y-126297627D01*
X130732862Y-126270882D01*
X130723052Y-126240691D01*
X132799500Y-126240691D01*
X132799500Y-126359309D01*
X132830201Y-126473886D01*
X132889511Y-126576613D01*
X132973387Y-126660489D01*
X133076114Y-126719799D01*
X133190691Y-126750500D01*
X133190694Y-126750500D01*
X133309306Y-126750500D01*
X133309309Y-126750500D01*
X133423886Y-126719799D01*
X133526613Y-126660489D01*
X133610489Y-126576613D01*
X133669799Y-126473886D01*
X133697072Y-126372100D01*
X133729163Y-126316517D01*
X133963232Y-126082449D01*
X134024555Y-126048964D01*
X134050913Y-126046130D01*
X135608440Y-126046130D01*
X135670439Y-126062742D01*
X135761694Y-126115429D01*
X135876271Y-126146130D01*
X135876274Y-126146130D01*
X135994886Y-126146130D01*
X135994889Y-126146130D01*
X136109466Y-126115429D01*
X136212193Y-126056119D01*
X136296069Y-125972243D01*
X136355379Y-125869516D01*
X136386080Y-125754939D01*
X136386080Y-125636321D01*
X136355379Y-125521744D01*
X136296069Y-125419017D01*
X136212193Y-125335141D01*
X136109466Y-125275831D01*
X135994889Y-125245130D01*
X135876271Y-125245130D01*
X135761694Y-125275831D01*
X135670439Y-125328517D01*
X135608440Y-125345130D01*
X133808226Y-125345130D01*
X133719082Y-125369016D01*
X133719081Y-125369016D01*
X133719079Y-125369017D01*
X133719076Y-125369018D01*
X133639164Y-125415156D01*
X133639155Y-125415163D01*
X133233482Y-125820835D01*
X133177895Y-125852928D01*
X133076114Y-125880201D01*
X133076112Y-125880201D01*
X133076112Y-125880202D01*
X132973387Y-125939511D01*
X132973384Y-125939513D01*
X132889513Y-126023384D01*
X132889511Y-126023387D01*
X132830201Y-126126114D01*
X132799500Y-126240691D01*
X130723052Y-126240691D01*
X130685823Y-126126114D01*
X130668568Y-126073008D01*
X130668566Y-126073005D01*
X130668566Y-126073003D01*
X130570328Y-125880201D01*
X130561343Y-125862567D01*
X130422517Y-125671490D01*
X130255510Y-125504483D01*
X130064433Y-125365657D01*
X129853996Y-125258433D01*
X129629368Y-125185446D01*
X129396097Y-125148500D01*
X129396092Y-125148500D01*
X129159908Y-125148500D01*
X129159903Y-125148500D01*
X128926631Y-125185446D01*
X128702003Y-125258433D01*
X128491566Y-125365657D01*
X128300491Y-125504482D01*
X128165175Y-125639798D01*
X128103852Y-125673282D01*
X128034160Y-125668298D01*
X127978227Y-125626426D01*
X127953810Y-125560962D01*
X127953494Y-125552031D01*
X127953516Y-125519799D01*
X127954252Y-124440691D01*
X128199500Y-124440691D01*
X128199500Y-124559309D01*
X128230201Y-124673886D01*
X128289511Y-124776613D01*
X128373387Y-124860489D01*
X128476114Y-124919799D01*
X128590691Y-124950500D01*
X128590694Y-124950500D01*
X128709306Y-124950500D01*
X128709309Y-124950500D01*
X128823886Y-124919799D01*
X128926613Y-124860489D01*
X129010489Y-124776613D01*
X129069799Y-124673886D01*
X129100500Y-124559309D01*
X129100500Y-124440691D01*
X129069799Y-124326114D01*
X129010489Y-124223387D01*
X128926613Y-124139511D01*
X128823886Y-124080201D01*
X128709309Y-124049500D01*
X128590691Y-124049500D01*
X128476114Y-124080201D01*
X128476112Y-124080201D01*
X128476112Y-124080202D01*
X128373387Y-124139511D01*
X128373384Y-124139513D01*
X128289513Y-124223384D01*
X128289511Y-124223387D01*
X128230202Y-124326112D01*
X128202258Y-124430396D01*
X128202257Y-124430398D01*
X128199500Y-124440691D01*
X127954252Y-124440691D01*
X127956502Y-121140691D01*
X135599500Y-121140691D01*
X135599500Y-121259309D01*
X135630201Y-121373886D01*
X135689511Y-121476613D01*
X135773387Y-121560489D01*
X135876114Y-121619799D01*
X135990691Y-121650500D01*
X135990694Y-121650500D01*
X136109306Y-121650500D01*
X136109309Y-121650500D01*
X136223886Y-121619799D01*
X136326613Y-121560489D01*
X136410489Y-121476613D01*
X136469799Y-121373886D01*
X136500500Y-121259309D01*
X136500500Y-121140691D01*
X136469799Y-121026114D01*
X136410489Y-120923387D01*
X136326613Y-120839511D01*
X136223886Y-120780201D01*
X136109309Y-120749500D01*
X135990691Y-120749500D01*
X135876114Y-120780201D01*
X135876112Y-120780201D01*
X135876112Y-120780202D01*
X135773387Y-120839511D01*
X135773384Y-120839513D01*
X135689513Y-120923384D01*
X135689511Y-120923387D01*
X135630201Y-121026114D01*
X135599500Y-121140691D01*
X127956502Y-121140691D01*
X127959745Y-116384108D01*
X135849500Y-116384108D01*
X135849500Y-116515891D01*
X135883608Y-116643187D01*
X135916554Y-116700250D01*
X135949500Y-116757314D01*
X136042686Y-116850500D01*
X136141521Y-116907563D01*
X136148529Y-116911609D01*
X136156814Y-116916392D01*
X136284108Y-116950500D01*
X136284110Y-116950500D01*
X136415890Y-116950500D01*
X136415892Y-116950500D01*
X136543186Y-116916392D01*
X136657314Y-116850500D01*
X136750500Y-116757314D01*
X136816392Y-116643186D01*
X136850500Y-116515892D01*
X136850500Y-116384108D01*
X136816392Y-116256814D01*
X136750500Y-116142686D01*
X136657314Y-116049500D01*
X136600250Y-116016554D01*
X136543187Y-115983608D01*
X136479539Y-115966554D01*
X136415892Y-115949500D01*
X136284108Y-115949500D01*
X136156812Y-115983608D01*
X136042686Y-116049500D01*
X136042683Y-116049502D01*
X135949502Y-116142683D01*
X135949500Y-116142686D01*
X135883608Y-116256812D01*
X135849500Y-116384108D01*
X127959745Y-116384108D01*
X127961394Y-113965349D01*
X131922478Y-113965349D01*
X131922478Y-114083967D01*
X131953179Y-114198544D01*
X132012489Y-114301271D01*
X132096365Y-114385147D01*
X132199092Y-114444457D01*
X132313669Y-114475158D01*
X132313672Y-114475158D01*
X132432284Y-114475158D01*
X132432287Y-114475158D01*
X132546864Y-114444457D01*
X132649591Y-114385147D01*
X132733467Y-114301271D01*
X132733467Y-114301270D01*
X132736872Y-114297866D01*
X132798195Y-114264381D01*
X132867887Y-114269365D01*
X132912234Y-114297866D01*
X132949122Y-114334754D01*
X133051849Y-114394064D01*
X133166426Y-114424765D01*
X133166429Y-114424765D01*
X133285041Y-114424765D01*
X133285044Y-114424765D01*
X133399621Y-114394064D01*
X133422784Y-114380691D01*
X133859285Y-114380691D01*
X133859285Y-114499309D01*
X133889986Y-114613886D01*
X133949296Y-114716613D01*
X134033172Y-114800489D01*
X134135899Y-114859799D01*
X134250476Y-114890500D01*
X134250479Y-114890500D01*
X134369091Y-114890500D01*
X134369094Y-114890500D01*
X134483671Y-114859799D01*
X134586398Y-114800489D01*
X134670274Y-114716613D01*
X134729584Y-114613886D01*
X134760285Y-114499309D01*
X134760285Y-114380691D01*
X134729584Y-114266114D01*
X134670274Y-114163387D01*
X134586398Y-114079511D01*
X134483671Y-114020201D01*
X134369094Y-113989500D01*
X134250476Y-113989500D01*
X134135899Y-114020201D01*
X134135897Y-114020201D01*
X134135897Y-114020202D01*
X134033172Y-114079511D01*
X134033169Y-114079513D01*
X133949298Y-114163384D01*
X133949296Y-114163387D01*
X133890987Y-114264381D01*
X133889986Y-114266114D01*
X133859285Y-114380691D01*
X133422784Y-114380691D01*
X133502348Y-114334754D01*
X133586224Y-114250878D01*
X133645534Y-114148151D01*
X133676235Y-114033574D01*
X133676235Y-113914956D01*
X133645534Y-113800379D01*
X133586224Y-113697652D01*
X133502348Y-113613776D01*
X133399621Y-113554466D01*
X133285044Y-113523765D01*
X133166426Y-113523765D01*
X133051849Y-113554466D01*
X133051847Y-113554466D01*
X133051847Y-113554467D01*
X132949122Y-113613776D01*
X132949119Y-113613778D01*
X132861841Y-113701057D01*
X132800518Y-113734542D01*
X132730826Y-113729558D01*
X132686479Y-113701057D01*
X132649593Y-113664171D01*
X132649591Y-113664169D01*
X132546864Y-113604859D01*
X132432287Y-113574158D01*
X132313669Y-113574158D01*
X132199092Y-113604859D01*
X132199090Y-113604859D01*
X132199090Y-113604860D01*
X132096365Y-113664169D01*
X132096362Y-113664171D01*
X132012491Y-113748042D01*
X132012489Y-113748045D01*
X131953179Y-113850772D01*
X131922478Y-113965349D01*
X127961394Y-113965349D01*
X127964274Y-109740691D01*
X132299500Y-109740691D01*
X132299500Y-109859309D01*
X132330201Y-109973886D01*
X132389511Y-110076613D01*
X132473387Y-110160489D01*
X132576114Y-110219799D01*
X132690691Y-110250500D01*
X132690694Y-110250500D01*
X132809306Y-110250500D01*
X132809309Y-110250500D01*
X132923886Y-110219799D01*
X133026613Y-110160489D01*
X133110489Y-110076613D01*
X133169799Y-109973886D01*
X133200500Y-109859309D01*
X133200500Y-109740691D01*
X133169799Y-109626114D01*
X133110489Y-109523387D01*
X133026613Y-109439511D01*
X132923886Y-109380201D01*
X132809309Y-109349500D01*
X132690691Y-109349500D01*
X132576114Y-109380201D01*
X132576112Y-109380201D01*
X132576112Y-109380202D01*
X132473387Y-109439511D01*
X132473384Y-109439513D01*
X132389513Y-109523384D01*
X132389511Y-109523387D01*
X132330201Y-109626114D01*
X132299500Y-109740691D01*
X127964274Y-109740691D01*
X127964912Y-108805117D01*
X127984641Y-108738097D01*
X128037476Y-108692379D01*
X128089744Y-108681211D01*
X135226339Y-108729278D01*
X135293241Y-108749412D01*
X135338639Y-108802523D01*
X135349500Y-108853274D01*
X135349500Y-110303456D01*
X135329815Y-110370495D01*
X135313181Y-110391137D01*
X134919531Y-110784786D01*
X134919525Y-110784794D01*
X134893156Y-110830468D01*
X134893156Y-110830470D01*
X134873386Y-110864711D01*
X134849500Y-110953856D01*
X134849500Y-111883646D01*
X134858625Y-111917698D01*
X134858626Y-111917702D01*
X134873384Y-111972785D01*
X134873385Y-111972786D01*
X134919527Y-112052708D01*
X134919531Y-112052713D01*
X135220835Y-112354017D01*
X135252927Y-112409602D01*
X135280201Y-112511386D01*
X135339511Y-112614113D01*
X135423387Y-112697989D01*
X135526114Y-112757299D01*
X135640691Y-112788000D01*
X135640694Y-112788000D01*
X135759306Y-112788000D01*
X135759309Y-112788000D01*
X135873886Y-112757299D01*
X135976613Y-112697989D01*
X136060489Y-112614113D01*
X136119799Y-112511386D01*
X136119802Y-112511374D01*
X136121500Y-112507277D01*
X136165337Y-112452870D01*
X136231629Y-112430800D01*
X136299330Y-112448074D01*
X136323746Y-112467040D01*
X137131181Y-113274474D01*
X137164666Y-113335797D01*
X137167500Y-113362155D01*
X137167500Y-119531491D01*
X137181914Y-119585287D01*
X137191384Y-119620629D01*
X137191387Y-119620636D01*
X137237527Y-119700554D01*
X137237529Y-119700557D01*
X137237530Y-119700558D01*
X138717442Y-121180470D01*
X138786739Y-121220478D01*
X138786741Y-121220480D01*
X138793996Y-121224668D01*
X138797366Y-121226614D01*
X138886510Y-121250500D01*
X154353456Y-121250500D01*
X154420495Y-121270185D01*
X154441137Y-121286819D01*
X155770835Y-122616517D01*
X155802927Y-122672102D01*
X155830201Y-122773886D01*
X155889511Y-122876613D01*
X155973387Y-122960489D01*
X156076114Y-123019799D01*
X156190691Y-123050500D01*
X156190694Y-123050500D01*
X156309306Y-123050500D01*
X156309309Y-123050500D01*
X156423886Y-123019799D01*
X156526613Y-122960489D01*
X156610489Y-122876613D01*
X156669799Y-122773886D01*
X156700500Y-122659309D01*
X156700500Y-122540691D01*
X156669799Y-122426114D01*
X156610489Y-122323387D01*
X156526613Y-122239511D01*
X156423886Y-122180201D01*
X156322102Y-122152927D01*
X156266517Y-122120835D01*
X154986373Y-120840691D01*
X155599500Y-120840691D01*
X155599500Y-120959309D01*
X155630201Y-121073886D01*
X155689511Y-121176613D01*
X155773387Y-121260489D01*
X155876114Y-121319799D01*
X155990691Y-121350500D01*
X155990694Y-121350500D01*
X156109306Y-121350500D01*
X156109309Y-121350500D01*
X156223886Y-121319799D01*
X156326613Y-121260489D01*
X156410489Y-121176613D01*
X156469799Y-121073886D01*
X156500500Y-120959309D01*
X156500500Y-120840691D01*
X156469799Y-120726114D01*
X156410489Y-120623387D01*
X156326613Y-120539511D01*
X156223886Y-120480201D01*
X156109309Y-120449500D01*
X155990691Y-120449500D01*
X155876114Y-120480201D01*
X155876112Y-120480201D01*
X155876112Y-120480202D01*
X155773387Y-120539511D01*
X155773384Y-120539513D01*
X155689513Y-120623384D01*
X155689511Y-120623387D01*
X155630201Y-120726114D01*
X155599500Y-120840691D01*
X154986373Y-120840691D01*
X154765213Y-120619531D01*
X154765208Y-120619527D01*
X154685290Y-120573387D01*
X154685289Y-120573386D01*
X154685288Y-120573386D01*
X154596144Y-120549500D01*
X154596143Y-120549500D01*
X139129198Y-120549500D01*
X139099757Y-120540855D01*
X139069771Y-120534332D01*
X139064755Y-120530577D01*
X139062159Y-120529815D01*
X139041517Y-120513181D01*
X138940517Y-120412181D01*
X138907032Y-120350858D01*
X138912016Y-120281166D01*
X138953888Y-120225233D01*
X139019352Y-120200816D01*
X139028198Y-120200500D01*
X154146142Y-120200500D01*
X154146144Y-120200500D01*
X154235288Y-120176614D01*
X154315212Y-120130470D01*
X154608862Y-119836818D01*
X154670185Y-119803334D01*
X154696543Y-119800500D01*
X155422860Y-119800500D01*
X155484859Y-119817112D01*
X155576114Y-119869799D01*
X155690691Y-119900500D01*
X155690694Y-119900500D01*
X155809306Y-119900500D01*
X155809309Y-119900500D01*
X155923886Y-119869799D01*
X156026613Y-119810489D01*
X156110489Y-119726613D01*
X156169799Y-119623886D01*
X156200500Y-119509309D01*
X156200500Y-119390691D01*
X156169799Y-119276114D01*
X156110489Y-119173387D01*
X156026613Y-119089511D01*
X155923886Y-119030201D01*
X155809309Y-118999500D01*
X155690691Y-118999500D01*
X155576114Y-119030201D01*
X155484859Y-119082887D01*
X155422860Y-119099500D01*
X154453856Y-119099500D01*
X154364712Y-119123386D01*
X154364711Y-119123386D01*
X154364709Y-119123387D01*
X154364706Y-119123388D01*
X154284794Y-119169526D01*
X154284785Y-119169533D01*
X153991137Y-119463181D01*
X153929814Y-119496666D01*
X153903456Y-119499500D01*
X153447512Y-119499500D01*
X153380473Y-119479815D01*
X153334718Y-119427011D01*
X153324774Y-119357853D01*
X153340125Y-119313500D01*
X153404390Y-119202189D01*
X153404392Y-119202186D01*
X153438500Y-119074892D01*
X153438500Y-115754623D01*
X153458185Y-115687584D01*
X153510989Y-115641829D01*
X153580147Y-115631885D01*
X153643703Y-115660910D01*
X153669885Y-115692621D01*
X153689511Y-115726613D01*
X153773387Y-115810489D01*
X153876114Y-115869799D01*
X153990691Y-115900500D01*
X153990694Y-115900500D01*
X154109306Y-115900500D01*
X154109309Y-115900500D01*
X154223886Y-115869799D01*
X154326613Y-115810489D01*
X154337819Y-115799283D01*
X154399142Y-115765798D01*
X154468834Y-115770782D01*
X154524767Y-115812654D01*
X154549184Y-115878118D01*
X154549500Y-115886964D01*
X154549500Y-116296143D01*
X154573070Y-116384109D01*
X154573075Y-116384128D01*
X154573385Y-116385285D01*
X154573386Y-116385289D01*
X154619527Y-116465208D01*
X154619531Y-116465213D01*
X155013181Y-116858863D01*
X155027884Y-116885790D01*
X155044477Y-116911609D01*
X155045368Y-116917809D01*
X155046666Y-116920186D01*
X155049500Y-116946544D01*
X155049500Y-117172859D01*
X155032887Y-117234859D01*
X154980202Y-117326110D01*
X154980201Y-117326114D01*
X154949500Y-117440691D01*
X154949500Y-117559309D01*
X154980201Y-117673886D01*
X155039511Y-117776613D01*
X155123387Y-117860489D01*
X155145062Y-117873003D01*
X155151978Y-117876996D01*
X155200194Y-117927563D01*
X155213417Y-117996170D01*
X155197366Y-118046382D01*
X155180202Y-118076111D01*
X155180202Y-118076112D01*
X155180201Y-118076114D01*
X155149500Y-118190691D01*
X155149500Y-118309309D01*
X155180201Y-118423886D01*
X155239511Y-118526613D01*
X155323387Y-118610489D01*
X155426114Y-118669799D01*
X155540691Y-118700500D01*
X155540694Y-118700500D01*
X155659306Y-118700500D01*
X155659309Y-118700500D01*
X155773886Y-118669799D01*
X155876613Y-118610489D01*
X155960489Y-118526613D01*
X156019799Y-118423886D01*
X156050500Y-118309309D01*
X156050500Y-118190691D01*
X156019799Y-118076114D01*
X155960489Y-117973387D01*
X155876613Y-117889511D01*
X155848019Y-117873002D01*
X155799805Y-117822435D01*
X155786583Y-117753828D01*
X155802635Y-117703614D01*
X155819799Y-117673886D01*
X155850500Y-117559309D01*
X155850500Y-117440691D01*
X155819799Y-117326114D01*
X155819797Y-117326110D01*
X155767113Y-117234859D01*
X155750500Y-117172859D01*
X155750500Y-116703858D01*
X155750500Y-116703856D01*
X155726614Y-116614712D01*
X155704618Y-116576614D01*
X155680470Y-116534788D01*
X155286819Y-116141137D01*
X155253334Y-116079814D01*
X155250500Y-116053456D01*
X155250500Y-114586964D01*
X155270185Y-114519925D01*
X155322989Y-114474170D01*
X155392147Y-114464226D01*
X155455703Y-114493251D01*
X155462181Y-114499283D01*
X155473387Y-114510489D01*
X155576114Y-114569799D01*
X155690691Y-114600500D01*
X155690694Y-114600500D01*
X155809306Y-114600500D01*
X155809309Y-114600500D01*
X155923886Y-114569799D01*
X156026613Y-114510489D01*
X156110489Y-114426613D01*
X156169799Y-114323886D01*
X156200500Y-114209309D01*
X156200500Y-114090691D01*
X156169799Y-113976114D01*
X156158843Y-113957137D01*
X156117113Y-113884859D01*
X156100500Y-113822859D01*
X156100500Y-112061405D01*
X156120185Y-111994366D01*
X156172989Y-111948611D01*
X156192396Y-111941634D01*
X156273886Y-111919799D01*
X156376613Y-111860489D01*
X156460489Y-111776613D01*
X156519799Y-111673886D01*
X156550500Y-111559309D01*
X156550500Y-111440691D01*
X156519799Y-111326114D01*
X156460489Y-111223387D01*
X156376613Y-111139511D01*
X156273886Y-111080201D01*
X156172102Y-111052927D01*
X156116517Y-111020835D01*
X155586373Y-110490691D01*
X159449500Y-110490691D01*
X159449500Y-110609309D01*
X159480201Y-110723886D01*
X159539511Y-110826613D01*
X159623387Y-110910489D01*
X159726114Y-110969799D01*
X159840691Y-111000500D01*
X159840694Y-111000500D01*
X159959306Y-111000500D01*
X159959309Y-111000500D01*
X160073886Y-110969799D01*
X160165140Y-110917112D01*
X160227140Y-110900500D01*
X161196142Y-110900500D01*
X161196144Y-110900500D01*
X161285288Y-110876614D01*
X161295912Y-110870480D01*
X161365212Y-110830470D01*
X162666517Y-109529163D01*
X162722100Y-109497072D01*
X162823886Y-109469799D01*
X162926613Y-109410489D01*
X163010489Y-109326613D01*
X163069799Y-109223886D01*
X163100500Y-109109309D01*
X163100500Y-108990691D01*
X163069799Y-108876114D01*
X163010489Y-108773387D01*
X162926613Y-108689511D01*
X162823886Y-108630201D01*
X162709309Y-108599500D01*
X162590691Y-108599500D01*
X162476114Y-108630201D01*
X162476112Y-108630201D01*
X162476112Y-108630202D01*
X162373387Y-108689511D01*
X162373384Y-108689513D01*
X162289513Y-108773384D01*
X162289511Y-108773387D01*
X162264971Y-108815892D01*
X162230201Y-108876114D01*
X162204137Y-108973387D01*
X162202929Y-108977895D01*
X162170835Y-109033482D01*
X161041137Y-110163181D01*
X160979814Y-110196666D01*
X160953456Y-110199500D01*
X160227140Y-110199500D01*
X160165140Y-110182887D01*
X160073886Y-110130201D01*
X159959309Y-110099500D01*
X159840691Y-110099500D01*
X159726114Y-110130201D01*
X159726112Y-110130201D01*
X159726112Y-110130202D01*
X159623387Y-110189511D01*
X159623384Y-110189513D01*
X159539513Y-110273384D01*
X159539511Y-110273387D01*
X159487270Y-110363871D01*
X159480201Y-110376114D01*
X159449500Y-110490691D01*
X155586373Y-110490691D01*
X155134056Y-110038374D01*
X155100571Y-109977051D01*
X155105555Y-109907359D01*
X155147427Y-109851426D01*
X155212891Y-109827009D01*
X155216810Y-109826791D01*
X158450000Y-109700000D01*
X159144221Y-109080159D01*
X159207335Y-109050195D01*
X159276634Y-109059110D01*
X159330112Y-109104075D01*
X159350790Y-109170815D01*
X159349744Y-109188839D01*
X159349500Y-109190690D01*
X159349500Y-109190691D01*
X159349500Y-109309309D01*
X159380201Y-109423886D01*
X159439511Y-109526613D01*
X159523387Y-109610489D01*
X159626114Y-109669799D01*
X159740691Y-109700500D01*
X159740694Y-109700500D01*
X159859306Y-109700500D01*
X159859309Y-109700500D01*
X159973886Y-109669799D01*
X160076613Y-109610489D01*
X160160489Y-109526613D01*
X160219799Y-109423886D01*
X160250500Y-109309309D01*
X160250500Y-109190691D01*
X160219799Y-109076114D01*
X160204169Y-109049042D01*
X160167113Y-108984859D01*
X160150500Y-108922859D01*
X160150500Y-108554237D01*
X160170185Y-108487198D01*
X160222989Y-108441443D01*
X160268690Y-108430373D01*
X163269696Y-108289701D01*
X163337582Y-108306225D01*
G37*
%TD.AperFunction*%
%TD*%
M02*
