%TF.GenerationSoftware,KiCad,Pcbnew,10.0.3*%
%TF.CreationDate,2026-09-01T16:16:07+05:30*%
%TF.ProjectId,Battery Circuit,42617474-6572-4792-9043-697263756974,rev?*%
%TF.SameCoordinates,Original*%
%TF.FileFunction,Soldermask,Top*%
%TF.FilePolarity,Negative*%
%FSLAX46Y46*%
G04 Gerber Fmt 4.6, Leading zero omitted, Abs format (unit mm)*
G04 Created by KiCad (PCBNEW 10.0.3) date 2026-09-01 16:16:07*
%MOMM*%
%LPD*%
G01*
G04 APERTURE LIST*
G04 Aperture macros list*
%AMRoundRect*
0 Rectangle with rounded corners*
0 $1 Rounding radius*
0 $2 $3 $4 $5 $6 $7 $8 $9 X,Y pos of 4 corners*
0 Add a 4 corners polygon primitive as box body*
4,1,4,$2,$3,$4,$5,$6,$7,$8,$9,$2,$3,0*
0 Add four circle primitives for the rounded corners*
1,1,$1+$1,$2,$3*
1,1,$1+$1,$4,$5*
1,1,$1+$1,$6,$7*
1,1,$1+$1,$8,$9*
0 Add four rect primitives between the rounded corners*
20,1,$1+$1,$2,$3,$4,$5,0*
20,1,$1+$1,$4,$5,$6,$7,0*
20,1,$1+$1,$6,$7,$8,$9,0*
20,1,$1+$1,$8,$9,$2,$3,0*%
%AMFreePoly0*
4,1,14,0.230680,0.111820,0.364320,-0.021820,0.377500,-0.053640,0.377500,-0.080000,0.364320,-0.111820,0.332500,-0.125000,-0.332500,-0.125000,-0.364320,-0.111820,-0.377500,-0.080000,-0.377500,0.080000,-0.364320,0.111820,-0.332500,0.125000,0.198860,0.125000,0.230680,0.111820,0.230680,0.111820,$1*%
%AMFreePoly1*
4,1,14,0.364320,0.111820,0.377500,0.080000,0.377500,0.053640,0.364320,0.021820,0.230680,-0.111820,0.198860,-0.125000,-0.332500,-0.125000,-0.364320,-0.111820,-0.377500,-0.080000,-0.377500,0.080000,-0.364320,0.111820,-0.332500,0.125000,0.332500,0.125000,0.364320,0.111820,0.364320,0.111820,$1*%
%AMFreePoly2*
4,1,14,0.111820,0.364320,0.125000,0.332500,0.125000,-0.332500,0.111820,-0.364320,0.080000,-0.377500,-0.080000,-0.377500,-0.111820,-0.364320,-0.125000,-0.332500,-0.125000,0.198860,-0.111820,0.230680,0.021820,0.364320,0.053640,0.377500,0.080000,0.377500,0.111820,0.364320,0.111820,0.364320,$1*%
%AMFreePoly3*
4,1,14,-0.021820,0.364320,0.111820,0.230680,0.125000,0.198860,0.125000,-0.332500,0.111820,-0.364320,0.080000,-0.377500,-0.080000,-0.377500,-0.111820,-0.364320,-0.125000,-0.332500,-0.125000,0.332500,-0.111820,0.364320,-0.080000,0.377500,-0.053640,0.377500,-0.021820,0.364320,-0.021820,0.364320,$1*%
%AMFreePoly4*
4,1,14,0.364320,0.111820,0.377500,0.080000,0.377500,-0.080000,0.364320,-0.111820,0.332500,-0.125000,-0.198860,-0.125000,-0.230680,-0.111820,-0.364320,0.021820,-0.377500,0.053640,-0.377500,0.080000,-0.364320,0.111820,-0.332500,0.125000,0.332500,0.125000,0.364320,0.111820,0.364320,0.111820,$1*%
%AMFreePoly5*
4,1,14,0.364320,0.111820,0.377500,0.080000,0.377500,-0.080000,0.364320,-0.111820,0.332500,-0.125000,-0.332500,-0.125000,-0.364320,-0.111820,-0.377500,-0.080000,-0.377500,-0.053640,-0.364320,-0.021820,-0.230680,0.111820,-0.198860,0.125000,0.332500,0.125000,0.364320,0.111820,0.364320,0.111820,$1*%
%AMFreePoly6*
4,1,14,0.111820,0.364320,0.125000,0.332500,0.125000,-0.198860,0.111820,-0.230680,-0.021820,-0.364320,-0.053640,-0.377500,-0.080000,-0.377500,-0.111820,-0.364320,-0.125000,-0.332500,-0.125000,0.332500,-0.111820,0.364320,-0.080000,0.377500,0.080000,0.377500,0.111820,0.364320,0.111820,0.364320,$1*%
%AMFreePoly7*
4,1,14,0.111820,0.364320,0.125000,0.332500,0.125000,-0.332500,0.111820,-0.364320,0.080000,-0.377500,0.053640,-0.377500,0.021820,-0.364320,-0.111820,-0.230680,-0.125000,-0.198860,-0.125000,0.332500,-0.111820,0.364320,-0.080000,0.377500,0.080000,0.377500,0.111820,0.364320,0.111820,0.364320,$1*%
G04 Aperture macros list end*
%ADD10RoundRect,0.135000X-0.135000X-0.185000X0.135000X-0.185000X0.135000X0.185000X-0.135000X0.185000X0*%
%ADD11C,2.000000*%
%ADD12FreePoly0,90.000000*%
%ADD13RoundRect,0.062500X0.062500X-0.375000X0.062500X0.375000X-0.062500X0.375000X-0.062500X-0.375000X0*%
%ADD14FreePoly1,90.000000*%
%ADD15FreePoly2,90.000000*%
%ADD16RoundRect,0.062500X0.375000X-0.062500X0.375000X0.062500X-0.375000X0.062500X-0.375000X-0.062500X0*%
%ADD17FreePoly3,90.000000*%
%ADD18FreePoly4,90.000000*%
%ADD19FreePoly5,90.000000*%
%ADD20FreePoly6,90.000000*%
%ADD21FreePoly7,90.000000*%
%ADD22R,3.000000X3.000000*%
%ADD23R,1.700000X1.700000*%
%ADD24C,1.700000*%
%ADD25RoundRect,0.135000X0.185000X-0.135000X0.185000X0.135000X-0.185000X0.135000X-0.185000X-0.135000X0*%
%ADD26RoundRect,0.135000X0.135000X0.185000X-0.135000X0.185000X-0.135000X-0.185000X0.135000X-0.185000X0*%
%ADD27RoundRect,0.250000X-0.475000X0.250000X-0.475000X-0.250000X0.475000X-0.250000X0.475000X0.250000X0*%
%ADD28R,1.700000X0.900000*%
%ADD29RoundRect,0.150000X-0.150000X0.587500X-0.150000X-0.587500X0.150000X-0.587500X0.150000X0.587500X0*%
%ADD30RoundRect,0.140000X0.170000X-0.140000X0.170000X0.140000X-0.170000X0.140000X-0.170000X-0.140000X0*%
%ADD31RoundRect,0.135000X-0.185000X0.135000X-0.185000X-0.135000X0.185000X-0.135000X0.185000X0.135000X0*%
%ADD32RoundRect,0.140000X-0.140000X-0.170000X0.140000X-0.170000X0.140000X0.170000X-0.140000X0.170000X0*%
%ADD33RoundRect,0.250000X-1.000000X-0.650000X1.000000X-0.650000X1.000000X0.650000X-1.000000X0.650000X0*%
%ADD34RoundRect,0.225000X-0.225000X-0.250000X0.225000X-0.250000X0.225000X0.250000X-0.225000X0.250000X0*%
%ADD35RoundRect,0.218750X0.218750X0.256250X-0.218750X0.256250X-0.218750X-0.256250X0.218750X-0.256250X0*%
%ADD36RoundRect,0.150000X-0.512500X-0.150000X0.512500X-0.150000X0.512500X0.150000X-0.512500X0.150000X0*%
%ADD37R,1.500000X3.600000*%
%ADD38RoundRect,0.102000X-0.675000X-0.675000X0.675000X-0.675000X0.675000X0.675000X-0.675000X0.675000X0*%
%ADD39C,1.554000*%
%ADD40RoundRect,0.250000X-0.250000X-0.475000X0.250000X-0.475000X0.250000X0.475000X-0.250000X0.475000X0*%
%ADD41RoundRect,0.250000X1.000000X0.650000X-1.000000X0.650000X-1.000000X-0.650000X1.000000X-0.650000X0*%
G04 APERTURE END LIST*
D10*
%TO.C,TH1*%
X135085000Y-105175000D03*
X134065000Y-105175000D03*
%TD*%
D11*
%TO.C,FID2*%
X159100000Y-126550000D03*
%TD*%
%TO.C,FID1*%
X132150000Y-90900000D03*
%TD*%
D12*
%TO.C,U2*%
X131200000Y-111710000D03*
D13*
X131700000Y-111650000D03*
X132200000Y-111650000D03*
X132700000Y-111650000D03*
X133200000Y-111650000D03*
X133700000Y-111650000D03*
D14*
X134200000Y-111710000D03*
D15*
X134697500Y-111212500D03*
D16*
X134637500Y-110712500D03*
X134637500Y-110212500D03*
X134637500Y-109712500D03*
X134637500Y-109212500D03*
X134637500Y-108712500D03*
D17*
X134697500Y-108212500D03*
D18*
X134200000Y-107715000D03*
D13*
X133700000Y-107775000D03*
X133200000Y-107775000D03*
X132700000Y-107775000D03*
X132200000Y-107775000D03*
X131700000Y-107775000D03*
D19*
X131200000Y-107715000D03*
D20*
X130702500Y-108212500D03*
D16*
X130762500Y-108712500D03*
X130762500Y-109212500D03*
X130762500Y-109712500D03*
X130762500Y-110212500D03*
X130762500Y-110712500D03*
D21*
X130702500Y-111212500D03*
%TD*%
D10*
%TO.C,R14*%
X134000000Y-104050000D03*
X135020000Y-104050000D03*
%TD*%
D22*
%TO.C,TP3*%
X151290500Y-102399000D03*
%TD*%
D10*
%TO.C,R1*%
X157630000Y-122700000D03*
X158650000Y-122700000D03*
%TD*%
D23*
%TO.C,J2*%
X130500000Y-102350000D03*
D24*
X130500000Y-99810000D03*
X130500000Y-97270000D03*
X130500000Y-94730000D03*
%TD*%
D25*
%TO.C,R8*%
X136500000Y-106540000D03*
X136500000Y-105520000D03*
%TD*%
D26*
%TO.C,R12*%
X142260000Y-125200000D03*
X141240000Y-125200000D03*
%TD*%
D27*
%TO.C,C10*%
X129450000Y-121400000D03*
X129450000Y-123300000D03*
%TD*%
D28*
%TO.C,SW1*%
X161850000Y-104850000D03*
X161850000Y-101450000D03*
%TD*%
D29*
%TO.C,Q2*%
X162900000Y-97650000D03*
X161000000Y-97650000D03*
X161950000Y-99525000D03*
%TD*%
D30*
%TO.C,C6*%
X136500000Y-108510000D03*
X136500000Y-107550000D03*
%TD*%
D26*
%TO.C,R9*%
X158950000Y-108700000D03*
X157930000Y-108700000D03*
%TD*%
D31*
%TO.C,R10*%
X137500000Y-111600000D03*
X137500000Y-112620000D03*
%TD*%
D32*
%TO.C,C2*%
X131800000Y-113450000D03*
X132760000Y-113450000D03*
%TD*%
D33*
%TO.C,D2*%
X157300000Y-93450000D03*
X161300000Y-93450000D03*
%TD*%
D22*
%TO.C,TP4*%
X136790500Y-100399000D03*
%TD*%
D26*
%TO.C,R6*%
X156930000Y-108700000D03*
X155910000Y-108700000D03*
%TD*%
D31*
%TO.C,R11*%
X138550000Y-126140000D03*
X138550000Y-127160000D03*
%TD*%
D10*
%TO.C,R5*%
X157630000Y-111700000D03*
X158650000Y-111700000D03*
%TD*%
D32*
%TO.C,C1*%
X136620000Y-126100000D03*
X137580000Y-126100000D03*
%TD*%
D25*
%TO.C,R7*%
X159500000Y-96870000D03*
X159500000Y-95850000D03*
%TD*%
D22*
%TO.C,TP1*%
X142390500Y-102499000D03*
%TD*%
D10*
%TO.C,R4*%
X157480000Y-114450000D03*
X158500000Y-114450000D03*
%TD*%
D34*
%TO.C,C8*%
X131600000Y-114800000D03*
X133150000Y-114800000D03*
%TD*%
D22*
%TO.C,TP2*%
X146840500Y-102449000D03*
%TD*%
D35*
%TO.C,D3*%
X158955000Y-124100000D03*
X157380000Y-124100000D03*
%TD*%
D36*
%TO.C,U1*%
X136950000Y-122800000D03*
X136950000Y-123750000D03*
X136950000Y-124700000D03*
X139225000Y-124700000D03*
X139225000Y-123750000D03*
X139225000Y-122800000D03*
%TD*%
D31*
%TO.C,R13*%
X135500000Y-113840000D03*
X135500000Y-114860000D03*
%TD*%
D37*
%TO.C,L1*%
X131650000Y-124400000D03*
X134700000Y-124400000D03*
%TD*%
D30*
%TO.C,C7*%
X136550000Y-115760000D03*
X136550000Y-114800000D03*
%TD*%
D22*
%TO.C,TP5*%
X156990500Y-99999000D03*
%TD*%
D35*
%TO.C,D5*%
X158805000Y-118550000D03*
X157230000Y-118550000D03*
%TD*%
D38*
%TO.C,J1*%
X138290500Y-94099000D03*
D39*
X140290500Y-94099000D03*
X144290500Y-94099000D03*
X146290500Y-94099000D03*
X148290500Y-94099000D03*
X150290500Y-94099000D03*
X152290500Y-94099000D03*
%TD*%
D40*
%TO.C,C9*%
X141200000Y-123550000D03*
X143100000Y-123550000D03*
%TD*%
D35*
%TO.C,D6*%
X158717500Y-115850000D03*
X157142500Y-115850000D03*
%TD*%
D30*
%TO.C,C3*%
X141150000Y-106750000D03*
X141150000Y-105790000D03*
%TD*%
D29*
%TO.C,Q1*%
X162250000Y-107325000D03*
X160350000Y-107325000D03*
X161300000Y-109200000D03*
%TD*%
D35*
%TO.C,D4*%
X158867500Y-121200000D03*
X157292500Y-121200000D03*
%TD*%
D10*
%TO.C,R3*%
X157430000Y-117200000D03*
X158450000Y-117200000D03*
%TD*%
D41*
%TO.C,D1*%
X157850000Y-106300000D03*
X153850000Y-106300000D03*
%TD*%
D30*
%TO.C,C5*%
X140050000Y-106760000D03*
X140050000Y-105800000D03*
%TD*%
%TO.C,C4*%
X142200000Y-106750000D03*
X142200000Y-105790000D03*
%TD*%
D10*
%TO.C,R2*%
X157630000Y-119850000D03*
X158650000Y-119850000D03*
%TD*%
D35*
%TO.C,D7*%
X158780000Y-113050000D03*
X157205000Y-113050000D03*
%TD*%
M02*
