M48
; DRILL file KiCad 10.0.3 date 2026-09-01T16:16:11
; FORMAT={-:-/ absolute / metric / decimal}
; #@! TF.CreationDate,2026-09-01T16:16:11+05:30
; #@! TF.GenerationSoftware,Kicad,Pcbnew,10.0.3
; #@! TF.FileFunction,Plated,1,4,PTH
FMAT,2
METRIC
; #@! TA.AperFunction,Plated,PTH,ViaDrill
T1C0.300
; #@! TA.AperFunction,Plated,PTH,ComponentDrill
T2C1.000
%
G90
G05
T1
X128.65Y-99.8
X128.65Y-124.5
X129.9Y-106.9
X132.373Y-114.025
X132.5Y-105.45
X132.75Y-109.8
X132.8Y-100.35
X133.226Y-113.974
X133.25Y-126.3
X133.9Y-118.45
X134.0Y-104.05
X134.1Y-105.7
X134.31Y-114.44
X135.25Y-105.0
X135.35Y-106.25
X135.7Y-112.337
X135.936Y-125.696
X136.05Y-121.2
X136.1Y-95.6
X136.1Y-127.0
X136.201Y-111.848
X136.25Y-111.15
X136.3Y-108.28
X136.3Y-109.35
X136.35Y-116.45
X136.737Y-109.897
X136.8Y-97.1
X137.384Y-110.164
X137.85Y-103.0
X138.2Y-123.15
X138.25Y-96.35
X139.05Y-98.0
X139.4Y-105.3
X140.15Y-96.15
X140.8Y-105.1
X142.9Y-124.85
X142.95Y-105.25
X143.85Y-125.1
X151.1Y-122.8
X151.35Y-106.85
X154.05Y-115.45
X154.3Y-112.362
X154.55Y-94.15
X154.55Y-108.75
X154.65Y-96.7
X155.4Y-117.5
X155.6Y-103.2
X155.6Y-118.25
X155.75Y-114.15
X155.75Y-119.45
X156.05Y-120.9
X156.1Y-111.5
X156.25Y-122.6
X157.45Y-104.35
X158.15Y-95.35
X159.8Y-109.25
X159.9Y-101.0
X159.9Y-110.55
X160.8Y-100.1
X161.6Y-105.95
X161.95Y-95.7
X162.65Y-109.05
T2
X130.5Y-94.73
X130.5Y-97.27
X130.5Y-99.81
X130.5Y-102.35
X138.29Y-94.099
X140.29Y-94.099
X144.29Y-94.099
X146.29Y-94.099
X148.29Y-94.099
X150.29Y-94.099
X152.29Y-94.099
M30
