%TF.GenerationSoftware,KiCad,Pcbnew,10.0.3*%
%TF.CreationDate,2026-09-16T16:40:17+05:30*%
%TF.ProjectId,Battery Circuit,42617474-6572-4792-9043-697263756974,rev?*%
%TF.SameCoordinates,Original*%
%TF.FileFunction,Copper,L4,Bot*%
%TF.FilePolarity,Positive*%
%FSLAX46Y46*%
G04 Gerber Fmt 4.6, Leading zero omitted, Abs format (unit mm)*
G04 Created by KiCad (PCBNEW 10.0.3) date 2026-09-16 16:40:17*
%MOMM*%
%LPD*%
G01*
G04 APERTURE LIST*
%TA.AperFunction,ComponentPad*%
%ADD10R,1.700000X1.700000*%
%TD*%
%TA.AperFunction,ComponentPad*%
%ADD11C,1.700000*%
%TD*%
%TA.AperFunction,ComponentPad*%
%ADD12R,1.350000X1.350000*%
%TD*%
%TA.AperFunction,ComponentPad*%
%ADD13C,1.350000*%
%TD*%
%TA.AperFunction,ViaPad*%
%ADD14C,0.600000*%
%TD*%
%TA.AperFunction,ViaPad*%
%ADD15C,0.500000*%
%TD*%
%TA.AperFunction,Conductor*%
%ADD16C,0.300000*%
%TD*%
%TA.AperFunction,Conductor*%
%ADD17C,0.200000*%
%TD*%
G04 APERTURE END LIST*
D10*
%TO.P,J2,1,Pin_1_1*%
%TO.N,/+3V3*%
X130500000Y-102350000D03*
D11*
%TO.P,J2,2,Pin_2_2*%
%TO.N,/SWDIO*%
X130500000Y-99810000D03*
%TO.P,J2,3,Pin_3_3*%
%TO.N,/SWCLK*%
X130500000Y-97270000D03*
%TO.P,J2,4,Pin_4_4*%
%TO.N,GND*%
X130500000Y-94730000D03*
%TD*%
D12*
%TO.P,J1,1,1_1*%
%TO.N,GND*%
X138290500Y-94099000D03*
D13*
%TO.P,J1,2,2_2*%
X140290500Y-94099000D03*
%TO.P,J1,3,3_3*%
%TO.N,Net-(J1-Pad3)*%
X144290500Y-94099000D03*
%TO.P,J1,4,4_4*%
%TO.N,Net-(J1-Pad4)*%
X146290500Y-94099000D03*
%TO.P,J1,5,5_5*%
%TO.N,Net-(J1-Pad5)*%
X148290500Y-94099000D03*
%TO.P,J1,6,6_6*%
%TO.N,/+4S_PROT*%
X150290500Y-94099000D03*
%TO.P,J1,7,7_7*%
X152290500Y-94099000D03*
%TD*%
D14*
%TO.N,/+4S_PROT*%
X161180347Y-108403472D03*
X161136091Y-109786091D03*
X161250000Y-109100000D03*
X159450000Y-104150000D03*
%TO.N,GND*%
X162850000Y-95750000D03*
D15*
%TO.N,Net-(U2-PA2)*%
X136200645Y-111848257D03*
X156250000Y-122600000D03*
%TO.N,/SWDIO*%
X132500000Y-105450000D03*
X132800000Y-100350000D03*
%TO.N,/SWCLK*%
X128650000Y-99800000D03*
X129900000Y-106900000D03*
D14*
%TO.N,GND*%
X139400000Y-105300000D03*
X140800000Y-105100000D03*
X137850000Y-103000000D03*
X136350000Y-116450000D03*
X140150000Y-96150000D03*
X136100000Y-95600000D03*
D15*
X136300000Y-108279708D03*
D14*
X151350000Y-106850000D03*
D15*
X142900000Y-124850000D03*
X128650000Y-124500000D03*
X132372978Y-114024658D03*
D14*
X138250000Y-96350000D03*
D15*
X156050000Y-120900000D03*
X132750000Y-109800000D03*
X155600000Y-118250000D03*
X135350000Y-106250000D03*
X154050000Y-115450000D03*
D14*
X134100000Y-105700000D03*
X142950000Y-105250000D03*
D15*
X133225735Y-113974265D03*
D14*
X159900000Y-101000000D03*
X162300000Y-95500000D03*
D15*
X134309785Y-114440000D03*
X154300000Y-112362390D03*
D14*
X160800000Y-100100000D03*
X136800000Y-97100000D03*
X139050000Y-98000000D03*
D15*
X136050000Y-121200000D03*
X151100000Y-122800000D03*
X143850000Y-125100000D03*
%TO.N,Net-(R9-Pad1)*%
X161600000Y-105950000D03*
X159800000Y-109250000D03*
%TO.N,Net-(Q1-G)*%
X159900000Y-110550000D03*
X162650000Y-109050000D03*
D14*
%TO.N,/+4S_SW*%
X133900000Y-118450000D03*
%TO.N,/+4S_PROT*%
X154650000Y-96700000D03*
X157450000Y-104350000D03*
X155600000Y-103200000D03*
X154550000Y-94150000D03*
X154550000Y-108750000D03*
%TO.N,/TEMP_SENSE*%
X134000000Y-104050000D03*
X135250000Y-105000000D03*
D15*
%TO.N,/LATCH_HOLD*%
X158150000Y-95350000D03*
X135700000Y-112337500D03*
%TO.N,Net-(U2-PA3)*%
X155750000Y-119450000D03*
X136250000Y-111150000D03*
%TO.N,Net-(U2-PA4)*%
X137384156Y-110164126D03*
X155400000Y-117500000D03*
%TO.N,Net-(U2-PA5)*%
X136737288Y-109896610D03*
X155750000Y-114150000D03*
%TO.N,Net-(U2-PA6)*%
X136300000Y-109350000D03*
X156100000Y-111500000D03*
%TO.N,Net-(U1-BOOT)*%
X136100000Y-127000000D03*
X138200000Y-123150000D03*
%TO.N,Net-(U1-SW)*%
X135935580Y-125695630D03*
X133250000Y-126300000D03*
%TD*%
%TO.N,/+4S_PROT*%
D16*
X161100000Y-109800000D02*
X159572182Y-109800000D01*
X161113909Y-109786091D02*
X161100000Y-109800000D01*
X161136091Y-109786091D02*
X161113909Y-109786091D01*
X157450000Y-107677818D02*
X157450000Y-104350000D01*
X159572182Y-109800000D02*
X157450000Y-107677818D01*
X160027818Y-109800000D02*
X159572182Y-109800000D01*
X161180347Y-108647471D02*
X160027818Y-109800000D01*
X161180347Y-108403472D02*
X161180347Y-108647471D01*
X160550000Y-109800000D02*
X159572182Y-109800000D01*
X161250000Y-109100000D02*
X160550000Y-109800000D01*
%TO.N,Net-(U2-PA2)*%
X137518000Y-119485346D02*
X138932654Y-120900000D01*
X138932654Y-120900000D02*
X154550000Y-120900000D01*
X137518000Y-113165612D02*
X137518000Y-119485346D01*
X154550000Y-120900000D02*
X156250000Y-122600000D01*
X136200645Y-111848257D02*
X137518000Y-113165612D01*
%TO.N,/SWDIO*%
X133250000Y-100800000D02*
X132800000Y-100350000D01*
X132500000Y-105450000D02*
X133250000Y-104700000D01*
X133250000Y-104700000D02*
X133250000Y-100800000D01*
%TO.N,/SWCLK*%
X129150000Y-106150000D02*
X129150000Y-100300000D01*
X129150000Y-100300000D02*
X128650000Y-99800000D01*
X129900000Y-106900000D02*
X129150000Y-106150000D01*
%TO.N,Net-(R9-Pad1)*%
X159800000Y-107750000D02*
X159800000Y-109250000D01*
X161600000Y-105950000D02*
X159800000Y-107750000D01*
%TO.N,Net-(Q1-G)*%
X161150000Y-110550000D02*
X159900000Y-110550000D01*
X162650000Y-109050000D02*
X161150000Y-110550000D01*
%TO.N,/TEMP_SENSE*%
D17*
X134000000Y-104415400D02*
X134584600Y-105000000D01*
X134584600Y-105000000D02*
X135250000Y-105000000D01*
X134000000Y-104050000D02*
X134000000Y-104415400D01*
%TO.N,/LATCH_HOLD*%
D16*
X135200000Y-111000000D02*
X135200000Y-111837500D01*
X158150000Y-95350000D02*
X157450000Y-96050000D01*
X146350000Y-96050000D02*
X135700000Y-106700000D01*
X135700000Y-110500000D02*
X135200000Y-111000000D01*
X157450000Y-96050000D02*
X146350000Y-96050000D01*
X135200000Y-111837500D02*
X135700000Y-112337500D01*
X135700000Y-106700000D02*
X135700000Y-110500000D01*
%TO.N,Net-(U2-PA3)*%
X138018000Y-111169761D02*
X138018000Y-119278239D01*
X137637239Y-110789000D02*
X138018000Y-111169761D01*
X138018000Y-119278239D02*
X138589761Y-119850000D01*
X154500000Y-119450000D02*
X155750000Y-119450000D01*
X138589761Y-119850000D02*
X154100000Y-119850000D01*
X154100000Y-119850000D02*
X154500000Y-119450000D01*
X136611000Y-110789000D02*
X137637239Y-110789000D01*
X136250000Y-111150000D02*
X136611000Y-110789000D01*
%TO.N,Net-(U2-PA4)*%
X151794365Y-108750000D02*
X138798282Y-108750000D01*
X155400000Y-117500000D02*
X155400000Y-116750000D01*
X138798282Y-108750000D02*
X137384156Y-110164126D01*
X154900000Y-116250000D02*
X154900000Y-111855635D01*
X155400000Y-116750000D02*
X154900000Y-116250000D01*
X154900000Y-111855635D02*
X151794365Y-108750000D01*
%TO.N,Net-(U2-PA5)*%
X155750000Y-111998529D02*
X155750000Y-114150000D01*
X138433898Y-108200000D02*
X151951471Y-108200000D01*
X136737288Y-109896610D02*
X138433898Y-108200000D01*
X151951471Y-108200000D02*
X155750000Y-111998529D01*
%TO.N,Net-(U2-PA6)*%
X152250000Y-107650000D02*
X138000000Y-107650000D01*
X156100000Y-111500000D02*
X152250000Y-107650000D01*
X138000000Y-107650000D02*
X136300000Y-109350000D01*
%TO.N,Net-(U1-BOOT)*%
X138200000Y-124900000D02*
X136100000Y-127000000D01*
X138200000Y-123150000D02*
X138200000Y-124900000D01*
%TO.N,Net-(U1-SW)*%
X135935580Y-125695630D02*
X133854370Y-125695630D01*
X133854370Y-125695630D02*
X133250000Y-126300000D01*
%TD*%
%TA.AperFunction,Conductor*%
%TO.N,GND*%
G36*
X141839760Y-92310001D02*
G01*
X134876006Y-92744662D01*
X134900876Y-92737800D01*
X136596067Y-92550434D01*
X136603945Y-92549817D01*
X141830861Y-92307830D01*
X141839760Y-92310001D01*
G37*
%TD.AperFunction*%
%TD*%
%TA.AperFunction,Conductor*%
%TO.N,Net-(J1-Pad3)*%
G36*
X144991373Y-96854538D02*
G01*
X144983628Y-96888972D01*
X144973548Y-96915428D01*
X144945355Y-96958960D01*
X141248671Y-100655644D01*
X141220421Y-100676793D01*
X141210494Y-100682214D01*
X141197365Y-100685070D01*
X141192805Y-100688422D01*
X141177572Y-100689376D01*
X141142221Y-100697068D01*
X141129649Y-100692379D01*
X141123072Y-100692792D01*
X141107549Y-100684137D01*
X141076756Y-100672654D01*
X141069452Y-100662898D01*
X141062046Y-100658769D01*
X141051263Y-100638602D01*
X141034883Y-100616722D01*
X141034874Y-100616697D01*
X141034307Y-100615176D01*
X141032747Y-100603970D01*
X141029102Y-100597153D01*
X141026895Y-100561928D01*
X141026929Y-100561505D01*
X141029818Y-100543074D01*
X141160180Y-99988448D01*
X141159846Y-99990582D01*
X141159696Y-99990858D01*
X141159729Y-99991327D01*
X141157291Y-100006879D01*
X141157257Y-100007302D01*
X141164669Y-100060550D01*
X141165236Y-100062071D01*
X141165245Y-100062096D01*
X141165262Y-100062118D01*
X141182145Y-100093051D01*
X141196424Y-100103744D01*
X141207118Y-100118028D01*
X141223811Y-100124253D01*
X141238071Y-100134932D01*
X141255866Y-100136207D01*
X141272583Y-100142442D01*
X141289990Y-100138654D01*
X141307762Y-100139929D01*
X141323423Y-100131380D01*
X141340856Y-100127588D01*
X141350783Y-100122167D01*
X141379033Y-100101018D01*
X144981548Y-96498503D01*
X145009741Y-96454971D01*
X145019821Y-96428515D01*
X145027566Y-96394083D01*
X144991373Y-96854538D01*
G37*
%TD.AperFunction*%
%TA.AperFunction,Conductor*%
G36*
X145211421Y-92406192D02*
G01*
X145228186Y-92412263D01*
X145245986Y-92413366D01*
X145260356Y-92423911D01*
X145277116Y-92429980D01*
X145287938Y-92444151D01*
X145302316Y-92454702D01*
X145319516Y-92485501D01*
X145319522Y-92485509D01*
X145319525Y-92485517D01*
X145322143Y-92492337D01*
X145329998Y-92546492D01*
X145290500Y-93049000D01*
X145279975Y-93182892D01*
X145262087Y-93237959D01*
X145238228Y-93276896D01*
X145241880Y-93270517D01*
X145242721Y-93266463D01*
X145252184Y-93244504D01*
X145251723Y-93223085D01*
X145256077Y-93202105D01*
X145250986Y-93188846D01*
X145250681Y-93174650D01*
X145238712Y-93156879D01*
X145231033Y-93136878D01*
X145219583Y-93128476D01*
X145211650Y-93116698D01*
X145191973Y-93108218D01*
X145174700Y-93095545D01*
X145160526Y-93094667D01*
X145147485Y-93089048D01*
X145126348Y-93092552D01*
X145104964Y-93091229D01*
X144932362Y-93130514D01*
X144872205Y-93163738D01*
X144546642Y-93489302D01*
X144536859Y-93500324D01*
X144510891Y-93565189D01*
X144524113Y-93633796D01*
X144572328Y-93684363D01*
X144597500Y-93698896D01*
X144597504Y-93698899D01*
X144597507Y-93698901D01*
X144690599Y-93791993D01*
X144705137Y-93817173D01*
X144713253Y-93829479D01*
X144769187Y-93871350D01*
X144838878Y-93876334D01*
X144900201Y-93842849D01*
X145139373Y-93603676D01*
X145147125Y-93595169D01*
X145174779Y-93531007D01*
X144959867Y-95293566D01*
X144954150Y-95238558D01*
X144913893Y-95181452D01*
X144849152Y-95155177D01*
X144780483Y-95168073D01*
X144741543Y-95187915D01*
X144741540Y-95187916D01*
X144565647Y-95245066D01*
X144382973Y-95274000D01*
X144382972Y-95274000D01*
X144198027Y-95274000D01*
X144015352Y-95245066D01*
X143839459Y-95187916D01*
X143839456Y-95187915D01*
X143674665Y-95103949D01*
X143654068Y-95088984D01*
X143654068Y-95088983D01*
X143654067Y-95088983D01*
X143654068Y-95088982D01*
X144034349Y-94708702D01*
X144044138Y-94697673D01*
X144070106Y-94632809D01*
X144056884Y-94564202D01*
X144008669Y-94513634D01*
X143983493Y-94499099D01*
X143890401Y-94406007D01*
X143890399Y-94406004D01*
X143890396Y-94406000D01*
X143875863Y-94380828D01*
X143867744Y-94368518D01*
X143811810Y-94326647D01*
X143742119Y-94321663D01*
X143680798Y-94355146D01*
X143300515Y-94735430D01*
X143300514Y-94735429D01*
X143285556Y-94714843D01*
X143285554Y-94714839D01*
X143285550Y-94714834D01*
X143201584Y-94550043D01*
X143201583Y-94550040D01*
X143201582Y-94550039D01*
X143201581Y-94550036D01*
X143144433Y-94374148D01*
X143115500Y-94191472D01*
X143115500Y-94006526D01*
X143144432Y-93823852D01*
X143177434Y-93722280D01*
X143183095Y-93673931D01*
X143158051Y-93608704D01*
X143101718Y-93567372D01*
X143031985Y-93563056D01*
X142725474Y-93632821D01*
X142666788Y-93664599D01*
X142632288Y-93725353D01*
X142794582Y-93034869D01*
X142807462Y-93002017D01*
X142815619Y-92987653D01*
X142864394Y-92939850D01*
X142876900Y-92933078D01*
X142908411Y-92921214D01*
X145162396Y-92408189D01*
X145197569Y-92405335D01*
X145211421Y-92406192D01*
G37*
%TD.AperFunction*%
%TD*%
%TA.AperFunction,Conductor*%
%TO.N,Net-(J1-Pad5)*%
G36*
X149088891Y-93490523D02*
G01*
X149154658Y-93514110D01*
X149197234Y-93569510D01*
X149203099Y-93639133D01*
X149199540Y-93652626D01*
X149143945Y-93823732D01*
X149115000Y-94006486D01*
X149115000Y-94191513D01*
X149143945Y-94374265D01*
X149201119Y-94550232D01*
X149201120Y-94550235D01*
X149257196Y-94660289D01*
X149285122Y-94715096D01*
X149393879Y-94864787D01*
X149524713Y-94995621D01*
X149674404Y-95104378D01*
X149793411Y-95165015D01*
X149844207Y-95212990D01*
X149861002Y-95280811D01*
X149838465Y-95346945D01*
X149783750Y-95390397D01*
X149737116Y-95399500D01*
X148144173Y-95399500D01*
X148077134Y-95379815D01*
X148031379Y-95327011D01*
X148023838Y-95305425D01*
X147877036Y-94715096D01*
X147590686Y-93563609D01*
X147593610Y-93493802D01*
X147633812Y-93436657D01*
X147698526Y-93410317D01*
X147718300Y-93409900D01*
X149088891Y-93490523D01*
G37*
%TD.AperFunction*%
%TD*%
%TA.AperFunction,Conductor*%
%TO.N,GND*%
G36*
X141898737Y-92324393D02*
G01*
X141946885Y-92375024D01*
X141960017Y-92443649D01*
X141956416Y-92463615D01*
X139401533Y-102054897D01*
X139369392Y-102110660D01*
X138180958Y-103299094D01*
X138119635Y-103332579D01*
X138049943Y-103327595D01*
X138040642Y-103323687D01*
X134861865Y-101833456D01*
X134809520Y-101787177D01*
X134790500Y-101721182D01*
X134790500Y-92861049D01*
X134810185Y-92794010D01*
X134862989Y-92748255D01*
X134876006Y-92744662D01*
X141839759Y-92310001D01*
X141898737Y-92324393D01*
G37*
%TD.AperFunction*%
%TD*%
%TA.AperFunction,Conductor*%
%TO.N,Net-(J1-Pad3)*%
G36*
X143101718Y-93567372D02*
G01*
X143158051Y-93608704D01*
X143183095Y-93673931D01*
X143177434Y-93722280D01*
X143144432Y-93823852D01*
X143115500Y-94006526D01*
X143115500Y-94191472D01*
X143144433Y-94374148D01*
X143201581Y-94550036D01*
X143201582Y-94550039D01*
X143201583Y-94550040D01*
X143201584Y-94550043D01*
X143285550Y-94714834D01*
X143285554Y-94714839D01*
X143285556Y-94714843D01*
X143300514Y-94735429D01*
X143300515Y-94735430D01*
X143680798Y-94355146D01*
X143742119Y-94321663D01*
X143811810Y-94326647D01*
X143867744Y-94368518D01*
X143875863Y-94380828D01*
X143890396Y-94406000D01*
X143890399Y-94406004D01*
X143890401Y-94406007D01*
X143983493Y-94499099D01*
X144008669Y-94513634D01*
X144056884Y-94564202D01*
X144070106Y-94632809D01*
X144044138Y-94697673D01*
X144034349Y-94708702D01*
X143654068Y-95088982D01*
X143654067Y-95088983D01*
X143654068Y-95088983D01*
X143654068Y-95088984D01*
X143674665Y-95103949D01*
X143839456Y-95187915D01*
X143839459Y-95187916D01*
X144015352Y-95245066D01*
X144198027Y-95274000D01*
X144382972Y-95274000D01*
X144382973Y-95274000D01*
X144565647Y-95245066D01*
X144741540Y-95187916D01*
X144741543Y-95187915D01*
X144780483Y-95168073D01*
X144849152Y-95155177D01*
X144913893Y-95181452D01*
X144954150Y-95238558D01*
X144959867Y-95293566D01*
X144912559Y-95681552D01*
X144912348Y-95802173D01*
X144919253Y-95860504D01*
X144919254Y-95860507D01*
X144947616Y-95977720D01*
X144948871Y-95981085D01*
X144948978Y-95981370D01*
X144948989Y-95981399D01*
X145017947Y-96107678D01*
X145017950Y-96107683D01*
X145019005Y-96109092D01*
X145019212Y-96109648D01*
X145020344Y-96111409D01*
X145019961Y-96111655D01*
X145028388Y-96134244D01*
X145041092Y-96157905D01*
X145041901Y-96170469D01*
X145043426Y-96174555D01*
X145043362Y-96193126D01*
X145027566Y-96394083D01*
X145019821Y-96428515D01*
X145009741Y-96454971D01*
X144981548Y-96498503D01*
X141379033Y-100101018D01*
X141350783Y-100122167D01*
X141340856Y-100127588D01*
X141323423Y-100131380D01*
X141307762Y-100139929D01*
X141289990Y-100138654D01*
X141272583Y-100142442D01*
X141255866Y-100136207D01*
X141238071Y-100134932D01*
X141223811Y-100124253D01*
X141207118Y-100118028D01*
X141196424Y-100103744D01*
X141182145Y-100093051D01*
X141165262Y-100062118D01*
X141165245Y-100062096D01*
X141165236Y-100062071D01*
X141164669Y-100060550D01*
X141157257Y-100007302D01*
X141157291Y-100006879D01*
X141159729Y-99991327D01*
X141159696Y-99990858D01*
X141159846Y-99990582D01*
X141160180Y-99988448D01*
X142632288Y-93725353D01*
X142666788Y-93664599D01*
X142725474Y-93632821D01*
X143031985Y-93563056D01*
X143101718Y-93567372D01*
G37*
%TD.AperFunction*%
%TA.AperFunction,Conductor*%
G36*
X145160524Y-93094667D02*
G01*
X145174699Y-93095545D01*
X145191971Y-93108218D01*
X145211646Y-93116696D01*
X145219580Y-93128475D01*
X145231032Y-93136878D01*
X145238710Y-93156877D01*
X145250679Y-93174646D01*
X145250984Y-93188845D01*
X145256076Y-93202105D01*
X145251722Y-93223083D01*
X145252184Y-93244500D01*
X145242719Y-93266464D01*
X145241879Y-93270517D01*
X145238218Y-93276913D01*
X145235316Y-93281649D01*
X145235314Y-93281653D01*
X145229125Y-93296011D01*
X145205379Y-93364103D01*
X145205374Y-93364119D01*
X145196161Y-93398179D01*
X145182346Y-93468967D01*
X145182343Y-93468984D01*
X145174780Y-93531005D01*
X145147125Y-93595169D01*
X145139373Y-93603676D01*
X144900201Y-93842849D01*
X144838878Y-93876334D01*
X144769187Y-93871350D01*
X144713253Y-93829479D01*
X144705137Y-93817173D01*
X144690599Y-93791993D01*
X144597507Y-93698901D01*
X144597504Y-93698899D01*
X144597500Y-93698896D01*
X144572328Y-93684363D01*
X144524113Y-93633796D01*
X144510891Y-93565189D01*
X144536859Y-93500324D01*
X144546642Y-93489302D01*
X144872205Y-93163738D01*
X144932362Y-93130514D01*
X145104964Y-93091229D01*
X145126344Y-93092552D01*
X145147480Y-93089047D01*
X145160524Y-93094667D01*
G37*
%TD.AperFunction*%
%TD*%
%TA.AperFunction,Conductor*%
%TO.N,/+4S_PROT*%
G36*
X160093737Y-91707037D02*
G01*
X160108824Y-91711159D01*
X160123996Y-91720506D01*
X160141175Y-91725196D01*
X160168284Y-91747793D01*
X160169589Y-91749243D01*
X160198031Y-91803320D01*
X160199779Y-91810613D01*
X160203161Y-91836647D01*
X160376595Y-99332888D01*
X160372382Y-99367927D01*
X160367137Y-99387451D01*
X160359744Y-99400552D01*
X160357405Y-99412473D01*
X160336836Y-99441153D01*
X160331270Y-99446951D01*
X160310712Y-99464177D01*
X160289713Y-99478208D01*
X160289703Y-99478216D01*
X160289704Y-99478217D01*
X160178211Y-99589708D01*
X160090613Y-99720807D01*
X160090603Y-99720824D01*
X160090598Y-99720833D01*
X160030264Y-99866496D01*
X160030257Y-99866527D01*
X159999500Y-100021150D01*
X159999500Y-100057670D01*
X159999499Y-100057676D01*
X159999500Y-100057679D01*
X159994475Y-100092614D01*
X159990070Y-100107612D01*
X159952327Y-100166355D01*
X159952292Y-100166385D01*
X159952291Y-100166387D01*
X159952289Y-100166387D01*
X159950958Y-100167542D01*
X159896097Y-100195018D01*
X159888539Y-100196663D01*
X159862168Y-100199500D01*
X159821153Y-100199500D01*
X159666527Y-100230257D01*
X159666496Y-100230264D01*
X159520833Y-100290598D01*
X159520824Y-100290603D01*
X159520807Y-100290613D01*
X159389708Y-100378211D01*
X159389707Y-100378212D01*
X159389701Y-100378217D01*
X159278217Y-100489701D01*
X159278212Y-100489707D01*
X159278211Y-100489708D01*
X159190613Y-100620807D01*
X159190603Y-100620824D01*
X159190598Y-100620833D01*
X159130264Y-100766496D01*
X159130257Y-100766527D01*
X159099500Y-100921150D01*
X159099500Y-100921153D01*
X159099500Y-101078846D01*
X159099500Y-101078848D01*
X159099499Y-101078848D01*
X159130257Y-101233471D01*
X159130264Y-101233502D01*
X159190598Y-101379165D01*
X159190603Y-101379174D01*
X159190613Y-101379191D01*
X159278211Y-101510290D01*
X159278212Y-101510291D01*
X159278217Y-101510297D01*
X159389701Y-101621781D01*
X159389707Y-101621786D01*
X159389711Y-101621789D01*
X159520814Y-101709390D01*
X159520827Y-101709397D01*
X159594573Y-101739943D01*
X159666503Y-101769737D01*
X159706420Y-101777677D01*
X159801303Y-101796551D01*
X159801304Y-101796550D01*
X159818805Y-101800032D01*
X159821153Y-101800499D01*
X159821156Y-101800500D01*
X159821158Y-101800500D01*
X159978844Y-101800500D01*
X159978845Y-101800499D01*
X160133497Y-101769737D01*
X160246429Y-101722958D01*
X160280620Y-101714231D01*
X160294420Y-101712747D01*
X160363178Y-101725150D01*
X160414317Y-101772758D01*
X160414326Y-101772773D01*
X160417235Y-101777677D01*
X160434554Y-101838072D01*
X160531449Y-106026103D01*
X160527235Y-106061145D01*
X160520536Y-106086079D01*
X160488464Y-106141586D01*
X159303655Y-107326396D01*
X159303653Y-107326398D01*
X159294727Y-107335325D01*
X159294724Y-107335328D01*
X159281572Y-107355010D01*
X159107258Y-107276049D01*
X157398331Y-106501935D01*
X157354908Y-106491130D01*
X157286770Y-106506593D01*
X157237810Y-106556439D01*
X157223570Y-106624842D01*
X157248573Y-106690085D01*
X158193784Y-107929436D01*
X159036122Y-109033901D01*
X158992731Y-109048343D01*
X158944202Y-109040313D01*
X158923412Y-109032401D01*
X158923401Y-109032397D01*
X158858140Y-109016031D01*
X158808005Y-109003458D01*
X158804362Y-109002990D01*
X158804357Y-109002990D01*
X158660575Y-109005142D01*
X158660565Y-109005142D01*
X158660563Y-109005143D01*
X158660559Y-109005143D01*
X158660555Y-109005144D01*
X158592095Y-109016031D01*
X158591587Y-109016109D01*
X158454150Y-109058700D01*
X158454140Y-109058704D01*
X158440030Y-109065404D01*
X158440026Y-109065406D01*
X158377282Y-109100887D01*
X158347882Y-109120403D01*
X158290778Y-109164489D01*
X158281983Y-109172342D01*
X158218864Y-109202305D01*
X158204260Y-109203747D01*
X155213117Y-109321046D01*
X155133470Y-109330541D01*
X155133454Y-109330543D01*
X155094987Y-109338265D01*
X155017838Y-109360243D01*
X155008933Y-109363563D01*
X155008923Y-109363567D01*
X155005435Y-109365201D01*
X155005017Y-109364309D01*
X154940960Y-109378222D01*
X154875504Y-109353783D01*
X154862167Y-109342222D01*
X154356105Y-108836160D01*
X152664674Y-107144727D01*
X152664671Y-107144724D01*
X152623309Y-107117087D01*
X152621641Y-107115891D01*
X152619822Y-107113561D01*
X152598765Y-107094647D01*
X152588740Y-107082651D01*
X152579996Y-107062563D01*
X152578637Y-107060823D01*
X152578475Y-107059069D01*
X152560855Y-107018591D01*
X152559682Y-107009246D01*
X152564524Y-106956289D01*
X155550000Y-97550000D01*
X155549999Y-97549999D01*
X155550000Y-97549998D01*
X150672983Y-96949750D01*
X150672982Y-96949751D01*
X150672980Y-96949750D01*
X150672960Y-96949748D01*
X150638920Y-96940504D01*
X150633882Y-96938327D01*
X150580151Y-96893665D01*
X150559095Y-96827044D01*
X150577400Y-96759615D01*
X150629254Y-96712786D01*
X150683069Y-96700500D01*
X156865587Y-96700500D01*
X156900521Y-96705523D01*
X156932631Y-96714951D01*
X156966017Y-96730447D01*
X157079989Y-96805698D01*
X157450000Y-97050000D01*
X157499999Y-97050000D01*
X157500000Y-97050000D01*
X157500000Y-97049999D01*
X157329218Y-96937958D01*
X157319781Y-96927837D01*
X157310510Y-96922904D01*
X157302760Y-96914591D01*
X157295435Y-96905974D01*
X157291812Y-96897838D01*
X157289055Y-96894881D01*
X157283577Y-96885102D01*
X157280864Y-96873252D01*
X157267013Y-96842146D01*
X157269714Y-96824542D01*
X157267986Y-96816993D01*
X157273009Y-96803065D01*
X157277610Y-96773085D01*
X157288113Y-96761193D01*
X157291693Y-96751269D01*
X157307709Y-96739006D01*
X157323861Y-96720718D01*
X157325730Y-96719542D01*
X157337604Y-96716118D01*
X157347170Y-96708794D01*
X157369332Y-96706967D01*
X157391759Y-96700500D01*
X157514073Y-96700500D01*
X157598615Y-96683682D01*
X157639744Y-96675501D01*
X157758127Y-96626465D01*
X157864669Y-96555277D01*
X158306537Y-96113406D01*
X158330456Y-96094740D01*
X158361276Y-96076269D01*
X158377541Y-96068083D01*
X158498939Y-96017799D01*
X158501739Y-96016823D01*
X158503183Y-96016155D01*
X158507838Y-96014114D01*
X158517105Y-96010275D01*
X158525990Y-96001389D01*
X158628416Y-95932951D01*
X158732951Y-95828416D01*
X158815084Y-95705495D01*
X158871658Y-95568913D01*
X158877035Y-95541876D01*
X158881096Y-95521465D01*
X158881096Y-95521462D01*
X158900500Y-95423920D01*
X158900500Y-95276079D01*
X158900500Y-95276076D01*
X158871419Y-95129885D01*
X158869332Y-95125472D01*
X158860595Y-95104379D01*
X158860595Y-95104378D01*
X158836373Y-95045900D01*
X158815090Y-94994517D01*
X158815085Y-94994508D01*
X158815080Y-94994498D01*
X158732951Y-94871584D01*
X158732948Y-94871580D01*
X158732943Y-94871574D01*
X158628424Y-94767055D01*
X158628418Y-94767050D01*
X158628417Y-94767049D01*
X158505507Y-94684923D01*
X158505506Y-94684922D01*
X158505501Y-94684919D01*
X158505488Y-94684912D01*
X158505481Y-94684908D01*
X158368919Y-94628344D01*
X158368920Y-94628344D01*
X158368917Y-94628343D01*
X158368907Y-94628340D01*
X158368905Y-94628339D01*
X158368900Y-94628338D01*
X158223922Y-94599500D01*
X158223920Y-94599500D01*
X158223918Y-94599500D01*
X158076082Y-94599500D01*
X158076080Y-94599500D01*
X158076078Y-94599500D01*
X157931096Y-94628338D01*
X157931079Y-94628344D01*
X157794517Y-94684908D01*
X157794508Y-94684913D01*
X157794491Y-94684923D01*
X157671581Y-94767049D01*
X157671580Y-94767050D01*
X157671574Y-94767055D01*
X157567055Y-94871574D01*
X157567050Y-94871580D01*
X157567049Y-94871581D01*
X157484915Y-94994502D01*
X157484910Y-94994512D01*
X157431922Y-95122442D01*
X157423718Y-95138741D01*
X157405257Y-95169540D01*
X157386583Y-95193469D01*
X157303972Y-95276082D01*
X157253043Y-95327011D01*
X157229480Y-95350574D01*
X157201229Y-95371722D01*
X157178141Y-95384330D01*
X157118711Y-95399500D01*
X155039063Y-95399500D01*
X155039062Y-95399499D01*
X155039062Y-95399500D01*
X155004127Y-95394477D01*
X154971852Y-95385000D01*
X154938769Y-95369702D01*
X154920709Y-95357854D01*
X150000327Y-92129832D01*
X149973869Y-92106465D01*
X149966544Y-92097848D01*
X149938122Y-92034020D01*
X149948719Y-91964959D01*
X149994963Y-91912597D01*
X149997110Y-91911245D01*
X150060808Y-91892211D01*
X160058722Y-91702677D01*
X160093737Y-91707037D01*
G37*
%TD.AperFunction*%
%TA.AperFunction,Conductor*%
G36*
X149806630Y-92005538D02*
G01*
X149807855Y-92006092D01*
X149825069Y-92015589D01*
X154543692Y-95131092D01*
X154590804Y-95162198D01*
X154600358Y-95172553D01*
X154609879Y-95177713D01*
X154617185Y-95185633D01*
X154624485Y-95194270D01*
X154628247Y-95202784D01*
X154631121Y-95205899D01*
X154636526Y-95215722D01*
X154639086Y-95227310D01*
X154652727Y-95258178D01*
X154649899Y-95276259D01*
X154651598Y-95283947D01*
X154646567Y-95297566D01*
X154641933Y-95327209D01*
X154631126Y-95339379D01*
X154627392Y-95349490D01*
X154611538Y-95361437D01*
X154595566Y-95379425D01*
X154593671Y-95380611D01*
X154581435Y-95384124D01*
X154571594Y-95391541D01*
X154549974Y-95393157D01*
X154527886Y-95399500D01*
X150487956Y-95399500D01*
X150420917Y-95379815D01*
X150375162Y-95327011D01*
X150364575Y-95287873D01*
X150352708Y-95169540D01*
X150351681Y-95159301D01*
X150345999Y-95136356D01*
X150334889Y-95091490D01*
X150334882Y-95091469D01*
X150280779Y-94958166D01*
X150280774Y-94958158D01*
X150191298Y-94845487D01*
X150140859Y-94797849D01*
X150140858Y-94797848D01*
X150140503Y-94797513D01*
X150140500Y-94797511D01*
X150022903Y-94714611D01*
X149943150Y-94673974D01*
X149938494Y-94671057D01*
X149937637Y-94670091D01*
X149931446Y-94666297D01*
X149861914Y-94615779D01*
X149847118Y-94603142D01*
X149786356Y-94542380D01*
X149773725Y-94527592D01*
X149723191Y-94458038D01*
X149713034Y-94441464D01*
X149707598Y-94430794D01*
X149674011Y-94364877D01*
X149666572Y-94346917D01*
X149640010Y-94265166D01*
X149635470Y-94246250D01*
X149622027Y-94161372D01*
X149620500Y-94141975D01*
X149620500Y-94056032D01*
X149622026Y-94036636D01*
X149623351Y-94028264D01*
X149635472Y-93951730D01*
X149640011Y-93932825D01*
X149680300Y-93808832D01*
X149688323Y-93781551D01*
X149691882Y-93768058D01*
X149691882Y-93768055D01*
X149691888Y-93768035D01*
X149698364Y-93740339D01*
X149698366Y-93740332D01*
X149706815Y-93596700D01*
X149701388Y-93532276D01*
X149701297Y-93530128D01*
X149700950Y-93527077D01*
X149700950Y-93527073D01*
X149668590Y-93386879D01*
X149598043Y-93261480D01*
X149598040Y-93261476D01*
X149598039Y-93261474D01*
X149555473Y-93206087D01*
X149555469Y-93206082D01*
X149539688Y-93190695D01*
X149505431Y-93129800D01*
X149503192Y-93086689D01*
X149621567Y-92129832D01*
X149623265Y-92116100D01*
X149632535Y-92082057D01*
X149638055Y-92069312D01*
X149682756Y-92015621D01*
X149749387Y-91994617D01*
X149753083Y-91994544D01*
X149806630Y-92005538D01*
G37*
%TD.AperFunction*%
%TD*%
%TA.AperFunction,Conductor*%
%TO.N,Net-(J1-Pad4)*%
G36*
X146967004Y-93439592D02*
G01*
X147033394Y-93461360D01*
X147077477Y-93515568D01*
X147086498Y-93551036D01*
X147100126Y-93685598D01*
X147100127Y-93685603D01*
X147134182Y-93822547D01*
X147136320Y-93871868D01*
X147115000Y-94006480D01*
X147115000Y-94191518D01*
X147143945Y-94374268D01*
X147201110Y-94550208D01*
X147201117Y-94550227D01*
X147201117Y-94550228D01*
X147201118Y-94550231D01*
X147201119Y-94550232D01*
X147201120Y-94550235D01*
X147285122Y-94715096D01*
X147378909Y-94844182D01*
X147398924Y-94887139D01*
X147488059Y-95245575D01*
X147485135Y-95315384D01*
X147444933Y-95372529D01*
X147380219Y-95398869D01*
X147367724Y-95399500D01*
X146285926Y-95399500D01*
X146160273Y-95424493D01*
X146160265Y-95424495D01*
X146160245Y-95424502D01*
X146041877Y-95473531D01*
X146041864Y-95473538D01*
X145935331Y-95544721D01*
X145935315Y-95544736D01*
X145636399Y-95843652D01*
X145613678Y-95860662D01*
X145608149Y-95864801D01*
X145598222Y-95870222D01*
X145529949Y-95885076D01*
X145464484Y-95860662D01*
X145422611Y-95804730D01*
X145421249Y-95801078D01*
X145414343Y-95742742D01*
X145684128Y-93530161D01*
X145693342Y-93496095D01*
X145699530Y-93481738D01*
X145744133Y-93427971D01*
X145748093Y-93425304D01*
X145800315Y-93405332D01*
X145802846Y-93404980D01*
X145823747Y-93403866D01*
X146967004Y-93439592D01*
G37*
%TD.AperFunction*%
%TD*%
%TA.AperFunction,Conductor*%
%TO.N,/+4S_SW*%
G36*
X163287018Y-108293917D02*
G01*
X163302210Y-108297615D01*
X163317645Y-108306543D01*
X163334971Y-108310762D01*
X163362682Y-108332592D01*
X163362688Y-108332596D01*
X163362695Y-108332603D01*
X163362873Y-108332790D01*
X163393571Y-108389087D01*
X163396014Y-108399171D01*
X163399500Y-108428367D01*
X163399500Y-118929623D01*
X163399472Y-118932256D01*
X163399416Y-118934893D01*
X163399334Y-118937490D01*
X163134712Y-125205613D01*
X163134711Y-125205614D01*
X163134712Y-125205616D01*
X163129808Y-125231818D01*
X163128219Y-125240308D01*
X163123819Y-125253246D01*
X163083598Y-125310377D01*
X163018874Y-125336694D01*
X162957377Y-125327209D01*
X162949858Y-125323971D01*
X162926019Y-125310402D01*
X162897355Y-125289577D01*
X162897354Y-125289576D01*
X162864433Y-125265657D01*
X162850253Y-125258432D01*
X162653996Y-125158433D01*
X162429368Y-125085446D01*
X162429362Y-125085445D01*
X162196102Y-125048500D01*
X162196097Y-125048500D01*
X162196092Y-125048500D01*
X161959908Y-125048500D01*
X161959903Y-125048500D01*
X161959898Y-125048500D01*
X161726636Y-125085445D01*
X161726634Y-125085445D01*
X161726631Y-125085446D01*
X161502003Y-125158433D01*
X161443267Y-125188361D01*
X161291566Y-125265656D01*
X161205048Y-125328517D01*
X161205047Y-125328517D01*
X161112360Y-125395858D01*
X161104981Y-125399990D01*
X160928990Y-125575981D01*
X160924858Y-125583360D01*
X160893871Y-125626010D01*
X160794661Y-125762560D01*
X160794653Y-125762573D01*
X160764967Y-125820835D01*
X160687433Y-125973003D01*
X160614446Y-126197631D01*
X160614445Y-126197634D01*
X160614445Y-126197636D01*
X160577500Y-126430896D01*
X160577500Y-126549015D01*
X160577499Y-126549021D01*
X160577500Y-126549024D01*
X160572475Y-126583959D01*
X160568070Y-126598957D01*
X160530306Y-126657718D01*
X160530292Y-126657729D01*
X160530291Y-126657732D01*
X160530288Y-126657733D01*
X160527591Y-126660071D01*
X160475995Y-126686778D01*
X160471494Y-126687885D01*
X160448580Y-126691292D01*
X152227007Y-127136211D01*
X152227007Y-127136212D01*
X152227005Y-127136211D01*
X152227002Y-127136212D01*
X152191851Y-127133085D01*
X152176638Y-127129499D01*
X152115904Y-127094959D01*
X152114437Y-127093414D01*
X152114423Y-127093399D01*
X152084665Y-127038416D01*
X152082089Y-127027947D01*
X152078500Y-126998329D01*
X152078500Y-126133110D01*
X152078500Y-126133108D01*
X152044392Y-126005814D01*
X152044387Y-126005806D01*
X152025449Y-125973004D01*
X151978500Y-125891686D01*
X151885314Y-125798500D01*
X151823075Y-125762566D01*
X151809860Y-125754936D01*
X151771188Y-125732608D01*
X151707539Y-125715554D01*
X151643892Y-125698500D01*
X151643891Y-125698500D01*
X144194970Y-125698500D01*
X144179285Y-125694256D01*
X144165149Y-125694861D01*
X144160035Y-125693477D01*
X144149181Y-125690290D01*
X144137951Y-125683073D01*
X144132447Y-125681584D01*
X144123582Y-125676408D01*
X144117412Y-125669873D01*
X144090403Y-125652516D01*
X144080455Y-125630733D01*
X144075614Y-125625606D01*
X144073869Y-125616313D01*
X144061378Y-125588960D01*
X144064565Y-125566743D01*
X144062725Y-125556935D01*
X144067749Y-125544560D01*
X144071292Y-125519868D01*
X144071551Y-125519301D01*
X144085262Y-125501426D01*
X144089009Y-125492198D01*
X144096261Y-125487086D01*
X144105436Y-125475124D01*
X144107173Y-125473691D01*
X144124112Y-125461933D01*
X144124559Y-125461674D01*
X144126613Y-125460489D01*
X144210489Y-125376613D01*
X144269799Y-125273886D01*
X144300500Y-125159309D01*
X144300500Y-125040691D01*
X144269799Y-124926114D01*
X144210489Y-124823387D01*
X144126613Y-124739511D01*
X144023886Y-124680201D01*
X143909309Y-124649500D01*
X143909306Y-124649500D01*
X143790691Y-124649500D01*
X143699728Y-124673873D01*
X143699723Y-124673874D01*
X143676114Y-124680201D01*
X143676112Y-124680201D01*
X143676112Y-124680202D01*
X143654946Y-124692422D01*
X143654937Y-124692426D01*
X143573393Y-124739507D01*
X143573380Y-124739515D01*
X143551258Y-124761637D01*
X143551257Y-124761640D01*
X143523002Y-124782790D01*
X143510823Y-124789440D01*
X143442550Y-124804291D01*
X143377086Y-124779873D01*
X143377071Y-124779862D01*
X143375769Y-124778887D01*
X143338560Y-124733815D01*
X143336372Y-124729311D01*
X143328134Y-124707224D01*
X143319799Y-124676114D01*
X143260489Y-124573387D01*
X143176613Y-124489511D01*
X143073886Y-124430201D01*
X142959309Y-124399500D01*
X142959306Y-124399500D01*
X142840691Y-124399500D01*
X142749728Y-124423873D01*
X142749723Y-124423874D01*
X142726114Y-124430201D01*
X142726112Y-124430201D01*
X142726112Y-124430202D01*
X142704947Y-124442421D01*
X142704939Y-124442425D01*
X142623386Y-124489511D01*
X142623378Y-124489517D01*
X142539517Y-124573378D01*
X142539513Y-124573383D01*
X142495567Y-124649500D01*
X142480201Y-124676114D01*
X142449500Y-124790691D01*
X142449500Y-124909309D01*
X142480201Y-125023886D01*
X142539511Y-125126613D01*
X142623387Y-125210489D01*
X142726114Y-125269799D01*
X142840691Y-125300500D01*
X142840694Y-125300500D01*
X142959306Y-125300500D01*
X142959309Y-125300500D01*
X143073886Y-125269799D01*
X143176613Y-125210489D01*
X143198744Y-125188356D01*
X143226990Y-125167211D01*
X143239172Y-125160559D01*
X143307444Y-125145707D01*
X143372908Y-125170122D01*
X143372927Y-125170136D01*
X143374229Y-125171111D01*
X143411438Y-125216183D01*
X143413626Y-125220687D01*
X143421864Y-125242774D01*
X143430200Y-125273885D01*
X143439260Y-125289577D01*
X143489511Y-125376613D01*
X143573387Y-125460489D01*
X143573390Y-125460491D01*
X143579835Y-125465436D01*
X143578436Y-125467259D01*
X143580885Y-125469720D01*
X143593435Y-125476270D01*
X143597159Y-125480012D01*
X143603904Y-125487086D01*
X143604964Y-125488197D01*
X143611087Y-125500074D01*
X143615114Y-125504121D01*
X143620202Y-125513036D01*
X143622275Y-125521774D01*
X143636982Y-125550298D01*
X143634705Y-125574147D01*
X143636336Y-125581017D01*
X143633198Y-125589938D01*
X143630343Y-125619852D01*
X143616476Y-125637486D01*
X143613155Y-125646930D01*
X143602574Y-125655165D01*
X143587155Y-125674775D01*
X143587088Y-125674822D01*
X143586586Y-125675179D01*
X143565815Y-125683777D01*
X143558019Y-125689846D01*
X143549237Y-125690640D01*
X143535313Y-125696405D01*
X143533098Y-125696778D01*
X143512507Y-125698500D01*
X139512108Y-125698500D01*
X139384808Y-125732609D01*
X139384806Y-125732610D01*
X139270696Y-125798493D01*
X139270682Y-125798502D01*
X139270677Y-125798506D01*
X139177506Y-125891677D01*
X139177502Y-125891682D01*
X139177493Y-125891696D01*
X139111610Y-126005806D01*
X139111609Y-126005808D01*
X139077500Y-126133108D01*
X139077500Y-127712515D01*
X139077499Y-127712521D01*
X139077500Y-127712524D01*
X139072475Y-127747459D01*
X139068070Y-127762457D01*
X139030306Y-127821218D01*
X139030292Y-127821229D01*
X139030291Y-127821232D01*
X139030288Y-127821233D01*
X139027591Y-127823571D01*
X138975995Y-127850278D01*
X138971494Y-127851385D01*
X138948580Y-127854792D01*
X137116634Y-127953931D01*
X137113406Y-127954063D01*
X137110194Y-127954153D01*
X137107007Y-127954202D01*
X130396763Y-127969695D01*
X130361824Y-127964755D01*
X130350964Y-127961593D01*
X130292100Y-127923959D01*
X130262924Y-127860473D01*
X130272703Y-127791292D01*
X130275839Y-127784383D01*
X130301067Y-127747958D01*
X130422517Y-127626510D01*
X130561343Y-127435433D01*
X130668568Y-127224992D01*
X130741553Y-127000368D01*
X130751005Y-126940691D01*
X135649500Y-126940691D01*
X135649500Y-127059309D01*
X135680201Y-127173886D01*
X135739511Y-127276613D01*
X135823387Y-127360489D01*
X135926114Y-127419799D01*
X136040691Y-127450500D01*
X136040694Y-127450500D01*
X136159306Y-127450500D01*
X136159309Y-127450500D01*
X136273886Y-127419799D01*
X136376613Y-127360489D01*
X136460489Y-127276613D01*
X136519799Y-127173886D01*
X136542848Y-127087863D01*
X136555232Y-127057964D01*
X136571002Y-127030652D01*
X136590701Y-127004979D01*
X138480469Y-125115213D01*
X138526614Y-125035288D01*
X138534840Y-125004587D01*
X138550500Y-124946144D01*
X138550500Y-123493463D01*
X138554724Y-123461374D01*
X138562888Y-123430904D01*
X138575269Y-123401010D01*
X138619799Y-123323886D01*
X138650500Y-123209309D01*
X138650500Y-123090691D01*
X138619799Y-122976114D01*
X138560489Y-122873387D01*
X138476613Y-122789511D01*
X138392055Y-122740691D01*
X150649500Y-122740691D01*
X150649500Y-122859309D01*
X150680201Y-122973886D01*
X150739511Y-123076613D01*
X150823387Y-123160489D01*
X150926114Y-123219799D01*
X151040691Y-123250500D01*
X151040694Y-123250500D01*
X151159306Y-123250500D01*
X151159309Y-123250500D01*
X151273886Y-123219799D01*
X151376613Y-123160489D01*
X151460489Y-123076613D01*
X151519799Y-122973886D01*
X151550500Y-122859309D01*
X151550500Y-122740691D01*
X151519799Y-122626114D01*
X151460489Y-122523387D01*
X151376613Y-122439511D01*
X151273886Y-122380201D01*
X151159309Y-122349500D01*
X151159306Y-122349500D01*
X151040691Y-122349500D01*
X150949728Y-122373873D01*
X150949723Y-122373874D01*
X150926114Y-122380201D01*
X150926112Y-122380201D01*
X150926112Y-122380202D01*
X150904947Y-122392421D01*
X150904939Y-122392425D01*
X150823386Y-122439511D01*
X150823378Y-122439517D01*
X150739517Y-122523378D01*
X150739513Y-122523383D01*
X150739511Y-122523387D01*
X150680201Y-122626114D01*
X150649500Y-122740691D01*
X138392055Y-122740691D01*
X138373886Y-122730201D01*
X138259309Y-122699500D01*
X138259306Y-122699500D01*
X138140691Y-122699500D01*
X138049728Y-122723873D01*
X138049723Y-122723874D01*
X138026114Y-122730201D01*
X138026112Y-122730201D01*
X138026112Y-122730202D01*
X138004947Y-122742421D01*
X138004939Y-122742425D01*
X137923386Y-122789511D01*
X137923378Y-122789517D01*
X137839517Y-122873378D01*
X137839513Y-122873383D01*
X137839511Y-122873387D01*
X137780201Y-122976114D01*
X137749500Y-123090691D01*
X137749500Y-123209309D01*
X137780200Y-123323883D01*
X137780202Y-123323889D01*
X137824723Y-123401001D01*
X137837110Y-123430904D01*
X137845274Y-123461369D01*
X137849500Y-123493466D01*
X137849500Y-124685626D01*
X137844476Y-124720563D01*
X137837064Y-124745804D01*
X137805769Y-124798548D01*
X136503082Y-126101234D01*
X136095026Y-126509290D01*
X136069345Y-126528996D01*
X136042034Y-126544764D01*
X136012129Y-126557151D01*
X135949737Y-126573869D01*
X135949723Y-126573874D01*
X135926114Y-126580201D01*
X135926112Y-126580201D01*
X135926112Y-126580202D01*
X135904945Y-126592422D01*
X135904935Y-126592427D01*
X135823386Y-126639511D01*
X135823378Y-126639517D01*
X135739517Y-126723378D01*
X135739513Y-126723383D01*
X135739511Y-126723387D01*
X135680201Y-126826114D01*
X135649500Y-126940691D01*
X130751005Y-126940691D01*
X130778500Y-126767097D01*
X130778500Y-126530902D01*
X130753348Y-126372103D01*
X130741553Y-126297632D01*
X130741552Y-126297628D01*
X130741552Y-126297627D01*
X130732862Y-126270882D01*
X130723052Y-126240691D01*
X132799500Y-126240691D01*
X132799500Y-126359309D01*
X132830201Y-126473886D01*
X132889511Y-126576613D01*
X132973387Y-126660489D01*
X133076114Y-126719799D01*
X133190691Y-126750500D01*
X133190694Y-126750500D01*
X133309306Y-126750500D01*
X133309309Y-126750500D01*
X133423886Y-126719799D01*
X133526613Y-126660489D01*
X133610489Y-126576613D01*
X133669799Y-126473886D01*
X133692848Y-126387863D01*
X133705229Y-126357970D01*
X133721006Y-126330644D01*
X133740702Y-126304977D01*
X133950627Y-126095053D01*
X133978877Y-126073905D01*
X134001969Y-126061297D01*
X134061394Y-126046130D01*
X135592115Y-126046130D01*
X135624203Y-126050353D01*
X135654671Y-126058517D01*
X135684575Y-126070903D01*
X135761694Y-126115429D01*
X135876271Y-126146130D01*
X135876274Y-126146130D01*
X135994886Y-126146130D01*
X135994889Y-126146130D01*
X136109466Y-126115429D01*
X136109468Y-126115427D01*
X136109470Y-126115427D01*
X136109471Y-126115426D01*
X136212193Y-126056119D01*
X136296069Y-125972243D01*
X136355379Y-125869516D01*
X136386080Y-125754939D01*
X136386080Y-125636321D01*
X136355379Y-125521744D01*
X136296069Y-125419017D01*
X136212193Y-125335141D01*
X136109466Y-125275831D01*
X135994889Y-125245130D01*
X135994886Y-125245130D01*
X135876274Y-125245130D01*
X135876271Y-125245130D01*
X135807524Y-125263550D01*
X135761692Y-125275831D01*
X135684576Y-125320354D01*
X135654676Y-125332739D01*
X135624213Y-125340903D01*
X135592114Y-125345130D01*
X133808226Y-125345130D01*
X133725836Y-125367205D01*
X133725821Y-125367210D01*
X133719082Y-125369016D01*
X133719081Y-125369016D01*
X133719079Y-125369017D01*
X133719076Y-125369018D01*
X133716276Y-125370634D01*
X133716272Y-125370636D01*
X133639174Y-125415149D01*
X133639156Y-125415161D01*
X133245026Y-125809290D01*
X133219345Y-125828996D01*
X133192034Y-125844764D01*
X133162129Y-125857151D01*
X133091881Y-125875975D01*
X133075268Y-125878162D01*
X133061974Y-125888364D01*
X132973386Y-125939511D01*
X132973378Y-125939517D01*
X132889517Y-126023378D01*
X132889513Y-126023383D01*
X132844564Y-126101237D01*
X132830201Y-126126114D01*
X132799500Y-126240691D01*
X130723052Y-126240691D01*
X130685823Y-126126114D01*
X130670067Y-126077622D01*
X130669007Y-126073863D01*
X130668007Y-126071851D01*
X130666216Y-126068154D01*
X130665280Y-126066554D01*
X130570328Y-125880201D01*
X130570328Y-125880200D01*
X130561344Y-125862568D01*
X130522635Y-125809290D01*
X130422517Y-125671490D01*
X130255510Y-125504483D01*
X130064433Y-125365657D01*
X129853996Y-125258433D01*
X129629368Y-125185446D01*
X129629362Y-125185445D01*
X129396102Y-125148500D01*
X129396097Y-125148500D01*
X129396092Y-125148500D01*
X129159908Y-125148500D01*
X129159903Y-125148500D01*
X129159898Y-125148500D01*
X128926636Y-125185445D01*
X128926634Y-125185445D01*
X128926631Y-125185446D01*
X128702003Y-125258433D01*
X128640884Y-125289575D01*
X128491565Y-125365657D01*
X128300492Y-125504481D01*
X128177783Y-125627190D01*
X128149528Y-125648341D01*
X128139600Y-125653762D01*
X128071327Y-125668613D01*
X128005863Y-125644196D01*
X127963992Y-125588262D01*
X127963991Y-125588258D01*
X127961320Y-125581096D01*
X127953503Y-125537681D01*
X127953516Y-125519799D01*
X127954252Y-124440691D01*
X128199500Y-124440691D01*
X128199500Y-124559309D01*
X128230201Y-124673886D01*
X128289511Y-124776613D01*
X128373387Y-124860489D01*
X128476114Y-124919799D01*
X128590691Y-124950500D01*
X128590694Y-124950500D01*
X128709306Y-124950500D01*
X128709309Y-124950500D01*
X128823886Y-124919799D01*
X128926613Y-124860489D01*
X129010489Y-124776613D01*
X129069799Y-124673886D01*
X129100500Y-124559309D01*
X129100500Y-124440691D01*
X129069799Y-124326114D01*
X129010489Y-124223387D01*
X128926613Y-124139511D01*
X128823886Y-124080201D01*
X128709309Y-124049500D01*
X128709306Y-124049500D01*
X128590691Y-124049500D01*
X128499728Y-124073873D01*
X128499723Y-124073874D01*
X128476114Y-124080201D01*
X128476112Y-124080201D01*
X128476112Y-124080202D01*
X128454947Y-124092421D01*
X128454939Y-124092425D01*
X128373386Y-124139511D01*
X128373378Y-124139517D01*
X128289517Y-124223378D01*
X128289509Y-124223387D01*
X128289507Y-124223390D01*
X128230202Y-124326111D01*
X128230199Y-124326117D01*
X128203880Y-124424340D01*
X128203867Y-124424380D01*
X128202257Y-124430389D01*
X128202257Y-124430398D01*
X128199500Y-124440691D01*
X127954252Y-124440691D01*
X127956502Y-121140691D01*
X135599500Y-121140691D01*
X135599500Y-121259309D01*
X135630201Y-121373886D01*
X135689511Y-121476613D01*
X135773387Y-121560489D01*
X135876114Y-121619799D01*
X135990691Y-121650500D01*
X135990694Y-121650500D01*
X136109306Y-121650500D01*
X136109309Y-121650500D01*
X136223886Y-121619799D01*
X136326613Y-121560489D01*
X136410489Y-121476613D01*
X136469799Y-121373886D01*
X136500500Y-121259309D01*
X136500500Y-121140691D01*
X136469799Y-121026114D01*
X136410489Y-120923387D01*
X136326613Y-120839511D01*
X136223886Y-120780201D01*
X136109309Y-120749500D01*
X136109306Y-120749500D01*
X135990691Y-120749500D01*
X135899728Y-120773873D01*
X135899723Y-120773874D01*
X135876114Y-120780201D01*
X135876112Y-120780201D01*
X135876112Y-120780202D01*
X135854947Y-120792421D01*
X135854939Y-120792425D01*
X135773386Y-120839511D01*
X135773378Y-120839517D01*
X135689517Y-120923378D01*
X135689513Y-120923383D01*
X135689511Y-120923387D01*
X135630201Y-121026114D01*
X135599500Y-121140691D01*
X127956502Y-121140691D01*
X127959744Y-116384108D01*
X135849500Y-116384108D01*
X135849500Y-116515891D01*
X135854563Y-116534788D01*
X135883608Y-116643188D01*
X135916554Y-116700250D01*
X135949500Y-116757314D01*
X136042686Y-116850500D01*
X136141521Y-116907563D01*
X136148529Y-116911609D01*
X136156814Y-116916392D01*
X136156816Y-116916392D01*
X136156817Y-116916393D01*
X136177691Y-116921986D01*
X136284108Y-116950500D01*
X136284110Y-116950500D01*
X136415890Y-116950500D01*
X136415892Y-116950500D01*
X136543186Y-116916392D01*
X136657314Y-116850500D01*
X136750500Y-116757314D01*
X136816392Y-116643186D01*
X136850500Y-116515892D01*
X136850500Y-116384108D01*
X136816392Y-116256814D01*
X136816387Y-116256806D01*
X136807563Y-116241521D01*
X136750500Y-116142686D01*
X136657314Y-116049500D01*
X136600250Y-116016554D01*
X136543187Y-115983608D01*
X136479539Y-115966554D01*
X136415892Y-115949500D01*
X136415891Y-115949500D01*
X136284108Y-115949500D01*
X136156808Y-115983609D01*
X136156806Y-115983610D01*
X136042696Y-116049493D01*
X136042682Y-116049502D01*
X136042677Y-116049506D01*
X135949506Y-116142677D01*
X135949502Y-116142682D01*
X135949493Y-116142696D01*
X135883610Y-116256806D01*
X135883609Y-116256808D01*
X135883608Y-116256812D01*
X135849500Y-116384108D01*
X127959744Y-116384108D01*
X127961393Y-113965349D01*
X131922478Y-113965349D01*
X131922478Y-114083967D01*
X131953179Y-114198544D01*
X132012489Y-114301271D01*
X132096365Y-114385147D01*
X132199092Y-114444457D01*
X132313669Y-114475158D01*
X132313672Y-114475158D01*
X132432284Y-114475158D01*
X132432287Y-114475158D01*
X132546864Y-114444457D01*
X132649591Y-114385147D01*
X132724270Y-114310467D01*
X132752517Y-114289322D01*
X132766241Y-114281828D01*
X132834499Y-114266977D01*
X132836309Y-114267106D01*
X132894506Y-114286472D01*
X132901024Y-114290661D01*
X132921659Y-114307291D01*
X132949122Y-114334754D01*
X133051849Y-114394064D01*
X133166426Y-114424765D01*
X133166429Y-114424765D01*
X133285041Y-114424765D01*
X133285044Y-114424765D01*
X133399621Y-114394064D01*
X133422784Y-114380691D01*
X133859285Y-114380691D01*
X133859285Y-114499309D01*
X133889986Y-114613886D01*
X133949296Y-114716613D01*
X134033172Y-114800489D01*
X134135899Y-114859799D01*
X134250476Y-114890500D01*
X134250479Y-114890500D01*
X134369091Y-114890500D01*
X134369094Y-114890500D01*
X134483671Y-114859799D01*
X134586398Y-114800489D01*
X134670274Y-114716613D01*
X134729584Y-114613886D01*
X134760285Y-114499309D01*
X134760285Y-114380691D01*
X134729584Y-114266114D01*
X134670274Y-114163387D01*
X134586398Y-114079511D01*
X134483671Y-114020201D01*
X134369094Y-113989500D01*
X134369091Y-113989500D01*
X134250476Y-113989500D01*
X134159513Y-114013873D01*
X134159508Y-114013874D01*
X134135899Y-114020201D01*
X134135897Y-114020201D01*
X134135897Y-114020202D01*
X134114732Y-114032421D01*
X134114724Y-114032425D01*
X134033171Y-114079511D01*
X134033163Y-114079517D01*
X133949302Y-114163378D01*
X133949298Y-114163383D01*
X133949292Y-114163392D01*
X133890999Y-114264360D01*
X133890988Y-114264380D01*
X133889985Y-114266116D01*
X133871594Y-114334753D01*
X133859285Y-114380691D01*
X133422784Y-114380691D01*
X133502348Y-114334754D01*
X133586224Y-114250878D01*
X133645534Y-114148151D01*
X133676235Y-114033574D01*
X133676235Y-113914956D01*
X133645534Y-113800379D01*
X133586224Y-113697652D01*
X133502348Y-113613776D01*
X133399621Y-113554466D01*
X133285044Y-113523765D01*
X133285041Y-113523765D01*
X133166426Y-113523765D01*
X133075463Y-113548138D01*
X133075458Y-113548139D01*
X133051849Y-113554466D01*
X133051847Y-113554466D01*
X133051847Y-113554467D01*
X133030682Y-113566686D01*
X133030674Y-113566690D01*
X132949122Y-113613775D01*
X132874445Y-113688452D01*
X132853539Y-113704101D01*
X132846187Y-113709604D01*
X132832469Y-113717094D01*
X132764211Y-113731945D01*
X132764196Y-113731943D01*
X132764196Y-113731944D01*
X132764195Y-113731943D01*
X132762405Y-113731816D01*
X132704204Y-113712448D01*
X132697689Y-113708261D01*
X132677053Y-113691631D01*
X132649593Y-113664171D01*
X132649591Y-113664169D01*
X132546864Y-113604859D01*
X132432287Y-113574158D01*
X132432284Y-113574158D01*
X132313669Y-113574158D01*
X132222706Y-113598531D01*
X132222701Y-113598532D01*
X132199092Y-113604859D01*
X132199090Y-113604859D01*
X132199090Y-113604860D01*
X132177925Y-113617079D01*
X132177917Y-113617083D01*
X132096364Y-113664169D01*
X132096356Y-113664175D01*
X132012495Y-113748036D01*
X132012491Y-113748041D01*
X131978721Y-113806532D01*
X131953179Y-113850772D01*
X131922478Y-113965349D01*
X127961393Y-113965349D01*
X127964273Y-109740691D01*
X132299500Y-109740691D01*
X132299500Y-109859309D01*
X132330201Y-109973886D01*
X132389511Y-110076613D01*
X132473387Y-110160489D01*
X132576114Y-110219799D01*
X132690691Y-110250500D01*
X132690694Y-110250500D01*
X132809306Y-110250500D01*
X132809309Y-110250500D01*
X132923886Y-110219799D01*
X133026613Y-110160489D01*
X133110489Y-110076613D01*
X133169799Y-109973886D01*
X133200500Y-109859309D01*
X133200500Y-109740691D01*
X133169799Y-109626114D01*
X133110489Y-109523387D01*
X133026613Y-109439511D01*
X132923886Y-109380201D01*
X132809309Y-109349500D01*
X132809306Y-109349500D01*
X132690691Y-109349500D01*
X132599728Y-109373873D01*
X132599723Y-109373874D01*
X132576114Y-109380201D01*
X132576112Y-109380201D01*
X132576112Y-109380202D01*
X132554947Y-109392421D01*
X132554939Y-109392425D01*
X132473386Y-109439511D01*
X132473378Y-109439517D01*
X132389515Y-109523380D01*
X132389509Y-109523390D01*
X132385872Y-109529688D01*
X132385873Y-109529689D01*
X132330201Y-109626114D01*
X132299500Y-109740691D01*
X127964273Y-109740691D01*
X127964899Y-108822934D01*
X127969945Y-108788016D01*
X127974361Y-108773018D01*
X128012171Y-108714275D01*
X128013390Y-108713220D01*
X128068625Y-108685723D01*
X128073336Y-108684716D01*
X128076528Y-108684035D01*
X128103266Y-108681302D01*
X135208524Y-108729158D01*
X135243412Y-108734416D01*
X135257807Y-108738748D01*
X135258381Y-108738921D01*
X135316886Y-108777074D01*
X135318208Y-108778621D01*
X135345213Y-108833242D01*
X135346752Y-108840436D01*
X135349500Y-108866391D01*
X135349500Y-110285626D01*
X135349499Y-110285628D01*
X135349500Y-110285629D01*
X135344476Y-110320563D01*
X135337064Y-110345804D01*
X135305769Y-110398548D01*
X134919534Y-110784781D01*
X134919528Y-110784788D01*
X134919520Y-110784800D01*
X134884994Y-110844605D01*
X134884992Y-110844606D01*
X134884993Y-110844607D01*
X134873386Y-110864710D01*
X134863957Y-110899900D01*
X134849500Y-110953856D01*
X134849500Y-111883646D01*
X134858625Y-111917698D01*
X134858626Y-111917702D01*
X134873384Y-111972785D01*
X134873385Y-111972786D01*
X134880073Y-111984370D01*
X134880074Y-111984373D01*
X134919526Y-112052707D01*
X134919527Y-112052708D01*
X134919532Y-112052714D01*
X134919538Y-112052721D01*
X135209291Y-112342473D01*
X135228997Y-112368154D01*
X135244765Y-112395465D01*
X135257151Y-112425367D01*
X135280201Y-112511386D01*
X135339511Y-112614113D01*
X135423387Y-112697989D01*
X135526114Y-112757299D01*
X135640691Y-112788000D01*
X135640694Y-112788000D01*
X135759306Y-112788000D01*
X135759309Y-112788000D01*
X135873886Y-112757299D01*
X135976613Y-112697989D01*
X136060489Y-112614113D01*
X136119066Y-112512655D01*
X136129893Y-112496860D01*
X136141393Y-112482587D01*
X136198781Y-112442735D01*
X136268599Y-112440233D01*
X136273673Y-112441527D01*
X136330705Y-112473999D01*
X137118573Y-113261866D01*
X137139723Y-113290118D01*
X137152331Y-113313207D01*
X137167500Y-113372636D01*
X137167500Y-119531494D01*
X137181913Y-119585285D01*
X137191381Y-119620620D01*
X137191385Y-119620633D01*
X137191386Y-119620634D01*
X137191391Y-119620644D01*
X137237523Y-119700548D01*
X137237527Y-119700554D01*
X137237529Y-119700557D01*
X137237530Y-119700558D01*
X138717442Y-121180470D01*
X138786739Y-121220478D01*
X138786741Y-121220480D01*
X138793986Y-121224662D01*
X138793992Y-121224669D01*
X138793994Y-121224667D01*
X138797366Y-121226614D01*
X138886510Y-121250500D01*
X154335626Y-121250500D01*
X154370558Y-121255521D01*
X154395802Y-121262934D01*
X154448548Y-121294230D01*
X155759290Y-122604972D01*
X155778995Y-122630652D01*
X155794764Y-122657964D01*
X155807151Y-122687867D01*
X155830201Y-122773886D01*
X155889511Y-122876613D01*
X155973387Y-122960489D01*
X156076114Y-123019799D01*
X156190691Y-123050500D01*
X156190694Y-123050500D01*
X156309306Y-123050500D01*
X156309309Y-123050500D01*
X156423886Y-123019799D01*
X156526613Y-122960489D01*
X156610489Y-122876613D01*
X156669799Y-122773886D01*
X156700500Y-122659309D01*
X156700500Y-122540691D01*
X156669799Y-122426114D01*
X156610489Y-122323387D01*
X156526613Y-122239511D01*
X156423886Y-122180201D01*
X156337867Y-122157151D01*
X156307965Y-122144765D01*
X156280654Y-122128997D01*
X156254973Y-122109291D01*
X155065928Y-120920245D01*
X154986374Y-120840691D01*
X155599500Y-120840691D01*
X155599500Y-120959309D01*
X155630201Y-121073886D01*
X155689511Y-121176613D01*
X155773387Y-121260489D01*
X155876114Y-121319799D01*
X155990691Y-121350500D01*
X155990694Y-121350500D01*
X156109306Y-121350500D01*
X156109309Y-121350500D01*
X156223886Y-121319799D01*
X156326613Y-121260489D01*
X156410489Y-121176613D01*
X156469799Y-121073886D01*
X156500500Y-120959309D01*
X156500500Y-120840691D01*
X156469799Y-120726114D01*
X156410489Y-120623387D01*
X156326613Y-120539511D01*
X156223886Y-120480201D01*
X156109309Y-120449500D01*
X156109306Y-120449500D01*
X155990691Y-120449500D01*
X155899728Y-120473873D01*
X155899723Y-120473874D01*
X155876114Y-120480201D01*
X155876112Y-120480201D01*
X155876112Y-120480202D01*
X155854947Y-120492421D01*
X155854939Y-120492425D01*
X155773386Y-120539511D01*
X155773378Y-120539517D01*
X155689517Y-120623378D01*
X155689513Y-120623383D01*
X155689511Y-120623387D01*
X155630201Y-120726114D01*
X155599500Y-120840691D01*
X154986374Y-120840691D01*
X154765221Y-120619538D01*
X154765214Y-120619532D01*
X154765208Y-120619527D01*
X154765203Y-120619523D01*
X154706466Y-120585612D01*
X154706461Y-120585609D01*
X154685290Y-120573387D01*
X154685289Y-120573386D01*
X154685288Y-120573386D01*
X154596144Y-120549500D01*
X154596143Y-120549500D01*
X139147028Y-120549500D01*
X139114788Y-120545235D01*
X139113406Y-120544863D01*
X139099757Y-120540855D01*
X139093324Y-120539455D01*
X139090388Y-120538665D01*
X139063064Y-120521964D01*
X139034948Y-120506612D01*
X138953124Y-120424788D01*
X138931975Y-120396538D01*
X138926553Y-120386608D01*
X138911700Y-120318338D01*
X138936114Y-120252873D01*
X138992044Y-120211001D01*
X138995923Y-120209554D01*
X138999259Y-120208311D01*
X139042573Y-120200500D01*
X154146142Y-120200500D01*
X154146144Y-120200500D01*
X154235288Y-120176614D01*
X154315212Y-120130470D01*
X154596258Y-119849421D01*
X154624513Y-119828272D01*
X154647601Y-119815666D01*
X154707024Y-119800500D01*
X155406535Y-119800500D01*
X155438623Y-119804723D01*
X155469091Y-119812887D01*
X155498995Y-119825273D01*
X155576114Y-119869799D01*
X155690691Y-119900500D01*
X155690694Y-119900500D01*
X155809306Y-119900500D01*
X155809309Y-119900500D01*
X155923886Y-119869799D01*
X156026613Y-119810489D01*
X156110489Y-119726613D01*
X156169799Y-119623886D01*
X156200500Y-119509309D01*
X156200500Y-119390691D01*
X156169799Y-119276114D01*
X156110489Y-119173387D01*
X156026613Y-119089511D01*
X155923886Y-119030201D01*
X155809309Y-118999500D01*
X155809306Y-118999500D01*
X155690694Y-118999500D01*
X155690691Y-118999500D01*
X155621944Y-119017920D01*
X155576112Y-119030201D01*
X155498996Y-119074724D01*
X155469096Y-119087109D01*
X155438633Y-119095273D01*
X155406534Y-119099500D01*
X154453856Y-119099500D01*
X154371466Y-119121575D01*
X154371451Y-119121580D01*
X154364712Y-119123386D01*
X154364711Y-119123386D01*
X154364709Y-119123387D01*
X154364706Y-119123388D01*
X154361906Y-119125004D01*
X154361902Y-119125006D01*
X154284804Y-119169519D01*
X154284786Y-119169531D01*
X154003744Y-119450573D01*
X153975493Y-119471722D01*
X153952405Y-119484330D01*
X153892975Y-119499500D01*
X153465342Y-119499500D01*
X153430403Y-119494476D01*
X153417085Y-119490565D01*
X153358308Y-119452789D01*
X153329286Y-119389232D01*
X153329284Y-119389221D01*
X153329053Y-119387613D01*
X153334608Y-119329437D01*
X153336253Y-119324686D01*
X153346040Y-119303254D01*
X153402405Y-119205625D01*
X153403989Y-119203076D01*
X153404390Y-119202189D01*
X153404392Y-119202186D01*
X153438500Y-119074892D01*
X153438500Y-115772452D01*
X153442737Y-115756780D01*
X153442129Y-115742673D01*
X153443521Y-115737525D01*
X153446707Y-115726672D01*
X153453907Y-115715466D01*
X153455394Y-115709967D01*
X153460567Y-115701100D01*
X153467112Y-115694915D01*
X153484477Y-115667891D01*
X153506225Y-115657957D01*
X153511352Y-115653113D01*
X153520664Y-115651361D01*
X153548031Y-115638862D01*
X153570214Y-115642044D01*
X153580018Y-115640201D01*
X153592416Y-115645229D01*
X153617132Y-115648775D01*
X153617695Y-115649032D01*
X153635547Y-115662723D01*
X153644765Y-115666462D01*
X153649881Y-115673716D01*
X153661863Y-115682905D01*
X153663293Y-115684637D01*
X153675059Y-115701584D01*
X153689506Y-115726607D01*
X153689510Y-115726612D01*
X153689511Y-115726613D01*
X153773387Y-115810489D01*
X153876114Y-115869799D01*
X153990691Y-115900500D01*
X153990694Y-115900500D01*
X154109306Y-115900500D01*
X154109309Y-115900500D01*
X154223886Y-115869799D01*
X154326613Y-115810489D01*
X154326620Y-115810481D01*
X154333059Y-115805542D01*
X154333289Y-115805842D01*
X154353457Y-115790743D01*
X154363391Y-115785319D01*
X154431661Y-115770466D01*
X154497126Y-115794880D01*
X154538999Y-115850812D01*
X154539001Y-115850816D01*
X154541682Y-115858004D01*
X154549500Y-115901338D01*
X154549500Y-116296144D01*
X154572989Y-116383813D01*
X154573017Y-116383913D01*
X154573128Y-116384328D01*
X154573361Y-116385227D01*
X154573384Y-116385286D01*
X154573386Y-116385289D01*
X154619527Y-116465208D01*
X154619529Y-116465211D01*
X154619530Y-116465212D01*
X154619532Y-116465214D01*
X154619538Y-116465221D01*
X155000572Y-116846254D01*
X155020351Y-116872062D01*
X155021068Y-116873308D01*
X155027884Y-116885790D01*
X155031451Y-116891341D01*
X155032960Y-116893961D01*
X155040475Y-116925098D01*
X155049500Y-116955831D01*
X155049500Y-117156532D01*
X155045274Y-117188627D01*
X155037111Y-117219090D01*
X155024724Y-117248995D01*
X154980203Y-117326107D01*
X154980175Y-117326176D01*
X154979933Y-117327112D01*
X154949500Y-117440691D01*
X154949500Y-117559309D01*
X154980201Y-117673886D01*
X155039511Y-117776613D01*
X155123387Y-117860489D01*
X155136538Y-117868082D01*
X155164280Y-117889898D01*
X155175068Y-117901212D01*
X155207080Y-117963294D01*
X155207423Y-117965072D01*
X155203778Y-118026321D01*
X155201423Y-118033687D01*
X155190701Y-118057924D01*
X155180202Y-118076109D01*
X155180201Y-118076114D01*
X155149500Y-118190691D01*
X155149500Y-118309309D01*
X155180201Y-118423886D01*
X155239511Y-118526613D01*
X155323387Y-118610489D01*
X155426114Y-118669799D01*
X155540691Y-118700500D01*
X155540694Y-118700500D01*
X155659306Y-118700500D01*
X155659309Y-118700500D01*
X155773886Y-118669799D01*
X155876613Y-118610489D01*
X155960489Y-118526613D01*
X156019799Y-118423886D01*
X156050500Y-118309309D01*
X156050500Y-118190691D01*
X156019799Y-118076114D01*
X155960489Y-117973387D01*
X155876613Y-117889511D01*
X155871785Y-117886723D01*
X155863454Y-117881913D01*
X155835715Y-117860098D01*
X155824930Y-117848786D01*
X155823314Y-117845652D01*
X155792919Y-117786706D01*
X155792576Y-117784925D01*
X155796218Y-117723685D01*
X155798578Y-117716302D01*
X155809299Y-117692071D01*
X155819799Y-117673886D01*
X155850500Y-117559309D01*
X155850500Y-117440691D01*
X155819799Y-117326114D01*
X155819797Y-117326110D01*
X155775275Y-117248996D01*
X155762888Y-117219090D01*
X155754725Y-117188624D01*
X155750500Y-117156532D01*
X155750500Y-116703858D01*
X155750500Y-116703856D01*
X155726614Y-116614712D01*
X155704618Y-116576614D01*
X155680470Y-116534788D01*
X155299421Y-116153739D01*
X155278274Y-116125488D01*
X155265667Y-116102399D01*
X155250500Y-116042974D01*
X155250500Y-114604793D01*
X155255521Y-114569866D01*
X155258707Y-114559013D01*
X155296477Y-114500232D01*
X155360031Y-114471203D01*
X155429186Y-114481141D01*
X155436172Y-114484331D01*
X155466864Y-114505641D01*
X155466941Y-114505542D01*
X155469023Y-114507139D01*
X155472342Y-114509444D01*
X155473387Y-114510489D01*
X155576114Y-114569799D01*
X155690691Y-114600500D01*
X155690694Y-114600500D01*
X155809306Y-114600500D01*
X155809309Y-114600500D01*
X155923886Y-114569799D01*
X156026613Y-114510489D01*
X156110489Y-114426613D01*
X156169799Y-114323886D01*
X156200500Y-114209309D01*
X156200500Y-114090691D01*
X156169799Y-113976114D01*
X156158843Y-113957137D01*
X156125276Y-113898997D01*
X156112888Y-113869090D01*
X156104725Y-113838625D01*
X156100500Y-113806532D01*
X156100500Y-112079234D01*
X156105523Y-112044298D01*
X156109927Y-112029300D01*
X156147691Y-111970532D01*
X156148337Y-111969971D01*
X156154393Y-111964724D01*
X156203508Y-111938656D01*
X156273886Y-111919799D01*
X156376613Y-111860489D01*
X156460489Y-111776613D01*
X156519799Y-111673886D01*
X156550500Y-111559309D01*
X156550500Y-111440691D01*
X156519799Y-111326114D01*
X156460489Y-111223387D01*
X156376613Y-111139511D01*
X156273886Y-111080201D01*
X156187867Y-111057151D01*
X156157964Y-111044764D01*
X156130652Y-111028995D01*
X156104972Y-111009290D01*
X155146663Y-110050981D01*
X155125514Y-110022731D01*
X155120092Y-110012801D01*
X155105239Y-109944531D01*
X155129653Y-109879066D01*
X155185583Y-109837194D01*
X155194472Y-109833879D01*
X155232937Y-109826158D01*
X158450000Y-109700000D01*
X158627453Y-109541558D01*
X158656848Y-109522045D01*
X158670969Y-109515340D01*
X158739952Y-109504370D01*
X158743595Y-109504838D01*
X158797752Y-109525449D01*
X158801463Y-109527985D01*
X158819182Y-109542682D01*
X159356970Y-110080470D01*
X159412803Y-110112705D01*
X159436894Y-110126614D01*
X159444628Y-110128686D01*
X159456197Y-110134567D01*
X159465158Y-110143015D01*
X159476884Y-110149284D01*
X159477364Y-110148632D01*
X159479323Y-110150072D01*
X159479988Y-110150944D01*
X159481816Y-110151922D01*
X159485733Y-110155361D01*
X159484459Y-110156810D01*
X159496376Y-110172443D01*
X159507038Y-110182494D01*
X159508490Y-110188334D01*
X159521680Y-110205638D01*
X159526598Y-110266855D01*
X159528508Y-110267084D01*
X159527704Y-110273809D01*
X159527263Y-110275131D01*
X159527275Y-110275271D01*
X159526779Y-110277652D01*
X159526447Y-110277583D01*
X159511968Y-110321089D01*
X159480203Y-110376107D01*
X159480175Y-110376176D01*
X159479933Y-110377112D01*
X159454650Y-110471470D01*
X159449500Y-110490691D01*
X159449500Y-110609309D01*
X159480201Y-110723886D01*
X159539511Y-110826613D01*
X159623387Y-110910489D01*
X159726114Y-110969799D01*
X159840691Y-111000500D01*
X159840694Y-111000500D01*
X159959306Y-111000500D01*
X159959307Y-111000500D01*
X159959309Y-111000500D01*
X160073886Y-110969799D01*
X160151010Y-110925269D01*
X160180904Y-110912888D01*
X160211375Y-110904723D01*
X160243463Y-110900500D01*
X160469279Y-110900500D01*
X160650000Y-111650000D01*
X162950000Y-111300000D01*
X162379044Y-109816636D01*
X161365212Y-110830470D01*
X162654977Y-109540702D01*
X162680644Y-109521006D01*
X162707970Y-109505229D01*
X162737863Y-109492848D01*
X162823886Y-109469799D01*
X162926613Y-109410489D01*
X163010489Y-109326613D01*
X163069799Y-109223886D01*
X163100500Y-109109309D01*
X163100500Y-108990691D01*
X163069799Y-108876114D01*
X163010489Y-108773387D01*
X162926613Y-108689511D01*
X162823886Y-108630201D01*
X162709309Y-108599500D01*
X162709306Y-108599500D01*
X162590691Y-108599500D01*
X162499728Y-108623873D01*
X162499723Y-108623874D01*
X162476114Y-108630201D01*
X162476112Y-108630201D01*
X162476112Y-108630202D01*
X162454947Y-108642421D01*
X162454939Y-108642425D01*
X162373386Y-108689511D01*
X162373378Y-108689517D01*
X162289517Y-108773378D01*
X162289513Y-108773383D01*
X162289507Y-108773392D01*
X162264971Y-108815891D01*
X162230201Y-108876113D01*
X162207154Y-108962127D01*
X162194765Y-108992035D01*
X162178997Y-109019345D01*
X162159292Y-109045024D01*
X162103515Y-109100801D01*
X161817519Y-108357771D01*
X163251892Y-108290535D01*
X163287018Y-108293917D01*
G37*
%TD.AperFunction*%
%TA.AperFunction,Conductor*%
G36*
X161628920Y-108627520D02*
G01*
X161628921Y-108627517D01*
X161646739Y-108596658D01*
X161628920Y-108627520D01*
G37*
%TD.AperFunction*%
%TA.AperFunction,Conductor*%
G36*
X161700275Y-108423326D02*
G01*
X161700084Y-108423759D01*
X161700276Y-108423322D01*
X161700275Y-108423326D01*
G37*
%TD.AperFunction*%
%TD*%
%TA.AperFunction,Conductor*%
%TO.N,/+4S_PROT*%
G36*
X160324049Y-107825287D02*
G01*
X160331460Y-107828326D01*
X160575680Y-107937805D01*
X160823737Y-108049002D01*
X161255610Y-108242600D01*
X161282720Y-108259222D01*
X161306863Y-108278689D01*
X161328852Y-108301657D01*
X161422459Y-108428696D01*
X161446380Y-108494342D01*
X161435617Y-108553342D01*
X161423096Y-108581030D01*
X161419159Y-108592685D01*
X161408670Y-108646990D01*
X161404979Y-108713048D01*
X161404926Y-108734987D01*
X161429793Y-108822988D01*
X161463283Y-108884319D01*
X161471231Y-108894937D01*
X161479351Y-108907247D01*
X161516733Y-108971995D01*
X161529119Y-109001898D01*
X161540774Y-109045392D01*
X161545000Y-109077485D01*
X161545000Y-109154459D01*
X161545131Y-109161787D01*
X161545447Y-109170636D01*
X161545447Y-109170640D01*
X161558272Y-109235115D01*
X161582688Y-109300577D01*
X161592899Y-109323554D01*
X161592899Y-109323555D01*
X161651111Y-109392135D01*
X161679486Y-109455983D01*
X161668838Y-109525037D01*
X161644256Y-109560059D01*
X161053744Y-110150573D01*
X161025493Y-110171722D01*
X161002405Y-110184330D01*
X160942975Y-110199500D01*
X160243466Y-110199500D01*
X160211369Y-110195274D01*
X160180904Y-110187110D01*
X160151001Y-110174723D01*
X160073889Y-110130202D01*
X160073890Y-110130202D01*
X160064494Y-110127684D01*
X159959309Y-110099500D01*
X159959306Y-110099500D01*
X159910196Y-110099500D01*
X159906358Y-110098373D01*
X159902459Y-110099258D01*
X159873110Y-110088610D01*
X159843157Y-110079815D01*
X159839456Y-110076400D01*
X159836778Y-110075429D01*
X159811599Y-110050697D01*
X159696436Y-109899697D01*
X159671433Y-109834454D01*
X159685673Y-109766051D01*
X159734633Y-109716205D01*
X159795033Y-109700500D01*
X159859306Y-109700500D01*
X159859309Y-109700500D01*
X159973886Y-109669799D01*
X160076613Y-109610489D01*
X160160489Y-109526613D01*
X160219799Y-109423886D01*
X160250500Y-109309309D01*
X160250500Y-109190691D01*
X160219799Y-109076114D01*
X160219797Y-109076110D01*
X160219797Y-109076109D01*
X160219796Y-109076108D01*
X160175277Y-108999000D01*
X160162888Y-108969090D01*
X160154725Y-108938623D01*
X160150500Y-108906532D01*
X160150500Y-107964369D01*
X160155522Y-107929436D01*
X160159144Y-107917101D01*
X160159570Y-107915140D01*
X160193040Y-107853815D01*
X160254357Y-107820317D01*
X160324049Y-107825287D01*
G37*
%TD.AperFunction*%
%TA.AperFunction,Conductor*%
G36*
X157398331Y-106501935D02*
G01*
X159107258Y-107276049D01*
X159427840Y-107421268D01*
X159439231Y-107431077D01*
X159453195Y-107436646D01*
X159465170Y-107453415D01*
X159480784Y-107466861D01*
X159485063Y-107481270D01*
X159493800Y-107493505D01*
X159494808Y-107514087D01*
X159500674Y-107533840D01*
X159496538Y-107549410D01*
X159497219Y-107563291D01*
X159484146Y-107596075D01*
X159483717Y-107596819D01*
X159473386Y-107614707D01*
X159469161Y-107630472D01*
X159469161Y-107630477D01*
X159449500Y-107703854D01*
X159449500Y-108906532D01*
X159445274Y-108938627D01*
X159437111Y-108969090D01*
X159424724Y-108998995D01*
X159380203Y-109076107D01*
X159380175Y-109076175D01*
X159379933Y-109077113D01*
X159364435Y-109134951D01*
X159328069Y-109194611D01*
X159265222Y-109225140D01*
X159195847Y-109216845D01*
X159146063Y-109178054D01*
X159068311Y-109076107D01*
X158193784Y-107929436D01*
X157248573Y-106690085D01*
X157223570Y-106624842D01*
X157237810Y-106556439D01*
X157286770Y-106506593D01*
X157354908Y-106491130D01*
X157398331Y-106501935D01*
G37*
%TD.AperFunction*%
%TD*%
%TA.AperFunction,Conductor*%
%TO.N,/+4S_SW*%
G36*
X162950000Y-111300000D02*
G01*
X160650000Y-111650000D01*
X160469279Y-110900500D01*
X161196142Y-110900500D01*
X161196144Y-110900500D01*
X161285288Y-110876614D01*
X161295912Y-110870480D01*
X161365212Y-110830470D01*
X162379044Y-109816636D01*
X162950000Y-111300000D01*
G37*
%TD.AperFunction*%
%TA.AperFunction,Conductor*%
G36*
X162103515Y-109100801D02*
G01*
X161962181Y-109242137D01*
X161900858Y-109275622D01*
X161831167Y-109270638D01*
X161775233Y-109228767D01*
X161750816Y-109163302D01*
X161750500Y-109154456D01*
X161750500Y-109034110D01*
X161750500Y-109034108D01*
X161716392Y-108906814D01*
X161650500Y-108792686D01*
X161643644Y-108785830D01*
X161610159Y-108724507D01*
X161613850Y-108658454D01*
X161617785Y-108646806D01*
X161646739Y-108596658D01*
X161680847Y-108469364D01*
X161680847Y-108460183D01*
X161686708Y-108442838D01*
X161700084Y-108423759D01*
X161709511Y-108402450D01*
X161719766Y-108395685D01*
X161726818Y-108385628D01*
X161748384Y-108376809D01*
X161767836Y-108363980D01*
X161788586Y-108360371D01*
X161791491Y-108359184D01*
X161793391Y-108359535D01*
X161798377Y-108358669D01*
X161817518Y-108357771D01*
X161817519Y-108357772D01*
X161817519Y-108357771D01*
X162103515Y-109100801D01*
G37*
%TD.AperFunction*%
%TD*%
M02*
