%TF.GenerationSoftware,KiCad,Pcbnew,10.0.3*%
%TF.CreationDate,2026-09-01T16:16:11+05:30*%
%TF.ProjectId,Battery Circuit,42617474-6572-4792-9043-697263756974,rev?*%
%TF.SameCoordinates,Original*%
%TF.FileFunction,Drillmap*%
%TF.FilePolarity,Positive*%
%FSLAX45Y45*%
G04 Gerber Fmt 4.5, Leading zero omitted, Abs format (unit mm)*
G04 Created by KiCad (PCBNEW 10.0.3) date 2026-09-01 16:16:11*
%MOMM*%
%LPD*%
G01*
G04 APERTURE LIST*
%ADD10C,0.050000*%
%ADD11C,0.200000*%
%ADD12C,0.100000*%
G04 APERTURE END LIST*
D10*
X12745100Y-12847700D02*
X13957800Y-12844900D01*
X12747800Y-8887700D02*
X12745100Y-12847700D01*
X12747800Y-8887700D02*
X13967800Y-8889900D01*
X13027800Y-9069900D02*
G75*
G02*
X12827800Y-9069900I-100000J0D01*
G01*
X12827800Y-9069900D02*
G75*
G02*
X13027800Y-9069900I100000J0D01*
G01*
X13027800Y-12664900D02*
G75*
G02*
X12827800Y-12664900I-100000J0D01*
G01*
X12827800Y-12664900D02*
G75*
G02*
X13027800Y-12664900I100000J0D01*
G01*
X13866800Y-11143900D02*
X15293800Y-11143900D01*
X15293800Y-11900900D01*
X13866800Y-11900900D01*
X13866800Y-11143900D01*
X13957800Y-12619900D02*
X15157800Y-12619900D01*
X13957800Y-12844900D02*
X13957800Y-12619900D01*
X13967800Y-9114900D02*
X13967800Y-8889900D01*
X13967800Y-9114900D02*
X15167800Y-9114900D01*
X15157800Y-12619900D02*
X15157800Y-12839900D01*
X15157800Y-12839900D02*
X16390000Y-12835000D01*
X15167800Y-9114900D02*
X15167800Y-8879900D01*
X16307800Y-9054900D02*
G75*
G02*
X16107800Y-9054900I-100000J0D01*
G01*
X16107800Y-9054900D02*
G75*
G02*
X16307800Y-9054900I100000J0D01*
G01*
X16307800Y-12654900D02*
G75*
G02*
X16107800Y-12654900I-100000J0D01*
G01*
X16107800Y-12654900D02*
G75*
G02*
X16307800Y-12654900I100000J0D01*
G01*
X16390000Y-8875000D02*
X15167800Y-8879900D01*
X16390000Y-8875000D02*
X16390000Y-12835000D01*
D11*
D12*
X12850000Y-9965000D02*
X12880000Y-9995000D01*
X12880000Y-9965000D02*
X12850000Y-9995000D01*
X12850000Y-12435000D02*
X12880000Y-12465000D01*
X12880000Y-12435000D02*
X12850000Y-12465000D01*
X12975000Y-10675000D02*
X13005000Y-10705000D01*
X13005000Y-10675000D02*
X12975000Y-10705000D01*
X13222298Y-11387466D02*
X13252298Y-11417466D01*
X13252298Y-11387466D02*
X13222298Y-11417466D01*
X13235000Y-10530000D02*
X13265000Y-10560000D01*
X13265000Y-10530000D02*
X13235000Y-10560000D01*
X13260000Y-10965000D02*
X13290000Y-10995000D01*
X13290000Y-10965000D02*
X13260000Y-10995000D01*
X13265000Y-10020000D02*
X13295000Y-10050000D01*
X13295000Y-10020000D02*
X13265000Y-10050000D01*
X13307573Y-11382426D02*
X13337573Y-11412426D01*
X13337573Y-11382426D02*
X13307573Y-11412426D01*
X13310000Y-12615000D02*
X13340000Y-12645000D01*
X13340000Y-12615000D02*
X13310000Y-12645000D01*
X13375000Y-11830000D02*
X13405000Y-11860000D01*
X13405000Y-11830000D02*
X13375000Y-11860000D01*
X13385000Y-10390000D02*
X13415000Y-10420000D01*
X13415000Y-10390000D02*
X13385000Y-10420000D01*
X13395000Y-10555000D02*
X13425000Y-10585000D01*
X13425000Y-10555000D02*
X13395000Y-10585000D01*
X13415978Y-11429000D02*
X13445978Y-11459000D01*
X13445978Y-11429000D02*
X13415978Y-11459000D01*
X13510000Y-10485000D02*
X13540000Y-10515000D01*
X13540000Y-10485000D02*
X13510000Y-10515000D01*
X13520000Y-10610000D02*
X13550000Y-10640000D01*
X13550000Y-10610000D02*
X13520000Y-10640000D01*
X13555000Y-11218750D02*
X13585000Y-11248750D01*
X13585000Y-11218750D02*
X13555000Y-11248750D01*
X13578558Y-12554563D02*
X13608558Y-12584563D01*
X13608558Y-12554563D02*
X13578558Y-12584563D01*
X13590000Y-12105000D02*
X13620000Y-12135000D01*
X13620000Y-12105000D02*
X13590000Y-12135000D01*
X13595000Y-9545000D02*
X13625000Y-9575000D01*
X13625000Y-9545000D02*
X13595000Y-9575000D01*
X13595000Y-12685000D02*
X13625000Y-12715000D01*
X13625000Y-12685000D02*
X13595000Y-12715000D01*
X13605064Y-11169826D02*
X13635064Y-11199826D01*
X13635064Y-11169826D02*
X13605064Y-11199826D01*
X13610000Y-11100000D02*
X13640000Y-11130000D01*
X13640000Y-11100000D02*
X13610000Y-11130000D01*
X13615000Y-10812971D02*
X13645000Y-10842971D01*
X13645000Y-10812971D02*
X13615000Y-10842971D01*
X13615000Y-10920000D02*
X13645000Y-10950000D01*
X13645000Y-10920000D02*
X13615000Y-10950000D01*
X13620000Y-11630000D02*
X13650000Y-11660000D01*
X13650000Y-11630000D02*
X13620000Y-11660000D01*
X13658729Y-10974661D02*
X13688729Y-11004661D01*
X13688729Y-10974661D02*
X13658729Y-11004661D01*
X13665000Y-9695000D02*
X13695000Y-9725000D01*
X13695000Y-9695000D02*
X13665000Y-9725000D01*
X13723416Y-11001413D02*
X13753416Y-11031413D01*
X13753416Y-11001413D02*
X13723416Y-11031413D01*
X13770000Y-10285000D02*
X13800000Y-10315000D01*
X13800000Y-10285000D02*
X13770000Y-10315000D01*
X13805000Y-12300000D02*
X13835000Y-12330000D01*
X13835000Y-12300000D02*
X13805000Y-12330000D01*
X13810000Y-9620000D02*
X13840000Y-9650000D01*
X13840000Y-9620000D02*
X13810000Y-9650000D01*
X13890000Y-9785000D02*
X13920000Y-9815000D01*
X13920000Y-9785000D02*
X13890000Y-9815000D01*
X13925000Y-10515000D02*
X13955000Y-10545000D01*
X13955000Y-10515000D02*
X13925000Y-10545000D01*
X14000000Y-9600000D02*
X14030000Y-9630000D01*
X14030000Y-9600000D02*
X14000000Y-9630000D01*
X14065000Y-10495000D02*
X14095000Y-10525000D01*
X14095000Y-10495000D02*
X14065000Y-10525000D01*
X14275000Y-12470000D02*
X14305000Y-12500000D01*
X14305000Y-12470000D02*
X14275000Y-12500000D01*
X14280000Y-10510000D02*
X14310000Y-10540000D01*
X14310000Y-10510000D02*
X14280000Y-10540000D01*
X14370000Y-12495000D02*
X14400000Y-12525000D01*
X14400000Y-12495000D02*
X14370000Y-12525000D01*
X15095000Y-12265000D02*
X15125000Y-12295000D01*
X15125000Y-12265000D02*
X15095000Y-12295000D01*
X15120000Y-10670000D02*
X15150000Y-10700000D01*
X15150000Y-10670000D02*
X15120000Y-10700000D01*
X15390000Y-11530000D02*
X15420000Y-11560000D01*
X15420000Y-11530000D02*
X15390000Y-11560000D01*
X15415000Y-11221239D02*
X15445000Y-11251239D01*
X15445000Y-11221239D02*
X15415000Y-11251239D01*
X15440000Y-9400000D02*
X15470000Y-9430000D01*
X15470000Y-9400000D02*
X15440000Y-9430000D01*
X15440000Y-10860000D02*
X15470000Y-10890000D01*
X15470000Y-10860000D02*
X15440000Y-10890000D01*
X15450000Y-9655000D02*
X15480000Y-9685000D01*
X15480000Y-9655000D02*
X15450000Y-9685000D01*
X15525000Y-11735000D02*
X15555000Y-11765000D01*
X15555000Y-11735000D02*
X15525000Y-11765000D01*
X15545000Y-10305000D02*
X15575000Y-10335000D01*
X15575000Y-10305000D02*
X15545000Y-10335000D01*
X15545000Y-11810000D02*
X15575000Y-11840000D01*
X15575000Y-11810000D02*
X15545000Y-11840000D01*
X15560000Y-11400000D02*
X15590000Y-11430000D01*
X15590000Y-11400000D02*
X15560000Y-11430000D01*
X15560000Y-11930000D02*
X15590000Y-11960000D01*
X15590000Y-11930000D02*
X15560000Y-11960000D01*
X15590000Y-12075000D02*
X15620000Y-12105000D01*
X15620000Y-12075000D02*
X15590000Y-12105000D01*
X15595000Y-11135000D02*
X15625000Y-11165000D01*
X15625000Y-11135000D02*
X15595000Y-11165000D01*
X15610000Y-12245000D02*
X15640000Y-12275000D01*
X15640000Y-12245000D02*
X15610000Y-12275000D01*
X15730000Y-10420000D02*
X15760000Y-10450000D01*
X15760000Y-10420000D02*
X15730000Y-10450000D01*
X15800000Y-9520000D02*
X15830000Y-9550000D01*
X15830000Y-9520000D02*
X15800000Y-9550000D01*
X15965000Y-10910000D02*
X15995000Y-10940000D01*
X15995000Y-10910000D02*
X15965000Y-10940000D01*
X15975000Y-10085000D02*
X16005000Y-10115000D01*
X16005000Y-10085000D02*
X15975000Y-10115000D01*
X15975000Y-11040000D02*
X16005000Y-11070000D01*
X16005000Y-11040000D02*
X15975000Y-11070000D01*
X16065000Y-9995000D02*
X16095000Y-10025000D01*
X16095000Y-9995000D02*
X16065000Y-10025000D01*
X16145000Y-10580000D02*
X16175000Y-10610000D01*
X16175000Y-10580000D02*
X16145000Y-10610000D01*
X16180000Y-9555000D02*
X16210000Y-9585000D01*
X16210000Y-9555000D02*
X16180000Y-9585000D01*
X16250000Y-10890000D02*
X16280000Y-10920000D01*
X16280000Y-10890000D02*
X16250000Y-10920000D01*
X13100000Y-9473000D02*
G75*
G02*
X13000000Y-9473000I-50000J0D01*
G01*
X13000000Y-9473000D02*
G75*
G02*
X13100000Y-9473000I50000J0D01*
G01*
X13100000Y-9727000D02*
G75*
G02*
X13000000Y-9727000I-50000J0D01*
G01*
X13000000Y-9727000D02*
G75*
G02*
X13100000Y-9727000I50000J0D01*
G01*
X13100000Y-9981000D02*
G75*
G02*
X13000000Y-9981000I-50000J0D01*
G01*
X13000000Y-9981000D02*
G75*
G02*
X13100000Y-9981000I50000J0D01*
G01*
X13100000Y-10235000D02*
G75*
G02*
X13000000Y-10235000I-50000J0D01*
G01*
X13000000Y-10235000D02*
G75*
G02*
X13100000Y-10235000I50000J0D01*
G01*
X13879050Y-9409900D02*
G75*
G02*
X13779050Y-9409900I-50000J0D01*
G01*
X13779050Y-9409900D02*
G75*
G02*
X13879050Y-9409900I50000J0D01*
G01*
X14079050Y-9409900D02*
G75*
G02*
X13979050Y-9409900I-50000J0D01*
G01*
X13979050Y-9409900D02*
G75*
G02*
X14079050Y-9409900I50000J0D01*
G01*
X14479050Y-9409900D02*
G75*
G02*
X14379050Y-9409900I-50000J0D01*
G01*
X14379050Y-9409900D02*
G75*
G02*
X14479050Y-9409900I50000J0D01*
G01*
X14679050Y-9409900D02*
G75*
G02*
X14579050Y-9409900I-50000J0D01*
G01*
X14579050Y-9409900D02*
G75*
G02*
X14679050Y-9409900I50000J0D01*
G01*
X14879050Y-9409900D02*
G75*
G02*
X14779050Y-9409900I-50000J0D01*
G01*
X14779050Y-9409900D02*
G75*
G02*
X14879050Y-9409900I50000J0D01*
G01*
X15079050Y-9409900D02*
G75*
G02*
X14979050Y-9409900I-50000J0D01*
G01*
X14979050Y-9409900D02*
G75*
G02*
X15079050Y-9409900I50000J0D01*
G01*
X15279050Y-9409900D02*
G75*
G02*
X15179050Y-9409900I-50000J0D01*
G01*
X15179050Y-9409900D02*
G75*
G02*
X15279050Y-9409900I50000J0D01*
G01*
D11*
X13003377Y-13161684D02*
X13003377Y-12961684D01*
X13003377Y-12961684D02*
X13050996Y-12961684D01*
X13050996Y-12961684D02*
X13079567Y-12971208D01*
X13079567Y-12971208D02*
X13098615Y-12990255D01*
X13098615Y-12990255D02*
X13108139Y-13009303D01*
X13108139Y-13009303D02*
X13117662Y-13047398D01*
X13117662Y-13047398D02*
X13117662Y-13075969D01*
X13117662Y-13075969D02*
X13108139Y-13114065D01*
X13108139Y-13114065D02*
X13098615Y-13133112D01*
X13098615Y-13133112D02*
X13079567Y-13152160D01*
X13079567Y-13152160D02*
X13050996Y-13161684D01*
X13050996Y-13161684D02*
X13003377Y-13161684D01*
X13203377Y-13161684D02*
X13203377Y-13028350D01*
X13203377Y-13066446D02*
X13212901Y-13047398D01*
X13212901Y-13047398D02*
X13222424Y-13037874D01*
X13222424Y-13037874D02*
X13241472Y-13028350D01*
X13241472Y-13028350D02*
X13260520Y-13028350D01*
X13327186Y-13161684D02*
X13327186Y-13028350D01*
X13327186Y-12961684D02*
X13317662Y-12971208D01*
X13317662Y-12971208D02*
X13327186Y-12980731D01*
X13327186Y-12980731D02*
X13336710Y-12971208D01*
X13336710Y-12971208D02*
X13327186Y-12961684D01*
X13327186Y-12961684D02*
X13327186Y-12980731D01*
X13450996Y-13161684D02*
X13431948Y-13152160D01*
X13431948Y-13152160D02*
X13422424Y-13133112D01*
X13422424Y-13133112D02*
X13422424Y-12961684D01*
X13555758Y-13161684D02*
X13536710Y-13152160D01*
X13536710Y-13152160D02*
X13527186Y-13133112D01*
X13527186Y-13133112D02*
X13527186Y-12961684D01*
X13784329Y-13161684D02*
X13784329Y-12961684D01*
X13784329Y-12961684D02*
X13850996Y-13104541D01*
X13850996Y-13104541D02*
X13917662Y-12961684D01*
X13917662Y-12961684D02*
X13917662Y-13161684D01*
X14098615Y-13161684D02*
X14098615Y-13056922D01*
X14098615Y-13056922D02*
X14089091Y-13037874D01*
X14089091Y-13037874D02*
X14070043Y-13028350D01*
X14070043Y-13028350D02*
X14031948Y-13028350D01*
X14031948Y-13028350D02*
X14012901Y-13037874D01*
X14098615Y-13152160D02*
X14079567Y-13161684D01*
X14079567Y-13161684D02*
X14031948Y-13161684D01*
X14031948Y-13161684D02*
X14012901Y-13152160D01*
X14012901Y-13152160D02*
X14003377Y-13133112D01*
X14003377Y-13133112D02*
X14003377Y-13114065D01*
X14003377Y-13114065D02*
X14012901Y-13095017D01*
X14012901Y-13095017D02*
X14031948Y-13085493D01*
X14031948Y-13085493D02*
X14079567Y-13085493D01*
X14079567Y-13085493D02*
X14098615Y-13075969D01*
X14193853Y-13028350D02*
X14193853Y-13228350D01*
X14193853Y-13037874D02*
X14212901Y-13028350D01*
X14212901Y-13028350D02*
X14250996Y-13028350D01*
X14250996Y-13028350D02*
X14270043Y-13037874D01*
X14270043Y-13037874D02*
X14279567Y-13047398D01*
X14279567Y-13047398D02*
X14289091Y-13066446D01*
X14289091Y-13066446D02*
X14289091Y-13123588D01*
X14289091Y-13123588D02*
X14279567Y-13142636D01*
X14279567Y-13142636D02*
X14270043Y-13152160D01*
X14270043Y-13152160D02*
X14250996Y-13161684D01*
X14250996Y-13161684D02*
X14212901Y-13161684D01*
X14212901Y-13161684D02*
X14193853Y-13152160D01*
X14374805Y-13142636D02*
X14384329Y-13152160D01*
X14384329Y-13152160D02*
X14374805Y-13161684D01*
X14374805Y-13161684D02*
X14365282Y-13152160D01*
X14365282Y-13152160D02*
X14374805Y-13142636D01*
X14374805Y-13142636D02*
X14374805Y-13161684D01*
X14374805Y-13037874D02*
X14384329Y-13047398D01*
X14384329Y-13047398D02*
X14374805Y-13056922D01*
X14374805Y-13056922D02*
X14365282Y-13047398D01*
X14365282Y-13047398D02*
X14374805Y-13037874D01*
X14374805Y-13037874D02*
X14374805Y-13056922D01*
D12*
X12712600Y-13475200D02*
X12742600Y-13505200D01*
X12742600Y-13475200D02*
X12712600Y-13505200D01*
D11*
X13041472Y-13381684D02*
X13060520Y-13381684D01*
X13060520Y-13381684D02*
X13079567Y-13391208D01*
X13079567Y-13391208D02*
X13089091Y-13400731D01*
X13089091Y-13400731D02*
X13098615Y-13419779D01*
X13098615Y-13419779D02*
X13108139Y-13457874D01*
X13108139Y-13457874D02*
X13108139Y-13505493D01*
X13108139Y-13505493D02*
X13098615Y-13543588D01*
X13098615Y-13543588D02*
X13089091Y-13562636D01*
X13089091Y-13562636D02*
X13079567Y-13572160D01*
X13079567Y-13572160D02*
X13060520Y-13581684D01*
X13060520Y-13581684D02*
X13041472Y-13581684D01*
X13041472Y-13581684D02*
X13022424Y-13572160D01*
X13022424Y-13572160D02*
X13012901Y-13562636D01*
X13012901Y-13562636D02*
X13003377Y-13543588D01*
X13003377Y-13543588D02*
X12993853Y-13505493D01*
X12993853Y-13505493D02*
X12993853Y-13457874D01*
X12993853Y-13457874D02*
X13003377Y-13419779D01*
X13003377Y-13419779D02*
X13012901Y-13400731D01*
X13012901Y-13400731D02*
X13022424Y-13391208D01*
X13022424Y-13391208D02*
X13041472Y-13381684D01*
X13193853Y-13562636D02*
X13203377Y-13572160D01*
X13203377Y-13572160D02*
X13193853Y-13581684D01*
X13193853Y-13581684D02*
X13184329Y-13572160D01*
X13184329Y-13572160D02*
X13193853Y-13562636D01*
X13193853Y-13562636D02*
X13193853Y-13581684D01*
X13270043Y-13381684D02*
X13393853Y-13381684D01*
X13393853Y-13381684D02*
X13327186Y-13457874D01*
X13327186Y-13457874D02*
X13355758Y-13457874D01*
X13355758Y-13457874D02*
X13374805Y-13467398D01*
X13374805Y-13467398D02*
X13384329Y-13476922D01*
X13384329Y-13476922D02*
X13393853Y-13495969D01*
X13393853Y-13495969D02*
X13393853Y-13543588D01*
X13393853Y-13543588D02*
X13384329Y-13562636D01*
X13384329Y-13562636D02*
X13374805Y-13572160D01*
X13374805Y-13572160D02*
X13355758Y-13581684D01*
X13355758Y-13581684D02*
X13298615Y-13581684D01*
X13298615Y-13581684D02*
X13279567Y-13572160D01*
X13279567Y-13572160D02*
X13270043Y-13562636D01*
X13517662Y-13381684D02*
X13536710Y-13381684D01*
X13536710Y-13381684D02*
X13555758Y-13391208D01*
X13555758Y-13391208D02*
X13565282Y-13400731D01*
X13565282Y-13400731D02*
X13574805Y-13419779D01*
X13574805Y-13419779D02*
X13584329Y-13457874D01*
X13584329Y-13457874D02*
X13584329Y-13505493D01*
X13584329Y-13505493D02*
X13574805Y-13543588D01*
X13574805Y-13543588D02*
X13565282Y-13562636D01*
X13565282Y-13562636D02*
X13555758Y-13572160D01*
X13555758Y-13572160D02*
X13536710Y-13581684D01*
X13536710Y-13581684D02*
X13517662Y-13581684D01*
X13517662Y-13581684D02*
X13498615Y-13572160D01*
X13498615Y-13572160D02*
X13489091Y-13562636D01*
X13489091Y-13562636D02*
X13479567Y-13543588D01*
X13479567Y-13543588D02*
X13470043Y-13505493D01*
X13470043Y-13505493D02*
X13470043Y-13457874D01*
X13470043Y-13457874D02*
X13479567Y-13419779D01*
X13479567Y-13419779D02*
X13489091Y-13400731D01*
X13489091Y-13400731D02*
X13498615Y-13391208D01*
X13498615Y-13391208D02*
X13517662Y-13381684D01*
X13708139Y-13381684D02*
X13727186Y-13381684D01*
X13727186Y-13381684D02*
X13746234Y-13391208D01*
X13746234Y-13391208D02*
X13755758Y-13400731D01*
X13755758Y-13400731D02*
X13765282Y-13419779D01*
X13765282Y-13419779D02*
X13774805Y-13457874D01*
X13774805Y-13457874D02*
X13774805Y-13505493D01*
X13774805Y-13505493D02*
X13765282Y-13543588D01*
X13765282Y-13543588D02*
X13755758Y-13562636D01*
X13755758Y-13562636D02*
X13746234Y-13572160D01*
X13746234Y-13572160D02*
X13727186Y-13581684D01*
X13727186Y-13581684D02*
X13708139Y-13581684D01*
X13708139Y-13581684D02*
X13689091Y-13572160D01*
X13689091Y-13572160D02*
X13679567Y-13562636D01*
X13679567Y-13562636D02*
X13670043Y-13543588D01*
X13670043Y-13543588D02*
X13660520Y-13505493D01*
X13660520Y-13505493D02*
X13660520Y-13457874D01*
X13660520Y-13457874D02*
X13670043Y-13419779D01*
X13670043Y-13419779D02*
X13679567Y-13400731D01*
X13679567Y-13400731D02*
X13689091Y-13391208D01*
X13689091Y-13391208D02*
X13708139Y-13381684D01*
X13860520Y-13581684D02*
X13860520Y-13448350D01*
X13860520Y-13467398D02*
X13870043Y-13457874D01*
X13870043Y-13457874D02*
X13889091Y-13448350D01*
X13889091Y-13448350D02*
X13917663Y-13448350D01*
X13917663Y-13448350D02*
X13936710Y-13457874D01*
X13936710Y-13457874D02*
X13946234Y-13476922D01*
X13946234Y-13476922D02*
X13946234Y-13581684D01*
X13946234Y-13476922D02*
X13955758Y-13457874D01*
X13955758Y-13457874D02*
X13974805Y-13448350D01*
X13974805Y-13448350D02*
X14003377Y-13448350D01*
X14003377Y-13448350D02*
X14022424Y-13457874D01*
X14022424Y-13457874D02*
X14031948Y-13476922D01*
X14031948Y-13476922D02*
X14031948Y-13581684D01*
X14127186Y-13581684D02*
X14127186Y-13448350D01*
X14127186Y-13467398D02*
X14136710Y-13457874D01*
X14136710Y-13457874D02*
X14155758Y-13448350D01*
X14155758Y-13448350D02*
X14184329Y-13448350D01*
X14184329Y-13448350D02*
X14203377Y-13457874D01*
X14203377Y-13457874D02*
X14212901Y-13476922D01*
X14212901Y-13476922D02*
X14212901Y-13581684D01*
X14212901Y-13476922D02*
X14222424Y-13457874D01*
X14222424Y-13457874D02*
X14241472Y-13448350D01*
X14241472Y-13448350D02*
X14270043Y-13448350D01*
X14270043Y-13448350D02*
X14289091Y-13457874D01*
X14289091Y-13457874D02*
X14298615Y-13476922D01*
X14298615Y-13476922D02*
X14298615Y-13581684D01*
X14689091Y-13372160D02*
X14517663Y-13629303D01*
X14946234Y-13381684D02*
X14965282Y-13381684D01*
X14965282Y-13381684D02*
X14984329Y-13391208D01*
X14984329Y-13391208D02*
X14993853Y-13400731D01*
X14993853Y-13400731D02*
X15003377Y-13419779D01*
X15003377Y-13419779D02*
X15012901Y-13457874D01*
X15012901Y-13457874D02*
X15012901Y-13505493D01*
X15012901Y-13505493D02*
X15003377Y-13543588D01*
X15003377Y-13543588D02*
X14993853Y-13562636D01*
X14993853Y-13562636D02*
X14984329Y-13572160D01*
X14984329Y-13572160D02*
X14965282Y-13581684D01*
X14965282Y-13581684D02*
X14946234Y-13581684D01*
X14946234Y-13581684D02*
X14927186Y-13572160D01*
X14927186Y-13572160D02*
X14917663Y-13562636D01*
X14917663Y-13562636D02*
X14908139Y-13543588D01*
X14908139Y-13543588D02*
X14898615Y-13505493D01*
X14898615Y-13505493D02*
X14898615Y-13457874D01*
X14898615Y-13457874D02*
X14908139Y-13419779D01*
X14908139Y-13419779D02*
X14917663Y-13400731D01*
X14917663Y-13400731D02*
X14927186Y-13391208D01*
X14927186Y-13391208D02*
X14946234Y-13381684D01*
X15098615Y-13562636D02*
X15108139Y-13572160D01*
X15108139Y-13572160D02*
X15098615Y-13581684D01*
X15098615Y-13581684D02*
X15089091Y-13572160D01*
X15089091Y-13572160D02*
X15098615Y-13562636D01*
X15098615Y-13562636D02*
X15098615Y-13581684D01*
X15231948Y-13381684D02*
X15250996Y-13381684D01*
X15250996Y-13381684D02*
X15270044Y-13391208D01*
X15270044Y-13391208D02*
X15279567Y-13400731D01*
X15279567Y-13400731D02*
X15289091Y-13419779D01*
X15289091Y-13419779D02*
X15298615Y-13457874D01*
X15298615Y-13457874D02*
X15298615Y-13505493D01*
X15298615Y-13505493D02*
X15289091Y-13543588D01*
X15289091Y-13543588D02*
X15279567Y-13562636D01*
X15279567Y-13562636D02*
X15270044Y-13572160D01*
X15270044Y-13572160D02*
X15250996Y-13581684D01*
X15250996Y-13581684D02*
X15231948Y-13581684D01*
X15231948Y-13581684D02*
X15212901Y-13572160D01*
X15212901Y-13572160D02*
X15203377Y-13562636D01*
X15203377Y-13562636D02*
X15193853Y-13543588D01*
X15193853Y-13543588D02*
X15184329Y-13505493D01*
X15184329Y-13505493D02*
X15184329Y-13457874D01*
X15184329Y-13457874D02*
X15193853Y-13419779D01*
X15193853Y-13419779D02*
X15203377Y-13400731D01*
X15203377Y-13400731D02*
X15212901Y-13391208D01*
X15212901Y-13391208D02*
X15231948Y-13381684D01*
X15489091Y-13581684D02*
X15374806Y-13581684D01*
X15431948Y-13581684D02*
X15431948Y-13381684D01*
X15431948Y-13381684D02*
X15412901Y-13410255D01*
X15412901Y-13410255D02*
X15393853Y-13429303D01*
X15393853Y-13429303D02*
X15374806Y-13438827D01*
X15679567Y-13581684D02*
X15565282Y-13581684D01*
X15622425Y-13581684D02*
X15622425Y-13381684D01*
X15622425Y-13381684D02*
X15603377Y-13410255D01*
X15603377Y-13410255D02*
X15584329Y-13429303D01*
X15584329Y-13429303D02*
X15565282Y-13438827D01*
X15793853Y-13467398D02*
X15774806Y-13457874D01*
X15774806Y-13457874D02*
X15765282Y-13448350D01*
X15765282Y-13448350D02*
X15755758Y-13429303D01*
X15755758Y-13429303D02*
X15755758Y-13419779D01*
X15755758Y-13419779D02*
X15765282Y-13400731D01*
X15765282Y-13400731D02*
X15774806Y-13391208D01*
X15774806Y-13391208D02*
X15793853Y-13381684D01*
X15793853Y-13381684D02*
X15831948Y-13381684D01*
X15831948Y-13381684D02*
X15850996Y-13391208D01*
X15850996Y-13391208D02*
X15860520Y-13400731D01*
X15860520Y-13400731D02*
X15870044Y-13419779D01*
X15870044Y-13419779D02*
X15870044Y-13429303D01*
X15870044Y-13429303D02*
X15860520Y-13448350D01*
X15860520Y-13448350D02*
X15850996Y-13457874D01*
X15850996Y-13457874D02*
X15831948Y-13467398D01*
X15831948Y-13467398D02*
X15793853Y-13467398D01*
X15793853Y-13467398D02*
X15774806Y-13476922D01*
X15774806Y-13476922D02*
X15765282Y-13486446D01*
X15765282Y-13486446D02*
X15755758Y-13505493D01*
X15755758Y-13505493D02*
X15755758Y-13543588D01*
X15755758Y-13543588D02*
X15765282Y-13562636D01*
X15765282Y-13562636D02*
X15774806Y-13572160D01*
X15774806Y-13572160D02*
X15793853Y-13581684D01*
X15793853Y-13581684D02*
X15831948Y-13581684D01*
X15831948Y-13581684D02*
X15850996Y-13572160D01*
X15850996Y-13572160D02*
X15860520Y-13562636D01*
X15860520Y-13562636D02*
X15870044Y-13543588D01*
X15870044Y-13543588D02*
X15870044Y-13505493D01*
X15870044Y-13505493D02*
X15860520Y-13486446D01*
X15860520Y-13486446D02*
X15850996Y-13476922D01*
X15850996Y-13476922D02*
X15831948Y-13467398D01*
X15946234Y-13381684D02*
X15946234Y-13419779D01*
X16022425Y-13381684D02*
X16022425Y-13419779D01*
X16317663Y-13657874D02*
X16308139Y-13648350D01*
X16308139Y-13648350D02*
X16289091Y-13619779D01*
X16289091Y-13619779D02*
X16279568Y-13600731D01*
X16279568Y-13600731D02*
X16270044Y-13572160D01*
X16270044Y-13572160D02*
X16260520Y-13524541D01*
X16260520Y-13524541D02*
X16260520Y-13486446D01*
X16260520Y-13486446D02*
X16270044Y-13438827D01*
X16270044Y-13438827D02*
X16279568Y-13410255D01*
X16279568Y-13410255D02*
X16289091Y-13391208D01*
X16289091Y-13391208D02*
X16308139Y-13362636D01*
X16308139Y-13362636D02*
X16317663Y-13353112D01*
X16479568Y-13381684D02*
X16441472Y-13381684D01*
X16441472Y-13381684D02*
X16422425Y-13391208D01*
X16422425Y-13391208D02*
X16412901Y-13400731D01*
X16412901Y-13400731D02*
X16393853Y-13429303D01*
X16393853Y-13429303D02*
X16384329Y-13467398D01*
X16384329Y-13467398D02*
X16384329Y-13543588D01*
X16384329Y-13543588D02*
X16393853Y-13562636D01*
X16393853Y-13562636D02*
X16403377Y-13572160D01*
X16403377Y-13572160D02*
X16422425Y-13581684D01*
X16422425Y-13581684D02*
X16460520Y-13581684D01*
X16460520Y-13581684D02*
X16479568Y-13572160D01*
X16479568Y-13572160D02*
X16489091Y-13562636D01*
X16489091Y-13562636D02*
X16498615Y-13543588D01*
X16498615Y-13543588D02*
X16498615Y-13495969D01*
X16498615Y-13495969D02*
X16489091Y-13476922D01*
X16489091Y-13476922D02*
X16479568Y-13467398D01*
X16479568Y-13467398D02*
X16460520Y-13457874D01*
X16460520Y-13457874D02*
X16422425Y-13457874D01*
X16422425Y-13457874D02*
X16403377Y-13467398D01*
X16403377Y-13467398D02*
X16393853Y-13476922D01*
X16393853Y-13476922D02*
X16384329Y-13495969D01*
X16574806Y-13400731D02*
X16584329Y-13391208D01*
X16584329Y-13391208D02*
X16603377Y-13381684D01*
X16603377Y-13381684D02*
X16650996Y-13381684D01*
X16650996Y-13381684D02*
X16670044Y-13391208D01*
X16670044Y-13391208D02*
X16679568Y-13400731D01*
X16679568Y-13400731D02*
X16689091Y-13419779D01*
X16689091Y-13419779D02*
X16689091Y-13438827D01*
X16689091Y-13438827D02*
X16679568Y-13467398D01*
X16679568Y-13467398D02*
X16565282Y-13581684D01*
X16565282Y-13581684D02*
X16689091Y-13581684D01*
X16927187Y-13581684D02*
X16927187Y-13381684D01*
X17012901Y-13581684D02*
X17012901Y-13476922D01*
X17012901Y-13476922D02*
X17003377Y-13457874D01*
X17003377Y-13457874D02*
X16984330Y-13448350D01*
X16984330Y-13448350D02*
X16955758Y-13448350D01*
X16955758Y-13448350D02*
X16936711Y-13457874D01*
X16936711Y-13457874D02*
X16927187Y-13467398D01*
X17136711Y-13581684D02*
X17117663Y-13572160D01*
X17117663Y-13572160D02*
X17108139Y-13562636D01*
X17108139Y-13562636D02*
X17098615Y-13543588D01*
X17098615Y-13543588D02*
X17098615Y-13486446D01*
X17098615Y-13486446D02*
X17108139Y-13467398D01*
X17108139Y-13467398D02*
X17117663Y-13457874D01*
X17117663Y-13457874D02*
X17136711Y-13448350D01*
X17136711Y-13448350D02*
X17165282Y-13448350D01*
X17165282Y-13448350D02*
X17184330Y-13457874D01*
X17184330Y-13457874D02*
X17193853Y-13467398D01*
X17193853Y-13467398D02*
X17203377Y-13486446D01*
X17203377Y-13486446D02*
X17203377Y-13543588D01*
X17203377Y-13543588D02*
X17193853Y-13562636D01*
X17193853Y-13562636D02*
X17184330Y-13572160D01*
X17184330Y-13572160D02*
X17165282Y-13581684D01*
X17165282Y-13581684D02*
X17136711Y-13581684D01*
X17317663Y-13581684D02*
X17298615Y-13572160D01*
X17298615Y-13572160D02*
X17289092Y-13553112D01*
X17289092Y-13553112D02*
X17289092Y-13381684D01*
X17470044Y-13572160D02*
X17450996Y-13581684D01*
X17450996Y-13581684D02*
X17412901Y-13581684D01*
X17412901Y-13581684D02*
X17393853Y-13572160D01*
X17393853Y-13572160D02*
X17384330Y-13553112D01*
X17384330Y-13553112D02*
X17384330Y-13476922D01*
X17384330Y-13476922D02*
X17393853Y-13457874D01*
X17393853Y-13457874D02*
X17412901Y-13448350D01*
X17412901Y-13448350D02*
X17450996Y-13448350D01*
X17450996Y-13448350D02*
X17470044Y-13457874D01*
X17470044Y-13457874D02*
X17479568Y-13476922D01*
X17479568Y-13476922D02*
X17479568Y-13495969D01*
X17479568Y-13495969D02*
X17384330Y-13515017D01*
X17555758Y-13572160D02*
X17574806Y-13581684D01*
X17574806Y-13581684D02*
X17612901Y-13581684D01*
X17612901Y-13581684D02*
X17631949Y-13572160D01*
X17631949Y-13572160D02*
X17641473Y-13553112D01*
X17641473Y-13553112D02*
X17641473Y-13543588D01*
X17641473Y-13543588D02*
X17631949Y-13524541D01*
X17631949Y-13524541D02*
X17612901Y-13515017D01*
X17612901Y-13515017D02*
X17584330Y-13515017D01*
X17584330Y-13515017D02*
X17565282Y-13505493D01*
X17565282Y-13505493D02*
X17555758Y-13486446D01*
X17555758Y-13486446D02*
X17555758Y-13476922D01*
X17555758Y-13476922D02*
X17565282Y-13457874D01*
X17565282Y-13457874D02*
X17584330Y-13448350D01*
X17584330Y-13448350D02*
X17612901Y-13448350D01*
X17612901Y-13448350D02*
X17631949Y-13457874D01*
X17708139Y-13657874D02*
X17717663Y-13648350D01*
X17717663Y-13648350D02*
X17736711Y-13619779D01*
X17736711Y-13619779D02*
X17746234Y-13600731D01*
X17746234Y-13600731D02*
X17755758Y-13572160D01*
X17755758Y-13572160D02*
X17765282Y-13524541D01*
X17765282Y-13524541D02*
X17765282Y-13486446D01*
X17765282Y-13486446D02*
X17755758Y-13438827D01*
X17755758Y-13438827D02*
X17746234Y-13410255D01*
X17746234Y-13410255D02*
X17736711Y-13391208D01*
X17736711Y-13391208D02*
X17717663Y-13362636D01*
X17717663Y-13362636D02*
X17708139Y-13353112D01*
D12*
X12742600Y-13754200D02*
G75*
G02*
X12642600Y-13754200I-50000J0D01*
G01*
X12642600Y-13754200D02*
G75*
G02*
X12742600Y-13754200I50000J0D01*
G01*
D11*
X13108139Y-13845684D02*
X12993853Y-13845684D01*
X13050996Y-13845684D02*
X13050996Y-13645684D01*
X13050996Y-13645684D02*
X13031948Y-13674255D01*
X13031948Y-13674255D02*
X13012901Y-13693303D01*
X13012901Y-13693303D02*
X12993853Y-13702827D01*
X13193853Y-13826636D02*
X13203377Y-13836160D01*
X13203377Y-13836160D02*
X13193853Y-13845684D01*
X13193853Y-13845684D02*
X13184329Y-13836160D01*
X13184329Y-13836160D02*
X13193853Y-13826636D01*
X13193853Y-13826636D02*
X13193853Y-13845684D01*
X13327186Y-13645684D02*
X13346234Y-13645684D01*
X13346234Y-13645684D02*
X13365282Y-13655208D01*
X13365282Y-13655208D02*
X13374805Y-13664731D01*
X13374805Y-13664731D02*
X13384329Y-13683779D01*
X13384329Y-13683779D02*
X13393853Y-13721874D01*
X13393853Y-13721874D02*
X13393853Y-13769493D01*
X13393853Y-13769493D02*
X13384329Y-13807588D01*
X13384329Y-13807588D02*
X13374805Y-13826636D01*
X13374805Y-13826636D02*
X13365282Y-13836160D01*
X13365282Y-13836160D02*
X13346234Y-13845684D01*
X13346234Y-13845684D02*
X13327186Y-13845684D01*
X13327186Y-13845684D02*
X13308139Y-13836160D01*
X13308139Y-13836160D02*
X13298615Y-13826636D01*
X13298615Y-13826636D02*
X13289091Y-13807588D01*
X13289091Y-13807588D02*
X13279567Y-13769493D01*
X13279567Y-13769493D02*
X13279567Y-13721874D01*
X13279567Y-13721874D02*
X13289091Y-13683779D01*
X13289091Y-13683779D02*
X13298615Y-13664731D01*
X13298615Y-13664731D02*
X13308139Y-13655208D01*
X13308139Y-13655208D02*
X13327186Y-13645684D01*
X13517662Y-13645684D02*
X13536710Y-13645684D01*
X13536710Y-13645684D02*
X13555758Y-13655208D01*
X13555758Y-13655208D02*
X13565282Y-13664731D01*
X13565282Y-13664731D02*
X13574805Y-13683779D01*
X13574805Y-13683779D02*
X13584329Y-13721874D01*
X13584329Y-13721874D02*
X13584329Y-13769493D01*
X13584329Y-13769493D02*
X13574805Y-13807588D01*
X13574805Y-13807588D02*
X13565282Y-13826636D01*
X13565282Y-13826636D02*
X13555758Y-13836160D01*
X13555758Y-13836160D02*
X13536710Y-13845684D01*
X13536710Y-13845684D02*
X13517662Y-13845684D01*
X13517662Y-13845684D02*
X13498615Y-13836160D01*
X13498615Y-13836160D02*
X13489091Y-13826636D01*
X13489091Y-13826636D02*
X13479567Y-13807588D01*
X13479567Y-13807588D02*
X13470043Y-13769493D01*
X13470043Y-13769493D02*
X13470043Y-13721874D01*
X13470043Y-13721874D02*
X13479567Y-13683779D01*
X13479567Y-13683779D02*
X13489091Y-13664731D01*
X13489091Y-13664731D02*
X13498615Y-13655208D01*
X13498615Y-13655208D02*
X13517662Y-13645684D01*
X13708139Y-13645684D02*
X13727186Y-13645684D01*
X13727186Y-13645684D02*
X13746234Y-13655208D01*
X13746234Y-13655208D02*
X13755758Y-13664731D01*
X13755758Y-13664731D02*
X13765282Y-13683779D01*
X13765282Y-13683779D02*
X13774805Y-13721874D01*
X13774805Y-13721874D02*
X13774805Y-13769493D01*
X13774805Y-13769493D02*
X13765282Y-13807588D01*
X13765282Y-13807588D02*
X13755758Y-13826636D01*
X13755758Y-13826636D02*
X13746234Y-13836160D01*
X13746234Y-13836160D02*
X13727186Y-13845684D01*
X13727186Y-13845684D02*
X13708139Y-13845684D01*
X13708139Y-13845684D02*
X13689091Y-13836160D01*
X13689091Y-13836160D02*
X13679567Y-13826636D01*
X13679567Y-13826636D02*
X13670043Y-13807588D01*
X13670043Y-13807588D02*
X13660520Y-13769493D01*
X13660520Y-13769493D02*
X13660520Y-13721874D01*
X13660520Y-13721874D02*
X13670043Y-13683779D01*
X13670043Y-13683779D02*
X13679567Y-13664731D01*
X13679567Y-13664731D02*
X13689091Y-13655208D01*
X13689091Y-13655208D02*
X13708139Y-13645684D01*
X13860520Y-13845684D02*
X13860520Y-13712350D01*
X13860520Y-13731398D02*
X13870043Y-13721874D01*
X13870043Y-13721874D02*
X13889091Y-13712350D01*
X13889091Y-13712350D02*
X13917663Y-13712350D01*
X13917663Y-13712350D02*
X13936710Y-13721874D01*
X13936710Y-13721874D02*
X13946234Y-13740922D01*
X13946234Y-13740922D02*
X13946234Y-13845684D01*
X13946234Y-13740922D02*
X13955758Y-13721874D01*
X13955758Y-13721874D02*
X13974805Y-13712350D01*
X13974805Y-13712350D02*
X14003377Y-13712350D01*
X14003377Y-13712350D02*
X14022424Y-13721874D01*
X14022424Y-13721874D02*
X14031948Y-13740922D01*
X14031948Y-13740922D02*
X14031948Y-13845684D01*
X14127186Y-13845684D02*
X14127186Y-13712350D01*
X14127186Y-13731398D02*
X14136710Y-13721874D01*
X14136710Y-13721874D02*
X14155758Y-13712350D01*
X14155758Y-13712350D02*
X14184329Y-13712350D01*
X14184329Y-13712350D02*
X14203377Y-13721874D01*
X14203377Y-13721874D02*
X14212901Y-13740922D01*
X14212901Y-13740922D02*
X14212901Y-13845684D01*
X14212901Y-13740922D02*
X14222424Y-13721874D01*
X14222424Y-13721874D02*
X14241472Y-13712350D01*
X14241472Y-13712350D02*
X14270043Y-13712350D01*
X14270043Y-13712350D02*
X14289091Y-13721874D01*
X14289091Y-13721874D02*
X14298615Y-13740922D01*
X14298615Y-13740922D02*
X14298615Y-13845684D01*
X14689091Y-13636160D02*
X14517663Y-13893303D01*
X14946234Y-13645684D02*
X14965282Y-13645684D01*
X14965282Y-13645684D02*
X14984329Y-13655208D01*
X14984329Y-13655208D02*
X14993853Y-13664731D01*
X14993853Y-13664731D02*
X15003377Y-13683779D01*
X15003377Y-13683779D02*
X15012901Y-13721874D01*
X15012901Y-13721874D02*
X15012901Y-13769493D01*
X15012901Y-13769493D02*
X15003377Y-13807588D01*
X15003377Y-13807588D02*
X14993853Y-13826636D01*
X14993853Y-13826636D02*
X14984329Y-13836160D01*
X14984329Y-13836160D02*
X14965282Y-13845684D01*
X14965282Y-13845684D02*
X14946234Y-13845684D01*
X14946234Y-13845684D02*
X14927186Y-13836160D01*
X14927186Y-13836160D02*
X14917663Y-13826636D01*
X14917663Y-13826636D02*
X14908139Y-13807588D01*
X14908139Y-13807588D02*
X14898615Y-13769493D01*
X14898615Y-13769493D02*
X14898615Y-13721874D01*
X14898615Y-13721874D02*
X14908139Y-13683779D01*
X14908139Y-13683779D02*
X14917663Y-13664731D01*
X14917663Y-13664731D02*
X14927186Y-13655208D01*
X14927186Y-13655208D02*
X14946234Y-13645684D01*
X15098615Y-13826636D02*
X15108139Y-13836160D01*
X15108139Y-13836160D02*
X15098615Y-13845684D01*
X15098615Y-13845684D02*
X15089091Y-13836160D01*
X15089091Y-13836160D02*
X15098615Y-13826636D01*
X15098615Y-13826636D02*
X15098615Y-13845684D01*
X15231948Y-13645684D02*
X15250996Y-13645684D01*
X15250996Y-13645684D02*
X15270044Y-13655208D01*
X15270044Y-13655208D02*
X15279567Y-13664731D01*
X15279567Y-13664731D02*
X15289091Y-13683779D01*
X15289091Y-13683779D02*
X15298615Y-13721874D01*
X15298615Y-13721874D02*
X15298615Y-13769493D01*
X15298615Y-13769493D02*
X15289091Y-13807588D01*
X15289091Y-13807588D02*
X15279567Y-13826636D01*
X15279567Y-13826636D02*
X15270044Y-13836160D01*
X15270044Y-13836160D02*
X15250996Y-13845684D01*
X15250996Y-13845684D02*
X15231948Y-13845684D01*
X15231948Y-13845684D02*
X15212901Y-13836160D01*
X15212901Y-13836160D02*
X15203377Y-13826636D01*
X15203377Y-13826636D02*
X15193853Y-13807588D01*
X15193853Y-13807588D02*
X15184329Y-13769493D01*
X15184329Y-13769493D02*
X15184329Y-13721874D01*
X15184329Y-13721874D02*
X15193853Y-13683779D01*
X15193853Y-13683779D02*
X15203377Y-13664731D01*
X15203377Y-13664731D02*
X15212901Y-13655208D01*
X15212901Y-13655208D02*
X15231948Y-13645684D01*
X15365282Y-13645684D02*
X15489091Y-13645684D01*
X15489091Y-13645684D02*
X15422425Y-13721874D01*
X15422425Y-13721874D02*
X15450996Y-13721874D01*
X15450996Y-13721874D02*
X15470044Y-13731398D01*
X15470044Y-13731398D02*
X15479567Y-13740922D01*
X15479567Y-13740922D02*
X15489091Y-13759969D01*
X15489091Y-13759969D02*
X15489091Y-13807588D01*
X15489091Y-13807588D02*
X15479567Y-13826636D01*
X15479567Y-13826636D02*
X15470044Y-13836160D01*
X15470044Y-13836160D02*
X15450996Y-13845684D01*
X15450996Y-13845684D02*
X15393853Y-13845684D01*
X15393853Y-13845684D02*
X15374806Y-13836160D01*
X15374806Y-13836160D02*
X15365282Y-13826636D01*
X15584329Y-13845684D02*
X15622425Y-13845684D01*
X15622425Y-13845684D02*
X15641472Y-13836160D01*
X15641472Y-13836160D02*
X15650996Y-13826636D01*
X15650996Y-13826636D02*
X15670044Y-13798065D01*
X15670044Y-13798065D02*
X15679567Y-13759969D01*
X15679567Y-13759969D02*
X15679567Y-13683779D01*
X15679567Y-13683779D02*
X15670044Y-13664731D01*
X15670044Y-13664731D02*
X15660520Y-13655208D01*
X15660520Y-13655208D02*
X15641472Y-13645684D01*
X15641472Y-13645684D02*
X15603377Y-13645684D01*
X15603377Y-13645684D02*
X15584329Y-13655208D01*
X15584329Y-13655208D02*
X15574806Y-13664731D01*
X15574806Y-13664731D02*
X15565282Y-13683779D01*
X15565282Y-13683779D02*
X15565282Y-13731398D01*
X15565282Y-13731398D02*
X15574806Y-13750446D01*
X15574806Y-13750446D02*
X15584329Y-13759969D01*
X15584329Y-13759969D02*
X15603377Y-13769493D01*
X15603377Y-13769493D02*
X15641472Y-13769493D01*
X15641472Y-13769493D02*
X15660520Y-13759969D01*
X15660520Y-13759969D02*
X15670044Y-13750446D01*
X15670044Y-13750446D02*
X15679567Y-13731398D01*
X15850996Y-13712350D02*
X15850996Y-13845684D01*
X15803377Y-13636160D02*
X15755758Y-13779017D01*
X15755758Y-13779017D02*
X15879567Y-13779017D01*
X15946234Y-13645684D02*
X15946234Y-13683779D01*
X16022425Y-13645684D02*
X16022425Y-13683779D01*
X16317663Y-13921874D02*
X16308139Y-13912350D01*
X16308139Y-13912350D02*
X16289091Y-13883779D01*
X16289091Y-13883779D02*
X16279568Y-13864731D01*
X16279568Y-13864731D02*
X16270044Y-13836160D01*
X16270044Y-13836160D02*
X16260520Y-13788541D01*
X16260520Y-13788541D02*
X16260520Y-13750446D01*
X16260520Y-13750446D02*
X16270044Y-13702827D01*
X16270044Y-13702827D02*
X16279568Y-13674255D01*
X16279568Y-13674255D02*
X16289091Y-13655208D01*
X16289091Y-13655208D02*
X16308139Y-13626636D01*
X16308139Y-13626636D02*
X16317663Y-13617112D01*
X16498615Y-13845684D02*
X16384329Y-13845684D01*
X16441472Y-13845684D02*
X16441472Y-13645684D01*
X16441472Y-13645684D02*
X16422425Y-13674255D01*
X16422425Y-13674255D02*
X16403377Y-13693303D01*
X16403377Y-13693303D02*
X16384329Y-13702827D01*
X16689091Y-13845684D02*
X16574806Y-13845684D01*
X16631948Y-13845684D02*
X16631948Y-13645684D01*
X16631948Y-13645684D02*
X16612901Y-13674255D01*
X16612901Y-13674255D02*
X16593853Y-13693303D01*
X16593853Y-13693303D02*
X16574806Y-13702827D01*
X16927187Y-13845684D02*
X16927187Y-13645684D01*
X17012901Y-13845684D02*
X17012901Y-13740922D01*
X17012901Y-13740922D02*
X17003377Y-13721874D01*
X17003377Y-13721874D02*
X16984330Y-13712350D01*
X16984330Y-13712350D02*
X16955758Y-13712350D01*
X16955758Y-13712350D02*
X16936711Y-13721874D01*
X16936711Y-13721874D02*
X16927187Y-13731398D01*
X17136711Y-13845684D02*
X17117663Y-13836160D01*
X17117663Y-13836160D02*
X17108139Y-13826636D01*
X17108139Y-13826636D02*
X17098615Y-13807588D01*
X17098615Y-13807588D02*
X17098615Y-13750446D01*
X17098615Y-13750446D02*
X17108139Y-13731398D01*
X17108139Y-13731398D02*
X17117663Y-13721874D01*
X17117663Y-13721874D02*
X17136711Y-13712350D01*
X17136711Y-13712350D02*
X17165282Y-13712350D01*
X17165282Y-13712350D02*
X17184330Y-13721874D01*
X17184330Y-13721874D02*
X17193853Y-13731398D01*
X17193853Y-13731398D02*
X17203377Y-13750446D01*
X17203377Y-13750446D02*
X17203377Y-13807588D01*
X17203377Y-13807588D02*
X17193853Y-13826636D01*
X17193853Y-13826636D02*
X17184330Y-13836160D01*
X17184330Y-13836160D02*
X17165282Y-13845684D01*
X17165282Y-13845684D02*
X17136711Y-13845684D01*
X17317663Y-13845684D02*
X17298615Y-13836160D01*
X17298615Y-13836160D02*
X17289092Y-13817112D01*
X17289092Y-13817112D02*
X17289092Y-13645684D01*
X17470044Y-13836160D02*
X17450996Y-13845684D01*
X17450996Y-13845684D02*
X17412901Y-13845684D01*
X17412901Y-13845684D02*
X17393853Y-13836160D01*
X17393853Y-13836160D02*
X17384330Y-13817112D01*
X17384330Y-13817112D02*
X17384330Y-13740922D01*
X17384330Y-13740922D02*
X17393853Y-13721874D01*
X17393853Y-13721874D02*
X17412901Y-13712350D01*
X17412901Y-13712350D02*
X17450996Y-13712350D01*
X17450996Y-13712350D02*
X17470044Y-13721874D01*
X17470044Y-13721874D02*
X17479568Y-13740922D01*
X17479568Y-13740922D02*
X17479568Y-13759969D01*
X17479568Y-13759969D02*
X17384330Y-13779017D01*
X17555758Y-13836160D02*
X17574806Y-13845684D01*
X17574806Y-13845684D02*
X17612901Y-13845684D01*
X17612901Y-13845684D02*
X17631949Y-13836160D01*
X17631949Y-13836160D02*
X17641473Y-13817112D01*
X17641473Y-13817112D02*
X17641473Y-13807588D01*
X17641473Y-13807588D02*
X17631949Y-13788541D01*
X17631949Y-13788541D02*
X17612901Y-13779017D01*
X17612901Y-13779017D02*
X17584330Y-13779017D01*
X17584330Y-13779017D02*
X17565282Y-13769493D01*
X17565282Y-13769493D02*
X17555758Y-13750446D01*
X17555758Y-13750446D02*
X17555758Y-13740922D01*
X17555758Y-13740922D02*
X17565282Y-13721874D01*
X17565282Y-13721874D02*
X17584330Y-13712350D01*
X17584330Y-13712350D02*
X17612901Y-13712350D01*
X17612901Y-13712350D02*
X17631949Y-13721874D01*
X17708139Y-13921874D02*
X17717663Y-13912350D01*
X17717663Y-13912350D02*
X17736711Y-13883779D01*
X17736711Y-13883779D02*
X17746234Y-13864731D01*
X17746234Y-13864731D02*
X17755758Y-13836160D01*
X17755758Y-13836160D02*
X17765282Y-13788541D01*
X17765282Y-13788541D02*
X17765282Y-13750446D01*
X17765282Y-13750446D02*
X17755758Y-13702827D01*
X17755758Y-13702827D02*
X17746234Y-13674255D01*
X17746234Y-13674255D02*
X17736711Y-13655208D01*
X17736711Y-13655208D02*
X17717663Y-13626636D01*
X17717663Y-13626636D02*
X17708139Y-13617112D01*
M02*
