%TF.GenerationSoftware,KiCad,Pcbnew,10.0.3*%
%TF.CreationDate,2026-09-01T16:16:07+05:30*%
%TF.ProjectId,Battery Circuit,42617474-6572-4792-9043-697263756974,rev?*%
%TF.SameCoordinates,Original*%
%TF.FileFunction,Copper,L3,Inr*%
%TF.FilePolarity,Positive*%
%FSLAX46Y46*%
G04 Gerber Fmt 4.6, Leading zero omitted, Abs format (unit mm)*
G04 Created by KiCad (PCBNEW 10.0.3) date 2026-09-01 16:16:07*
%MOMM*%
%LPD*%
G01*
G04 APERTURE LIST*
%TA.AperFunction,ComponentPad*%
%ADD10R,1.700000X1.700000*%
%TD*%
%TA.AperFunction,ComponentPad*%
%ADD11C,1.700000*%
%TD*%
%TA.AperFunction,ComponentPad*%
%ADD12R,1.350000X1.350000*%
%TD*%
%TA.AperFunction,ComponentPad*%
%ADD13C,1.350000*%
%TD*%
%TA.AperFunction,ViaPad*%
%ADD14C,0.600000*%
%TD*%
%TA.AperFunction,ViaPad*%
%ADD15C,0.500000*%
%TD*%
G04 APERTURE END LIST*
D10*
%TO.N,/+3V3*%
%TO.C,J2*%
X130500000Y-102350000D03*
D11*
%TO.N,/SWDIO*%
X130500000Y-99810000D03*
%TO.N,/SWCLK*%
X130500000Y-97270000D03*
%TO.N,GND*%
X130500000Y-94730000D03*
%TD*%
D12*
%TO.N,GND*%
%TO.C,J1*%
X138290500Y-94099000D03*
D13*
X140290500Y-94099000D03*
%TO.N,Net-(J1-Pad3)*%
X144290500Y-94099000D03*
%TO.N,Net-(J1-Pad4)*%
X146290500Y-94099000D03*
%TO.N,Net-(J1-Pad5)*%
X148290500Y-94099000D03*
%TO.N,/+4S_PROT*%
X150290500Y-94099000D03*
X152290500Y-94099000D03*
%TD*%
D14*
%TO.N,/+4S_SW*%
X133900000Y-118450000D03*
%TO.N,GND*%
X140150000Y-96150000D03*
X136100000Y-95600000D03*
%TO.N,/+4S_PROT*%
X154650000Y-96700000D03*
X157450000Y-104350000D03*
%TO.N,GND*%
X138250000Y-96350000D03*
%TO.N,/+4S_PROT*%
X154550000Y-94150000D03*
X154550000Y-108750000D03*
%TO.N,GND*%
X136800000Y-97100000D03*
X139050000Y-98000000D03*
D15*
%TO.N,Net-(U2-PA2)*%
X136200645Y-111848257D03*
X156250000Y-122600000D03*
%TO.N,/SWDIO*%
X132500000Y-105450000D03*
X132800000Y-100350000D03*
%TO.N,/SWCLK*%
X128650000Y-99800000D03*
X129900000Y-106900000D03*
D14*
%TO.N,GND*%
X139400000Y-105300000D03*
X140800000Y-105100000D03*
X137850000Y-103000000D03*
X136350000Y-116450000D03*
D15*
X136300000Y-108279708D03*
D14*
X151350000Y-106850000D03*
D15*
X142900000Y-124850000D03*
X128650000Y-124500000D03*
X132372978Y-114024658D03*
X156050000Y-120900000D03*
X132750000Y-109800000D03*
X155600000Y-118250000D03*
X135350000Y-106250000D03*
X154050000Y-115450000D03*
D14*
X134100000Y-105700000D03*
X142950000Y-105250000D03*
D15*
X133225735Y-113974265D03*
D14*
X159900000Y-101000000D03*
X161950000Y-95700000D03*
D15*
X134309785Y-114440000D03*
X154300000Y-112362390D03*
D14*
X160800000Y-100100000D03*
D15*
X136050000Y-121200000D03*
X151100000Y-122800000D03*
X143850000Y-125100000D03*
%TO.N,Net-(R9-Pad1)*%
X161600000Y-105950000D03*
X159800000Y-109250000D03*
%TO.N,Net-(Q1-G)*%
X159900000Y-110550000D03*
X162650000Y-109050000D03*
D14*
%TO.N,/+4S_PROT*%
X155600000Y-103200000D03*
%TO.N,/TEMP_SENSE*%
X134000000Y-104050000D03*
X135250000Y-105000000D03*
D15*
%TO.N,/LATCH_HOLD*%
X158150000Y-95350000D03*
X135700000Y-112337500D03*
%TO.N,Net-(U2-PA3)*%
X155750000Y-119450000D03*
X136250000Y-111150000D03*
%TO.N,Net-(U2-PA4)*%
X137384156Y-110164126D03*
X155400000Y-117500000D03*
%TO.N,Net-(U2-PA5)*%
X136737288Y-109896610D03*
X155750000Y-114150000D03*
%TO.N,Net-(U2-PA6)*%
X136300000Y-109350000D03*
X156100000Y-111500000D03*
%TO.N,Net-(U1-BOOT)*%
X136100000Y-127000000D03*
X138200000Y-123150000D03*
%TO.N,Net-(U1-SW)*%
X135935580Y-125695630D03*
X133250000Y-126300000D03*
%TD*%
%TA.AperFunction,Conductor*%
%TO.N,GND*%
G36*
X161009873Y-89281775D02*
G01*
X161055839Y-89334395D01*
X161066060Y-89403513D01*
X161037290Y-89467184D01*
X161030934Y-89474039D01*
X160933482Y-89571491D01*
X160794657Y-89762566D01*
X160687433Y-89973003D01*
X160614446Y-90197631D01*
X160577500Y-90430902D01*
X160577500Y-90667097D01*
X160614446Y-90900368D01*
X160687433Y-91124996D01*
X160763863Y-91274996D01*
X160794657Y-91335433D01*
X160933483Y-91526510D01*
X161100490Y-91693517D01*
X161291567Y-91832343D01*
X161390991Y-91883002D01*
X161502003Y-91939566D01*
X161502005Y-91939566D01*
X161502008Y-91939568D01*
X161622412Y-91978689D01*
X161726631Y-92012553D01*
X161959903Y-92049500D01*
X161959908Y-92049500D01*
X162196097Y-92049500D01*
X162429368Y-92012553D01*
X162653992Y-91939568D01*
X162864433Y-91832343D01*
X163055510Y-91693517D01*
X163187819Y-91561208D01*
X163249142Y-91527723D01*
X163318834Y-91532707D01*
X163374767Y-91574579D01*
X163399184Y-91640043D01*
X163399500Y-91648889D01*
X163399500Y-108438770D01*
X163379815Y-108505809D01*
X163327011Y-108551564D01*
X163257853Y-108561508D01*
X163194297Y-108532483D01*
X163187819Y-108526451D01*
X163128419Y-108467051D01*
X163128415Y-108467048D01*
X163005501Y-108384919D01*
X163005488Y-108384912D01*
X162868917Y-108328343D01*
X162868907Y-108328340D01*
X162723920Y-108299500D01*
X162723918Y-108299500D01*
X162576082Y-108299500D01*
X162576080Y-108299500D01*
X162431092Y-108328340D01*
X162431082Y-108328343D01*
X162294511Y-108384912D01*
X162294498Y-108384919D01*
X162171584Y-108467048D01*
X162171580Y-108467051D01*
X162067051Y-108571580D01*
X162067048Y-108571584D01*
X161984919Y-108694498D01*
X161984912Y-108694511D01*
X161928343Y-108831082D01*
X161928340Y-108831092D01*
X161899500Y-108976079D01*
X161899500Y-108976082D01*
X161899500Y-109123918D01*
X161899500Y-109123920D01*
X161899499Y-109123920D01*
X161928340Y-109268907D01*
X161928343Y-109268917D01*
X161984912Y-109405488D01*
X161984919Y-109405501D01*
X162067048Y-109528415D01*
X162067051Y-109528419D01*
X162171580Y-109632948D01*
X162171584Y-109632951D01*
X162294498Y-109715080D01*
X162294511Y-109715087D01*
X162418492Y-109766441D01*
X162431087Y-109771658D01*
X162431091Y-109771658D01*
X162431092Y-109771659D01*
X162576079Y-109800500D01*
X162576082Y-109800500D01*
X162723920Y-109800500D01*
X162821462Y-109781096D01*
X162868913Y-109771658D01*
X163005495Y-109715084D01*
X163128416Y-109632951D01*
X163155879Y-109605488D01*
X163187819Y-109573549D01*
X163249142Y-109540064D01*
X163318834Y-109545048D01*
X163374767Y-109586920D01*
X163399184Y-109652384D01*
X163399500Y-109661230D01*
X163399500Y-125449111D01*
X163379815Y-125516150D01*
X163327011Y-125561905D01*
X163257853Y-125571849D01*
X163194297Y-125542824D01*
X163187819Y-125536792D01*
X163055512Y-125404485D01*
X163055510Y-125404483D01*
X162864433Y-125265657D01*
X162850253Y-125258432D01*
X162653996Y-125158433D01*
X162429368Y-125085446D01*
X162196097Y-125048500D01*
X162196092Y-125048500D01*
X161959908Y-125048500D01*
X161959903Y-125048500D01*
X161726631Y-125085446D01*
X161502003Y-125158433D01*
X161291566Y-125265657D01*
X161189067Y-125340128D01*
X161100490Y-125404483D01*
X161100488Y-125404485D01*
X161100487Y-125404485D01*
X160933485Y-125571487D01*
X160933485Y-125571488D01*
X160933483Y-125571490D01*
X160893570Y-125626426D01*
X160794657Y-125762566D01*
X160687433Y-125973003D01*
X160614446Y-126197631D01*
X160577500Y-126430902D01*
X160577500Y-126667097D01*
X160614446Y-126900368D01*
X160687433Y-127124996D01*
X160794657Y-127335433D01*
X160933483Y-127526510D01*
X160933485Y-127526512D01*
X161056442Y-127649469D01*
X161089927Y-127710792D01*
X161084943Y-127780484D01*
X161043071Y-127836417D01*
X160977607Y-127860834D01*
X160969254Y-127861149D01*
X152202993Y-127896009D01*
X152135876Y-127876591D01*
X152089911Y-127823970D01*
X152078500Y-127772010D01*
X152078500Y-126133110D01*
X152078500Y-126133108D01*
X152044392Y-126005814D01*
X151978500Y-125891686D01*
X151885314Y-125798500D01*
X151823075Y-125762566D01*
X151771187Y-125732608D01*
X151707539Y-125715554D01*
X151643892Y-125698500D01*
X139643892Y-125698500D01*
X139512108Y-125698500D01*
X139384812Y-125732608D01*
X139270686Y-125798500D01*
X139270683Y-125798502D01*
X139177502Y-125891683D01*
X139177500Y-125891686D01*
X139111608Y-126005812D01*
X139077500Y-126133108D01*
X139077500Y-127825939D01*
X139057815Y-127892978D01*
X139005011Y-127938733D01*
X138953786Y-127949939D01*
X136377105Y-127955888D01*
X136310021Y-127936358D01*
X136264144Y-127883660D01*
X136254041Y-127814524D01*
X136282919Y-127750902D01*
X136329361Y-127717330D01*
X136455495Y-127665084D01*
X136578416Y-127582951D01*
X136682951Y-127478416D01*
X136765084Y-127355495D01*
X136821658Y-127218913D01*
X136850500Y-127073918D01*
X136850500Y-126926082D01*
X136850500Y-126926079D01*
X136821659Y-126781092D01*
X136821658Y-126781091D01*
X136821658Y-126781087D01*
X136815861Y-126767092D01*
X136765087Y-126644511D01*
X136765080Y-126644498D01*
X136682951Y-126521584D01*
X136682948Y-126521580D01*
X136578419Y-126417051D01*
X136578415Y-126417048D01*
X136522478Y-126379672D01*
X136477673Y-126326060D01*
X136468966Y-126256735D01*
X136499120Y-126193707D01*
X136503671Y-126188905D01*
X136518531Y-126174046D01*
X136600664Y-126051125D01*
X136657238Y-125914543D01*
X136686080Y-125769548D01*
X136686080Y-125621712D01*
X136686080Y-125621709D01*
X136657239Y-125476722D01*
X136657238Y-125476721D01*
X136657238Y-125476717D01*
X136611236Y-125365657D01*
X136600667Y-125340141D01*
X136600660Y-125340128D01*
X136518531Y-125217214D01*
X136518528Y-125217210D01*
X136413999Y-125112681D01*
X136413995Y-125112678D01*
X136291081Y-125030549D01*
X136291068Y-125030542D01*
X136154497Y-124973973D01*
X136154487Y-124973970D01*
X136009500Y-124945130D01*
X136009498Y-124945130D01*
X135861662Y-124945130D01*
X135861660Y-124945130D01*
X135716672Y-124973970D01*
X135716662Y-124973973D01*
X135580091Y-125030542D01*
X135580078Y-125030549D01*
X135457164Y-125112678D01*
X135457160Y-125112681D01*
X135352631Y-125217210D01*
X135352628Y-125217214D01*
X135270499Y-125340128D01*
X135270492Y-125340141D01*
X135213923Y-125476712D01*
X135213920Y-125476722D01*
X135185080Y-125621709D01*
X135185080Y-125621712D01*
X135185080Y-125769548D01*
X135185080Y-125769550D01*
X135185079Y-125769550D01*
X135213920Y-125914537D01*
X135213923Y-125914547D01*
X135270492Y-126051118D01*
X135270499Y-126051131D01*
X135352628Y-126174045D01*
X135352631Y-126174049D01*
X135457160Y-126278578D01*
X135457168Y-126278584D01*
X135513100Y-126315957D01*
X135557906Y-126369569D01*
X135566613Y-126438894D01*
X135536459Y-126501921D01*
X135531894Y-126506738D01*
X135517048Y-126521584D01*
X135434919Y-126644498D01*
X135434912Y-126644511D01*
X135378343Y-126781082D01*
X135378340Y-126781092D01*
X135349500Y-126926079D01*
X135349500Y-126926082D01*
X135349500Y-127073918D01*
X135349500Y-127073920D01*
X135349499Y-127073920D01*
X135378340Y-127218907D01*
X135378343Y-127218917D01*
X135434912Y-127355488D01*
X135434919Y-127355501D01*
X135517048Y-127478415D01*
X135517051Y-127478419D01*
X135621580Y-127582948D01*
X135621584Y-127582951D01*
X135744498Y-127665080D01*
X135744511Y-127665087D01*
X135813148Y-127693517D01*
X135873700Y-127718598D01*
X135928104Y-127762438D01*
X135950169Y-127828732D01*
X135932890Y-127896432D01*
X135881753Y-127944043D01*
X135826534Y-127957159D01*
X130378937Y-127969737D01*
X130311853Y-127950207D01*
X130265976Y-127897509D01*
X130255873Y-127828373D01*
X130284751Y-127764751D01*
X130290943Y-127758083D01*
X130422517Y-127626510D01*
X130561343Y-127435433D01*
X130668568Y-127224992D01*
X130741553Y-127000368D01*
X130747141Y-126965087D01*
X130778500Y-126767097D01*
X130778500Y-126530902D01*
X130753636Y-126373920D01*
X132499499Y-126373920D01*
X132528340Y-126518907D01*
X132528343Y-126518917D01*
X132584912Y-126655488D01*
X132584919Y-126655501D01*
X132667048Y-126778415D01*
X132667051Y-126778419D01*
X132771580Y-126882948D01*
X132771584Y-126882951D01*
X132894498Y-126965080D01*
X132894511Y-126965087D01*
X132979688Y-127000368D01*
X133031087Y-127021658D01*
X133031091Y-127021658D01*
X133031092Y-127021659D01*
X133176079Y-127050500D01*
X133176082Y-127050500D01*
X133323920Y-127050500D01*
X133421462Y-127031096D01*
X133468913Y-127021658D01*
X133605495Y-126965084D01*
X133728416Y-126882951D01*
X133832951Y-126778416D01*
X133915084Y-126655495D01*
X133971658Y-126518913D01*
X133981096Y-126471462D01*
X134000500Y-126373920D01*
X134000500Y-126226079D01*
X133971659Y-126081092D01*
X133971658Y-126081091D01*
X133971658Y-126081087D01*
X133959250Y-126051131D01*
X133915087Y-125944511D01*
X133915080Y-125944498D01*
X133832951Y-125821584D01*
X133832948Y-125821580D01*
X133728419Y-125717051D01*
X133728415Y-125717048D01*
X133605501Y-125634919D01*
X133605488Y-125634912D01*
X133468917Y-125578343D01*
X133468907Y-125578340D01*
X133323920Y-125549500D01*
X133323918Y-125549500D01*
X133176082Y-125549500D01*
X133176080Y-125549500D01*
X133031092Y-125578340D01*
X133031082Y-125578343D01*
X132894511Y-125634912D01*
X132894498Y-125634919D01*
X132771584Y-125717048D01*
X132771580Y-125717051D01*
X132667051Y-125821580D01*
X132667048Y-125821584D01*
X132584919Y-125944498D01*
X132584912Y-125944511D01*
X132528343Y-126081082D01*
X132528340Y-126081092D01*
X132499500Y-126226079D01*
X132499500Y-126226082D01*
X132499500Y-126373918D01*
X132499500Y-126373920D01*
X132499499Y-126373920D01*
X130753636Y-126373920D01*
X130741553Y-126297631D01*
X130728776Y-126258309D01*
X130709061Y-126197632D01*
X130668568Y-126073008D01*
X130668566Y-126073005D01*
X130668566Y-126073003D01*
X130612002Y-125961991D01*
X130561343Y-125862567D01*
X130422517Y-125671490D01*
X130255510Y-125504483D01*
X130064433Y-125365657D01*
X130014355Y-125340141D01*
X129853996Y-125258433D01*
X129629368Y-125185446D01*
X129396097Y-125148500D01*
X129396092Y-125148500D01*
X129159908Y-125148500D01*
X129159903Y-125148500D01*
X128926631Y-125185446D01*
X128702003Y-125258433D01*
X128491566Y-125365657D01*
X128300491Y-125504482D01*
X128165175Y-125639798D01*
X128103852Y-125673282D01*
X128034160Y-125668298D01*
X127978227Y-125626426D01*
X127953810Y-125560962D01*
X127953494Y-125552031D01*
X127953500Y-125542824D01*
X127955081Y-123223920D01*
X137449499Y-123223920D01*
X137478340Y-123368907D01*
X137478343Y-123368917D01*
X137534912Y-123505488D01*
X137534919Y-123505501D01*
X137617048Y-123628415D01*
X137617051Y-123628419D01*
X137721580Y-123732948D01*
X137721584Y-123732951D01*
X137844498Y-123815080D01*
X137844511Y-123815087D01*
X137981082Y-123871656D01*
X137981087Y-123871658D01*
X137981091Y-123871658D01*
X137981092Y-123871659D01*
X138126079Y-123900500D01*
X138126082Y-123900500D01*
X138273920Y-123900500D01*
X138371462Y-123881096D01*
X138418913Y-123871658D01*
X138555495Y-123815084D01*
X138678416Y-123732951D01*
X138782951Y-123628416D01*
X138865084Y-123505495D01*
X138921658Y-123368913D01*
X138942311Y-123265087D01*
X138950500Y-123223920D01*
X138950500Y-123076079D01*
X138921659Y-122931092D01*
X138921658Y-122931091D01*
X138921658Y-122931087D01*
X138875196Y-122818917D01*
X138865087Y-122794511D01*
X138865080Y-122794498D01*
X138784512Y-122673920D01*
X155499499Y-122673920D01*
X155528340Y-122818907D01*
X155528343Y-122818917D01*
X155584912Y-122955488D01*
X155584919Y-122955501D01*
X155667048Y-123078415D01*
X155667051Y-123078419D01*
X155771580Y-123182948D01*
X155771584Y-123182951D01*
X155894498Y-123265080D01*
X155894511Y-123265087D01*
X156031082Y-123321656D01*
X156031087Y-123321658D01*
X156031091Y-123321658D01*
X156031092Y-123321659D01*
X156176079Y-123350500D01*
X156176082Y-123350500D01*
X156323920Y-123350500D01*
X156421462Y-123331096D01*
X156468913Y-123321658D01*
X156605495Y-123265084D01*
X156728416Y-123182951D01*
X156832951Y-123078416D01*
X156915084Y-122955495D01*
X156971658Y-122818913D01*
X157000500Y-122673918D01*
X157000500Y-122526082D01*
X157000500Y-122526079D01*
X156971659Y-122381092D01*
X156971658Y-122381091D01*
X156971658Y-122381087D01*
X156971656Y-122381082D01*
X156915087Y-122244511D01*
X156915080Y-122244498D01*
X156832951Y-122121584D01*
X156832948Y-122121580D01*
X156728419Y-122017051D01*
X156728415Y-122017048D01*
X156605501Y-121934919D01*
X156605488Y-121934912D01*
X156468917Y-121878343D01*
X156468907Y-121878340D01*
X156323920Y-121849500D01*
X156323918Y-121849500D01*
X156176082Y-121849500D01*
X156176080Y-121849500D01*
X156031092Y-121878340D01*
X156031082Y-121878343D01*
X155894511Y-121934912D01*
X155894498Y-121934919D01*
X155771584Y-122017048D01*
X155771580Y-122017051D01*
X155667051Y-122121580D01*
X155667048Y-122121584D01*
X155584919Y-122244498D01*
X155584912Y-122244511D01*
X155528343Y-122381082D01*
X155528340Y-122381092D01*
X155499500Y-122526079D01*
X155499500Y-122526082D01*
X155499500Y-122673918D01*
X155499500Y-122673920D01*
X155499499Y-122673920D01*
X138784512Y-122673920D01*
X138782951Y-122671584D01*
X138782948Y-122671580D01*
X138678419Y-122567051D01*
X138678415Y-122567048D01*
X138555501Y-122484919D01*
X138555488Y-122484912D01*
X138418917Y-122428343D01*
X138418907Y-122428340D01*
X138273920Y-122399500D01*
X138273918Y-122399500D01*
X138126082Y-122399500D01*
X138126080Y-122399500D01*
X137981092Y-122428340D01*
X137981082Y-122428343D01*
X137844511Y-122484912D01*
X137844498Y-122484919D01*
X137721584Y-122567048D01*
X137721580Y-122567051D01*
X137617051Y-122671580D01*
X137617048Y-122671584D01*
X137534919Y-122794498D01*
X137534912Y-122794511D01*
X137478343Y-122931082D01*
X137478340Y-122931092D01*
X137449500Y-123076079D01*
X137449500Y-123076082D01*
X137449500Y-123223918D01*
X137449500Y-123223920D01*
X137449499Y-123223920D01*
X127955081Y-123223920D01*
X127957604Y-119523920D01*
X154999499Y-119523920D01*
X155028340Y-119668907D01*
X155028343Y-119668917D01*
X155084912Y-119805488D01*
X155084919Y-119805501D01*
X155167048Y-119928415D01*
X155167051Y-119928419D01*
X155271580Y-120032948D01*
X155271584Y-120032951D01*
X155394498Y-120115080D01*
X155394511Y-120115087D01*
X155531082Y-120171656D01*
X155531087Y-120171658D01*
X155531091Y-120171658D01*
X155531092Y-120171659D01*
X155676079Y-120200500D01*
X155676082Y-120200500D01*
X155823920Y-120200500D01*
X155921462Y-120181096D01*
X155968913Y-120171658D01*
X156105495Y-120115084D01*
X156228416Y-120032951D01*
X156332951Y-119928416D01*
X156415084Y-119805495D01*
X156471658Y-119668913D01*
X156500500Y-119523918D01*
X156500500Y-119376082D01*
X156500500Y-119376079D01*
X156471659Y-119231092D01*
X156471658Y-119231091D01*
X156471658Y-119231087D01*
X156441960Y-119159390D01*
X156415087Y-119094511D01*
X156415080Y-119094498D01*
X156332951Y-118971584D01*
X156332948Y-118971580D01*
X156228419Y-118867051D01*
X156228415Y-118867048D01*
X156105501Y-118784919D01*
X156105488Y-118784912D01*
X155968917Y-118728343D01*
X155968907Y-118728340D01*
X155823920Y-118699500D01*
X155823918Y-118699500D01*
X155676082Y-118699500D01*
X155676080Y-118699500D01*
X155531092Y-118728340D01*
X155531082Y-118728343D01*
X155394511Y-118784912D01*
X155394498Y-118784919D01*
X155271584Y-118867048D01*
X155271580Y-118867051D01*
X155167051Y-118971580D01*
X155167048Y-118971584D01*
X155084919Y-119094498D01*
X155084912Y-119094511D01*
X155028343Y-119231082D01*
X155028340Y-119231092D01*
X154999500Y-119376079D01*
X154999500Y-119376082D01*
X154999500Y-119523918D01*
X154999500Y-119523920D01*
X154999499Y-119523920D01*
X127957604Y-119523920D01*
X127958390Y-118371153D01*
X133099500Y-118371153D01*
X133099500Y-118528846D01*
X133130261Y-118683489D01*
X133130264Y-118683501D01*
X133190602Y-118829172D01*
X133190609Y-118829185D01*
X133278210Y-118960288D01*
X133278213Y-118960292D01*
X133389707Y-119071786D01*
X133389711Y-119071789D01*
X133520814Y-119159390D01*
X133520827Y-119159397D01*
X133624138Y-119202189D01*
X133666503Y-119219737D01*
X133821153Y-119250499D01*
X133821156Y-119250500D01*
X133821158Y-119250500D01*
X133978844Y-119250500D01*
X133978845Y-119250499D01*
X134133497Y-119219737D01*
X134279179Y-119159394D01*
X134410289Y-119071789D01*
X134521789Y-118960289D01*
X134609394Y-118829179D01*
X134669737Y-118683497D01*
X134700500Y-118528842D01*
X134700500Y-118371158D01*
X134700500Y-118371155D01*
X134700499Y-118371153D01*
X134676499Y-118250500D01*
X134669737Y-118216503D01*
X134648437Y-118165080D01*
X134609397Y-118070827D01*
X134609390Y-118070814D01*
X134521789Y-117939711D01*
X134521786Y-117939707D01*
X134410292Y-117828213D01*
X134410288Y-117828210D01*
X134279185Y-117740609D01*
X134279172Y-117740602D01*
X134133501Y-117680264D01*
X134133489Y-117680261D01*
X133978845Y-117649500D01*
X133978842Y-117649500D01*
X133821158Y-117649500D01*
X133821155Y-117649500D01*
X133666510Y-117680261D01*
X133666498Y-117680264D01*
X133520827Y-117740602D01*
X133520814Y-117740609D01*
X133389711Y-117828210D01*
X133389707Y-117828213D01*
X133278213Y-117939707D01*
X133278210Y-117939711D01*
X133190609Y-118070814D01*
X133190602Y-118070827D01*
X133130264Y-118216498D01*
X133130261Y-118216510D01*
X133099500Y-118371153D01*
X127958390Y-118371153D01*
X127962453Y-112411420D01*
X134949499Y-112411420D01*
X134978340Y-112556407D01*
X134978343Y-112556417D01*
X135034912Y-112692988D01*
X135034919Y-112693001D01*
X135117048Y-112815915D01*
X135117051Y-112815919D01*
X135221580Y-112920448D01*
X135221584Y-112920451D01*
X135344498Y-113002580D01*
X135344511Y-113002587D01*
X135481082Y-113059156D01*
X135481087Y-113059158D01*
X135481091Y-113059158D01*
X135481092Y-113059159D01*
X135626079Y-113088000D01*
X135626082Y-113088000D01*
X135773920Y-113088000D01*
X135871462Y-113068596D01*
X135918913Y-113059158D01*
X136055495Y-113002584D01*
X136178416Y-112920451D01*
X136282951Y-112815916D01*
X136365084Y-112692995D01*
X136395686Y-112619113D01*
X136439525Y-112564712D01*
X136462794Y-112552006D01*
X136556133Y-112513344D01*
X136556133Y-112513343D01*
X136556140Y-112513341D01*
X136679061Y-112431208D01*
X136783596Y-112326673D01*
X136865729Y-112203752D01*
X136922303Y-112067170D01*
X136951145Y-111922175D01*
X136951145Y-111774339D01*
X136951145Y-111774336D01*
X136922304Y-111629349D01*
X136922303Y-111629348D01*
X136922303Y-111629344D01*
X136912691Y-111606140D01*
X136909657Y-111577916D01*
X136903544Y-111550198D01*
X136905828Y-111542305D01*
X136905223Y-111536673D01*
X136910947Y-111515689D01*
X136914259Y-111506728D01*
X136915084Y-111505495D01*
X136969920Y-111373108D01*
X138167500Y-111373108D01*
X138167500Y-119074892D01*
X138172755Y-119094505D01*
X138201608Y-119202187D01*
X138218291Y-119231082D01*
X138267500Y-119316314D01*
X138360686Y-119409500D01*
X138474814Y-119475392D01*
X138602108Y-119509500D01*
X138602110Y-119509500D01*
X153003890Y-119509500D01*
X153003892Y-119509500D01*
X153131186Y-119475392D01*
X153245314Y-119409500D01*
X153338500Y-119316314D01*
X153404392Y-119202186D01*
X153438500Y-119074892D01*
X153438500Y-117573920D01*
X154649499Y-117573920D01*
X154678340Y-117718907D01*
X154678343Y-117718917D01*
X154734912Y-117855488D01*
X154734919Y-117855501D01*
X154817048Y-117978415D01*
X154817051Y-117978419D01*
X154921580Y-118082948D01*
X154921584Y-118082951D01*
X155044498Y-118165080D01*
X155044511Y-118165087D01*
X155181082Y-118221656D01*
X155181087Y-118221658D01*
X155181091Y-118221658D01*
X155181092Y-118221659D01*
X155326079Y-118250500D01*
X155326082Y-118250500D01*
X155473920Y-118250500D01*
X155571462Y-118231096D01*
X155618913Y-118221658D01*
X155755495Y-118165084D01*
X155878416Y-118082951D01*
X155982951Y-117978416D01*
X156065084Y-117855495D01*
X156121658Y-117718913D01*
X156131096Y-117671462D01*
X156150500Y-117573920D01*
X156150500Y-117426079D01*
X156121659Y-117281092D01*
X156121658Y-117281091D01*
X156121658Y-117281087D01*
X156121656Y-117281082D01*
X156065087Y-117144511D01*
X156065080Y-117144498D01*
X155982951Y-117021584D01*
X155982948Y-117021580D01*
X155878419Y-116917051D01*
X155878415Y-116917048D01*
X155755501Y-116834919D01*
X155755488Y-116834912D01*
X155618917Y-116778343D01*
X155618907Y-116778340D01*
X155473920Y-116749500D01*
X155473918Y-116749500D01*
X155326082Y-116749500D01*
X155326080Y-116749500D01*
X155181092Y-116778340D01*
X155181082Y-116778343D01*
X155044511Y-116834912D01*
X155044498Y-116834919D01*
X154921584Y-116917048D01*
X154921580Y-116917051D01*
X154817051Y-117021580D01*
X154817048Y-117021584D01*
X154734919Y-117144498D01*
X154734912Y-117144511D01*
X154678343Y-117281082D01*
X154678340Y-117281092D01*
X154649500Y-117426079D01*
X154649500Y-117426082D01*
X154649500Y-117573918D01*
X154649500Y-117573920D01*
X154649499Y-117573920D01*
X153438500Y-117573920D01*
X153438500Y-114223920D01*
X154999499Y-114223920D01*
X155028340Y-114368907D01*
X155028343Y-114368917D01*
X155084912Y-114505488D01*
X155084919Y-114505501D01*
X155167048Y-114628415D01*
X155167051Y-114628419D01*
X155271580Y-114732948D01*
X155271584Y-114732951D01*
X155394498Y-114815080D01*
X155394511Y-114815087D01*
X155531082Y-114871656D01*
X155531087Y-114871658D01*
X155531091Y-114871658D01*
X155531092Y-114871659D01*
X155676079Y-114900500D01*
X155676082Y-114900500D01*
X155823920Y-114900500D01*
X155921462Y-114881096D01*
X155968913Y-114871658D01*
X156105495Y-114815084D01*
X156228416Y-114732951D01*
X156332951Y-114628416D01*
X156415084Y-114505495D01*
X156471658Y-114368913D01*
X156500500Y-114223918D01*
X156500500Y-114076082D01*
X156500500Y-114076079D01*
X156471659Y-113931092D01*
X156471658Y-113931091D01*
X156471658Y-113931087D01*
X156471656Y-113931082D01*
X156415087Y-113794511D01*
X156415080Y-113794498D01*
X156332951Y-113671584D01*
X156332948Y-113671580D01*
X156228419Y-113567051D01*
X156228415Y-113567048D01*
X156105501Y-113484919D01*
X156105488Y-113484912D01*
X155968917Y-113428343D01*
X155968907Y-113428340D01*
X155823920Y-113399500D01*
X155823918Y-113399500D01*
X155676082Y-113399500D01*
X155676080Y-113399500D01*
X155531092Y-113428340D01*
X155531082Y-113428343D01*
X155394511Y-113484912D01*
X155394498Y-113484919D01*
X155271584Y-113567048D01*
X155271580Y-113567051D01*
X155167051Y-113671580D01*
X155167048Y-113671584D01*
X155084919Y-113794498D01*
X155084912Y-113794511D01*
X155028343Y-113931082D01*
X155028340Y-113931092D01*
X154999500Y-114076079D01*
X154999500Y-114076082D01*
X154999500Y-114223918D01*
X154999500Y-114223920D01*
X154999499Y-114223920D01*
X153438500Y-114223920D01*
X153438500Y-111573920D01*
X155349499Y-111573920D01*
X155378340Y-111718907D01*
X155378343Y-111718917D01*
X155434912Y-111855488D01*
X155434919Y-111855501D01*
X155517048Y-111978415D01*
X155517051Y-111978419D01*
X155621580Y-112082948D01*
X155621584Y-112082951D01*
X155744498Y-112165080D01*
X155744511Y-112165087D01*
X155837872Y-112203758D01*
X155881087Y-112221658D01*
X155881091Y-112221658D01*
X155881092Y-112221659D01*
X156026079Y-112250500D01*
X156026082Y-112250500D01*
X156173920Y-112250500D01*
X156271462Y-112231096D01*
X156318913Y-112221658D01*
X156455495Y-112165084D01*
X156578416Y-112082951D01*
X156682951Y-111978416D01*
X156765084Y-111855495D01*
X156821658Y-111718913D01*
X156842161Y-111615842D01*
X156850500Y-111573920D01*
X156850500Y-111426079D01*
X156821659Y-111281092D01*
X156821658Y-111281091D01*
X156821658Y-111281087D01*
X156817752Y-111271656D01*
X156765087Y-111144511D01*
X156765080Y-111144498D01*
X156682951Y-111021584D01*
X156682948Y-111021580D01*
X156578419Y-110917051D01*
X156578415Y-110917048D01*
X156455501Y-110834919D01*
X156455488Y-110834912D01*
X156318917Y-110778343D01*
X156318907Y-110778340D01*
X156173920Y-110749500D01*
X156173918Y-110749500D01*
X156026082Y-110749500D01*
X156026080Y-110749500D01*
X155881092Y-110778340D01*
X155881082Y-110778343D01*
X155744511Y-110834912D01*
X155744498Y-110834919D01*
X155621584Y-110917048D01*
X155621580Y-110917051D01*
X155517051Y-111021580D01*
X155517048Y-111021584D01*
X155434919Y-111144498D01*
X155434912Y-111144511D01*
X155378343Y-111281082D01*
X155378340Y-111281092D01*
X155349500Y-111426079D01*
X155349500Y-111426082D01*
X155349500Y-111573918D01*
X155349500Y-111573920D01*
X155349499Y-111573920D01*
X153438500Y-111573920D01*
X153438500Y-111373108D01*
X153404392Y-111245814D01*
X153338500Y-111131686D01*
X153245314Y-111038500D01*
X153188250Y-111005554D01*
X153131187Y-110972608D01*
X153055279Y-110952269D01*
X153003892Y-110938500D01*
X138733892Y-110938500D01*
X138602108Y-110938500D01*
X138474812Y-110972608D01*
X138360686Y-111038500D01*
X138360683Y-111038502D01*
X138267502Y-111131683D01*
X138267500Y-111131686D01*
X138201608Y-111245812D01*
X138192155Y-111281092D01*
X138167500Y-111373108D01*
X136969920Y-111373108D01*
X136971658Y-111368913D01*
X136989128Y-111281092D01*
X137000500Y-111223920D01*
X137000500Y-111076079D01*
X136989715Y-111021861D01*
X136995942Y-110952269D01*
X137038805Y-110897092D01*
X137104694Y-110873847D01*
X137158788Y-110883110D01*
X137165243Y-110885784D01*
X137165247Y-110885784D01*
X137165248Y-110885785D01*
X137310235Y-110914626D01*
X137310238Y-110914626D01*
X137458076Y-110914626D01*
X137555618Y-110895222D01*
X137603069Y-110885784D01*
X137725868Y-110834919D01*
X137739644Y-110829213D01*
X137739644Y-110829212D01*
X137739651Y-110829210D01*
X137862572Y-110747077D01*
X137967107Y-110642542D01*
X138049240Y-110519621D01*
X138105814Y-110383039D01*
X138134656Y-110238044D01*
X138134656Y-110090208D01*
X138134656Y-110090205D01*
X138105815Y-109945218D01*
X138105814Y-109945217D01*
X138105814Y-109945213D01*
X138080838Y-109884916D01*
X138049243Y-109808637D01*
X138049236Y-109808624D01*
X137967107Y-109685710D01*
X137967104Y-109685706D01*
X137862575Y-109581177D01*
X137862571Y-109581174D01*
X137739657Y-109499045D01*
X137739644Y-109499038D01*
X137603073Y-109442469D01*
X137603063Y-109442466D01*
X137458076Y-109413626D01*
X137458074Y-109413626D01*
X137367033Y-109413626D01*
X137299994Y-109393941D01*
X137279356Y-109377311D01*
X137215704Y-109313659D01*
X137215703Y-109313658D01*
X137215702Y-109313657D01*
X137092789Y-109231529D01*
X137087413Y-109228656D01*
X137088726Y-109226198D01*
X137043651Y-109189639D01*
X137024112Y-109143426D01*
X137021659Y-109131091D01*
X137021656Y-109131082D01*
X136965087Y-108994511D01*
X136965080Y-108994498D01*
X136882951Y-108871584D01*
X136882948Y-108871580D01*
X136778419Y-108767051D01*
X136778416Y-108767049D01*
X136655501Y-108684919D01*
X136655488Y-108684912D01*
X136622271Y-108671153D01*
X153749500Y-108671153D01*
X153749500Y-108828846D01*
X153780261Y-108983489D01*
X153780264Y-108983501D01*
X153840602Y-109129172D01*
X153840609Y-109129185D01*
X153928210Y-109260288D01*
X153928213Y-109260292D01*
X154039707Y-109371786D01*
X154039711Y-109371789D01*
X154170814Y-109459390D01*
X154170827Y-109459397D01*
X154316498Y-109519735D01*
X154316503Y-109519737D01*
X154471153Y-109550499D01*
X154471156Y-109550500D01*
X154471158Y-109550500D01*
X154628844Y-109550500D01*
X154628845Y-109550499D01*
X154783497Y-109519737D01*
X154929179Y-109459394D01*
X155060289Y-109371789D01*
X155108158Y-109323920D01*
X159049499Y-109323920D01*
X159078340Y-109468907D01*
X159078343Y-109468917D01*
X159134912Y-109605488D01*
X159134919Y-109605501D01*
X159217048Y-109728415D01*
X159217051Y-109728419D01*
X159321580Y-109832948D01*
X159321586Y-109832953D01*
X159336285Y-109842775D01*
X159381090Y-109896388D01*
X159389796Y-109965713D01*
X159359640Y-110028740D01*
X159355075Y-110033556D01*
X159317052Y-110071579D01*
X159317048Y-110071584D01*
X159234919Y-110194498D01*
X159234912Y-110194511D01*
X159178343Y-110331082D01*
X159178340Y-110331092D01*
X159149500Y-110476079D01*
X159149500Y-110476082D01*
X159149500Y-110623918D01*
X159149500Y-110623920D01*
X159149499Y-110623920D01*
X159178340Y-110768907D01*
X159178343Y-110768917D01*
X159234912Y-110905488D01*
X159234919Y-110905501D01*
X159317048Y-111028415D01*
X159317051Y-111028419D01*
X159421580Y-111132948D01*
X159421584Y-111132951D01*
X159544498Y-111215080D01*
X159544511Y-111215087D01*
X159681082Y-111271656D01*
X159681087Y-111271658D01*
X159681091Y-111271658D01*
X159681092Y-111271659D01*
X159826079Y-111300500D01*
X159826082Y-111300500D01*
X159973920Y-111300500D01*
X160071537Y-111281082D01*
X160118913Y-111271658D01*
X160255495Y-111215084D01*
X160378416Y-111132951D01*
X160482951Y-111028416D01*
X160565084Y-110905495D01*
X160621658Y-110768913D01*
X160639398Y-110679732D01*
X160650500Y-110623920D01*
X160650500Y-110476079D01*
X160621659Y-110331092D01*
X160621658Y-110331091D01*
X160621658Y-110331087D01*
X160621432Y-110330542D01*
X160565087Y-110194511D01*
X160565080Y-110194498D01*
X160482951Y-110071584D01*
X160482948Y-110071580D01*
X160378419Y-109967051D01*
X160378414Y-109967047D01*
X160363712Y-109957223D01*
X160318909Y-109903610D01*
X160310203Y-109834285D01*
X160340360Y-109771258D01*
X160344926Y-109766441D01*
X160382948Y-109728419D01*
X160382951Y-109728416D01*
X160465084Y-109605495D01*
X160521658Y-109468913D01*
X160550500Y-109323918D01*
X160550500Y-109176082D01*
X160550500Y-109176079D01*
X160521659Y-109031092D01*
X160521658Y-109031091D01*
X160521658Y-109031087D01*
X160506505Y-108994505D01*
X160465087Y-108894511D01*
X160465080Y-108894498D01*
X160382951Y-108771584D01*
X160382948Y-108771580D01*
X160278419Y-108667051D01*
X160278415Y-108667048D01*
X160155501Y-108584919D01*
X160155488Y-108584912D01*
X160018917Y-108528343D01*
X160018907Y-108528340D01*
X159873920Y-108499500D01*
X159873918Y-108499500D01*
X159726082Y-108499500D01*
X159726080Y-108499500D01*
X159581092Y-108528340D01*
X159581082Y-108528343D01*
X159444511Y-108584912D01*
X159444498Y-108584919D01*
X159321584Y-108667048D01*
X159321580Y-108667051D01*
X159217051Y-108771580D01*
X159217048Y-108771584D01*
X159134919Y-108894498D01*
X159134912Y-108894511D01*
X159078343Y-109031082D01*
X159078340Y-109031092D01*
X159049500Y-109176079D01*
X159049500Y-109176082D01*
X159049500Y-109323918D01*
X159049500Y-109323920D01*
X159049499Y-109323920D01*
X155108158Y-109323920D01*
X155171789Y-109260289D01*
X155259394Y-109129179D01*
X155319737Y-108983497D01*
X155350500Y-108828842D01*
X155350500Y-108671158D01*
X155350500Y-108671155D01*
X155350499Y-108671153D01*
X155349682Y-108667048D01*
X155319737Y-108516503D01*
X155319735Y-108516498D01*
X155259397Y-108370827D01*
X155259390Y-108370814D01*
X155171789Y-108239711D01*
X155171786Y-108239707D01*
X155060292Y-108128213D01*
X155060288Y-108128210D01*
X154929185Y-108040609D01*
X154929172Y-108040602D01*
X154783501Y-107980264D01*
X154783489Y-107980261D01*
X154628845Y-107949500D01*
X154628842Y-107949500D01*
X154471158Y-107949500D01*
X154471155Y-107949500D01*
X154316510Y-107980261D01*
X154316498Y-107980264D01*
X154170827Y-108040602D01*
X154170814Y-108040609D01*
X154039711Y-108128210D01*
X154039707Y-108128213D01*
X153928213Y-108239707D01*
X153928210Y-108239711D01*
X153840609Y-108370814D01*
X153840602Y-108370827D01*
X153780264Y-108516498D01*
X153780261Y-108516510D01*
X153749500Y-108671153D01*
X136622271Y-108671153D01*
X136518917Y-108628343D01*
X136518907Y-108628340D01*
X136373920Y-108599500D01*
X136373918Y-108599500D01*
X136226082Y-108599500D01*
X136226080Y-108599500D01*
X136081092Y-108628340D01*
X136081082Y-108628343D01*
X135944511Y-108684912D01*
X135944498Y-108684919D01*
X135821584Y-108767048D01*
X135821580Y-108767051D01*
X135717051Y-108871580D01*
X135717048Y-108871584D01*
X135634919Y-108994498D01*
X135634912Y-108994511D01*
X135578343Y-109131082D01*
X135578340Y-109131092D01*
X135549500Y-109276079D01*
X135549500Y-109276082D01*
X135549500Y-109423918D01*
X135549500Y-109423920D01*
X135549499Y-109423920D01*
X135578340Y-109568907D01*
X135578343Y-109568917D01*
X135634912Y-109705488D01*
X135634919Y-109705501D01*
X135717048Y-109828415D01*
X135717051Y-109828419D01*
X135821580Y-109932948D01*
X135821588Y-109932954D01*
X135944494Y-110015077D01*
X135944496Y-110015078D01*
X135944505Y-110015084D01*
X135944514Y-110015087D01*
X135949876Y-110017954D01*
X135948508Y-110020512D01*
X135993291Y-110056474D01*
X136006720Y-110081397D01*
X136010948Y-110091991D01*
X136015630Y-110115523D01*
X136072204Y-110252105D01*
X136078810Y-110261992D01*
X136083639Y-110274088D01*
X136085750Y-110296434D01*
X136092455Y-110317851D01*
X136088972Y-110330542D01*
X136090211Y-110343648D01*
X136079906Y-110363587D01*
X136073968Y-110385230D01*
X136064176Y-110394024D01*
X136058133Y-110405718D01*
X136038684Y-110416921D01*
X136021987Y-110431918D01*
X136015928Y-110434620D01*
X135894508Y-110484914D01*
X135894498Y-110484919D01*
X135771584Y-110567048D01*
X135771580Y-110567051D01*
X135667051Y-110671580D01*
X135667048Y-110671584D01*
X135584919Y-110794498D01*
X135584912Y-110794511D01*
X135528343Y-110931082D01*
X135528340Y-110931092D01*
X135499500Y-111076079D01*
X135499500Y-111076082D01*
X135499500Y-111223918D01*
X135499500Y-111223920D01*
X135499499Y-111223920D01*
X135528340Y-111368906D01*
X135528341Y-111368909D01*
X135528342Y-111368913D01*
X135537251Y-111390423D01*
X135537954Y-111392119D01*
X135541234Y-111422639D01*
X135546678Y-111452842D01*
X135545052Y-111458173D01*
X135545420Y-111461589D01*
X135537945Y-111487039D01*
X135535593Y-111492713D01*
X135535561Y-111492762D01*
X135506558Y-111562778D01*
X135504950Y-111566661D01*
X135481396Y-111595878D01*
X135461114Y-111621047D01*
X135461103Y-111621052D01*
X135461100Y-111621057D01*
X135461088Y-111621060D01*
X135437849Y-111633751D01*
X135344508Y-111672414D01*
X135344498Y-111672419D01*
X135221584Y-111754548D01*
X135221580Y-111754551D01*
X135117051Y-111859080D01*
X135117048Y-111859084D01*
X135034919Y-111981998D01*
X135034912Y-111982011D01*
X134978343Y-112118582D01*
X134978340Y-112118592D01*
X134949500Y-112263579D01*
X134949500Y-112263582D01*
X134949500Y-112411418D01*
X134949500Y-112411420D01*
X134949499Y-112411420D01*
X127962453Y-112411420D01*
X127966160Y-106973920D01*
X129149499Y-106973920D01*
X129178340Y-107118907D01*
X129178343Y-107118917D01*
X129234912Y-107255488D01*
X129234919Y-107255501D01*
X129317048Y-107378415D01*
X129317051Y-107378419D01*
X129421580Y-107482948D01*
X129421584Y-107482951D01*
X129544498Y-107565080D01*
X129544511Y-107565087D01*
X129681082Y-107621656D01*
X129681087Y-107621658D01*
X129681091Y-107621658D01*
X129681092Y-107621659D01*
X129826079Y-107650500D01*
X129826082Y-107650500D01*
X129973920Y-107650500D01*
X130071462Y-107631096D01*
X130118913Y-107621658D01*
X130255495Y-107565084D01*
X130378416Y-107482951D01*
X130482951Y-107378416D01*
X130565084Y-107255495D01*
X130621658Y-107118913D01*
X130650500Y-106973918D01*
X130650500Y-106826082D01*
X130650500Y-106826079D01*
X130621659Y-106681092D01*
X130621658Y-106681091D01*
X130621658Y-106681087D01*
X130594317Y-106615080D01*
X130565087Y-106544511D01*
X130565080Y-106544498D01*
X130482951Y-106421584D01*
X130482948Y-106421580D01*
X130378419Y-106317051D01*
X130378415Y-106317048D01*
X130255501Y-106234919D01*
X130255488Y-106234912D01*
X130118917Y-106178343D01*
X130118907Y-106178340D01*
X129973920Y-106149500D01*
X129973918Y-106149500D01*
X129826082Y-106149500D01*
X129826080Y-106149500D01*
X129681092Y-106178340D01*
X129681082Y-106178343D01*
X129544511Y-106234912D01*
X129544498Y-106234919D01*
X129421584Y-106317048D01*
X129421580Y-106317051D01*
X129317051Y-106421580D01*
X129317048Y-106421584D01*
X129234919Y-106544498D01*
X129234912Y-106544511D01*
X129178343Y-106681082D01*
X129178340Y-106681092D01*
X129149500Y-106826079D01*
X129149500Y-106826082D01*
X129149500Y-106973918D01*
X129149500Y-106973920D01*
X129149499Y-106973920D01*
X127966160Y-106973920D01*
X127967149Y-105523920D01*
X131749499Y-105523920D01*
X131778340Y-105668907D01*
X131778343Y-105668917D01*
X131834912Y-105805488D01*
X131834919Y-105805501D01*
X131917048Y-105928415D01*
X131917051Y-105928419D01*
X132021580Y-106032948D01*
X132021584Y-106032951D01*
X132144498Y-106115080D01*
X132144511Y-106115087D01*
X132281082Y-106171656D01*
X132281087Y-106171658D01*
X132281091Y-106171658D01*
X132281092Y-106171659D01*
X132426079Y-106200500D01*
X132426082Y-106200500D01*
X132573920Y-106200500D01*
X132685321Y-106178340D01*
X132718913Y-106171658D01*
X132855495Y-106115084D01*
X132978416Y-106032951D01*
X132987447Y-106023920D01*
X160849499Y-106023920D01*
X160878340Y-106168907D01*
X160878343Y-106168917D01*
X160934912Y-106305488D01*
X160934919Y-106305501D01*
X161017048Y-106428415D01*
X161017051Y-106428419D01*
X161121580Y-106532948D01*
X161121584Y-106532951D01*
X161244498Y-106615080D01*
X161244511Y-106615087D01*
X161381082Y-106671656D01*
X161381087Y-106671658D01*
X161381091Y-106671658D01*
X161381092Y-106671659D01*
X161526079Y-106700500D01*
X161526082Y-106700500D01*
X161673920Y-106700500D01*
X161771537Y-106681082D01*
X161818913Y-106671658D01*
X161955495Y-106615084D01*
X162078416Y-106532951D01*
X162182951Y-106428416D01*
X162265084Y-106305495D01*
X162321658Y-106168913D01*
X162332366Y-106115080D01*
X162350500Y-106023920D01*
X162350500Y-105876079D01*
X162321659Y-105731092D01*
X162321658Y-105731091D01*
X162321658Y-105731087D01*
X162312674Y-105709397D01*
X162265087Y-105594511D01*
X162265080Y-105594498D01*
X162182951Y-105471584D01*
X162182948Y-105471580D01*
X162078419Y-105367051D01*
X162078415Y-105367048D01*
X161955501Y-105284919D01*
X161955488Y-105284912D01*
X161818917Y-105228343D01*
X161818907Y-105228340D01*
X161673920Y-105199500D01*
X161673918Y-105199500D01*
X161526082Y-105199500D01*
X161526080Y-105199500D01*
X161381092Y-105228340D01*
X161381082Y-105228343D01*
X161244511Y-105284912D01*
X161244498Y-105284919D01*
X161121584Y-105367048D01*
X161121580Y-105367051D01*
X161017051Y-105471580D01*
X161017048Y-105471584D01*
X160934919Y-105594498D01*
X160934912Y-105594511D01*
X160878343Y-105731082D01*
X160878340Y-105731092D01*
X160849500Y-105876079D01*
X160849500Y-105876082D01*
X160849500Y-106023918D01*
X160849500Y-106023920D01*
X160849499Y-106023920D01*
X132987447Y-106023920D01*
X133082951Y-105928416D01*
X133165084Y-105805495D01*
X133221658Y-105668913D01*
X133236459Y-105594505D01*
X133250500Y-105523920D01*
X133250500Y-105376079D01*
X133221659Y-105231092D01*
X133221658Y-105231091D01*
X133221658Y-105231087D01*
X133188278Y-105150500D01*
X133165087Y-105094511D01*
X133165080Y-105094498D01*
X133082951Y-104971584D01*
X133082948Y-104971580D01*
X132978419Y-104867051D01*
X132978415Y-104867048D01*
X132855501Y-104784919D01*
X132855488Y-104784912D01*
X132718917Y-104728343D01*
X132718907Y-104728340D01*
X132573920Y-104699500D01*
X132573918Y-104699500D01*
X132426082Y-104699500D01*
X132426080Y-104699500D01*
X132281092Y-104728340D01*
X132281082Y-104728343D01*
X132144511Y-104784912D01*
X132144498Y-104784919D01*
X132021584Y-104867048D01*
X132021580Y-104867051D01*
X131917051Y-104971580D01*
X131917048Y-104971584D01*
X131834919Y-105094498D01*
X131834912Y-105094511D01*
X131778343Y-105231082D01*
X131778340Y-105231092D01*
X131749500Y-105376079D01*
X131749500Y-105376082D01*
X131749500Y-105523918D01*
X131749500Y-105523920D01*
X131749499Y-105523920D01*
X127967149Y-105523920D01*
X127968208Y-103971153D01*
X133199500Y-103971153D01*
X133199500Y-104128846D01*
X133230261Y-104283489D01*
X133230264Y-104283501D01*
X133290602Y-104429172D01*
X133290609Y-104429185D01*
X133378210Y-104560288D01*
X133378213Y-104560292D01*
X133489707Y-104671786D01*
X133489711Y-104671789D01*
X133620814Y-104759390D01*
X133620827Y-104759397D01*
X133766498Y-104819735D01*
X133766503Y-104819737D01*
X133921153Y-104850499D01*
X133921156Y-104850500D01*
X133921158Y-104850500D01*
X134078844Y-104850500D01*
X134078845Y-104850499D01*
X134233497Y-104819737D01*
X134278050Y-104801282D01*
X134347515Y-104793814D01*
X134409995Y-104825088D01*
X134445648Y-104885177D01*
X134449500Y-104915844D01*
X134449500Y-105078846D01*
X134480261Y-105233489D01*
X134480264Y-105233501D01*
X134540602Y-105379172D01*
X134540609Y-105379185D01*
X134628210Y-105510288D01*
X134628213Y-105510292D01*
X134739707Y-105621786D01*
X134739711Y-105621789D01*
X134870814Y-105709390D01*
X134870827Y-105709397D01*
X134981960Y-105755429D01*
X135016503Y-105769737D01*
X135171153Y-105800499D01*
X135171156Y-105800500D01*
X135171158Y-105800500D01*
X135328844Y-105800500D01*
X135328845Y-105800499D01*
X135483497Y-105769737D01*
X135497827Y-105763801D01*
X135518041Y-105755429D01*
X135629172Y-105709397D01*
X135629172Y-105709396D01*
X135629179Y-105709394D01*
X135760289Y-105621789D01*
X135871789Y-105510289D01*
X135959394Y-105379179D01*
X136019737Y-105233497D01*
X136050500Y-105078842D01*
X136050500Y-104921158D01*
X136050500Y-104921155D01*
X136050499Y-104921153D01*
X136030326Y-104819737D01*
X136019737Y-104766503D01*
X136016791Y-104759390D01*
X135959397Y-104620827D01*
X135959390Y-104620814D01*
X135871789Y-104489711D01*
X135871786Y-104489707D01*
X135760289Y-104378210D01*
X135745259Y-104368168D01*
X135629185Y-104290609D01*
X135629172Y-104290602D01*
X135582217Y-104271153D01*
X156649500Y-104271153D01*
X156649500Y-104428846D01*
X156680261Y-104583489D01*
X156680264Y-104583501D01*
X156740602Y-104729172D01*
X156740609Y-104729185D01*
X156828210Y-104860288D01*
X156828213Y-104860292D01*
X156939707Y-104971786D01*
X156939711Y-104971789D01*
X157070814Y-105059390D01*
X157070827Y-105059397D01*
X157216498Y-105119735D01*
X157216503Y-105119737D01*
X157371153Y-105150499D01*
X157371156Y-105150500D01*
X157371158Y-105150500D01*
X157528844Y-105150500D01*
X157528845Y-105150499D01*
X157683497Y-105119737D01*
X157829179Y-105059394D01*
X157960289Y-104971789D01*
X158071789Y-104860289D01*
X158159394Y-104729179D01*
X158219737Y-104583497D01*
X158250500Y-104428842D01*
X158250500Y-104271158D01*
X158250500Y-104271155D01*
X158250499Y-104271153D01*
X158219738Y-104116510D01*
X158219737Y-104116503D01*
X158219735Y-104116498D01*
X158159397Y-103970827D01*
X158159390Y-103970814D01*
X158071789Y-103839711D01*
X158071786Y-103839707D01*
X157960292Y-103728213D01*
X157960288Y-103728210D01*
X157829185Y-103640609D01*
X157829172Y-103640602D01*
X157683501Y-103580264D01*
X157683489Y-103580261D01*
X157528845Y-103549500D01*
X157528842Y-103549500D01*
X157371158Y-103549500D01*
X157371155Y-103549500D01*
X157216510Y-103580261D01*
X157216498Y-103580264D01*
X157070827Y-103640602D01*
X157070814Y-103640609D01*
X156939711Y-103728210D01*
X156939707Y-103728213D01*
X156828213Y-103839707D01*
X156828210Y-103839711D01*
X156740609Y-103970814D01*
X156740602Y-103970827D01*
X156680264Y-104116498D01*
X156680261Y-104116510D01*
X156649500Y-104271153D01*
X135582217Y-104271153D01*
X135483501Y-104230264D01*
X135483489Y-104230261D01*
X135328845Y-104199500D01*
X135328842Y-104199500D01*
X135171158Y-104199500D01*
X135171155Y-104199500D01*
X135016510Y-104230261D01*
X135016498Y-104230264D01*
X134971952Y-104248716D01*
X134902483Y-104256185D01*
X134840004Y-104224909D01*
X134804352Y-104164820D01*
X134800500Y-104134155D01*
X134800500Y-103971155D01*
X134800499Y-103971153D01*
X134774353Y-103839711D01*
X134769737Y-103816503D01*
X134769735Y-103816498D01*
X134709397Y-103670827D01*
X134709390Y-103670814D01*
X134621789Y-103539711D01*
X134621786Y-103539707D01*
X134510292Y-103428213D01*
X134510288Y-103428210D01*
X134379185Y-103340609D01*
X134379172Y-103340602D01*
X134233501Y-103280264D01*
X134233489Y-103280261D01*
X134078845Y-103249500D01*
X134078842Y-103249500D01*
X133921158Y-103249500D01*
X133921155Y-103249500D01*
X133766510Y-103280261D01*
X133766498Y-103280264D01*
X133620827Y-103340602D01*
X133620814Y-103340609D01*
X133489711Y-103428210D01*
X133489707Y-103428213D01*
X133378213Y-103539707D01*
X133378210Y-103539711D01*
X133290609Y-103670814D01*
X133290602Y-103670827D01*
X133230264Y-103816498D01*
X133230261Y-103816510D01*
X133199500Y-103971153D01*
X127968208Y-103971153D01*
X127970588Y-100480087D01*
X127990318Y-100413063D01*
X128043153Y-100367345D01*
X128112319Y-100357448D01*
X128165597Y-100380945D01*
X128166519Y-100379567D01*
X128294498Y-100465080D01*
X128294511Y-100465087D01*
X128421814Y-100517817D01*
X128431087Y-100521658D01*
X128431091Y-100521658D01*
X128431092Y-100521659D01*
X128576079Y-100550500D01*
X128576082Y-100550500D01*
X128723920Y-100550500D01*
X128821462Y-100531096D01*
X128868913Y-100521658D01*
X129005495Y-100465084D01*
X129122664Y-100386793D01*
X129189341Y-100365916D01*
X129256721Y-100384400D01*
X129302040Y-100433602D01*
X129344949Y-100517817D01*
X129469890Y-100689786D01*
X129583430Y-100803326D01*
X129616915Y-100864649D01*
X129611931Y-100934341D01*
X129570059Y-100990274D01*
X129539083Y-101007189D01*
X129407669Y-101056203D01*
X129407664Y-101056206D01*
X129292455Y-101142452D01*
X129292452Y-101142455D01*
X129206206Y-101257664D01*
X129206202Y-101257671D01*
X129155908Y-101392517D01*
X129149501Y-101452116D01*
X129149501Y-101452123D01*
X129149500Y-101452135D01*
X129149500Y-103247870D01*
X129149501Y-103247876D01*
X129155908Y-103307483D01*
X129206202Y-103442328D01*
X129206206Y-103442335D01*
X129292452Y-103557544D01*
X129292455Y-103557547D01*
X129407664Y-103643793D01*
X129407671Y-103643797D01*
X129542517Y-103694091D01*
X129542516Y-103694091D01*
X129549444Y-103694835D01*
X129602127Y-103700500D01*
X131397872Y-103700499D01*
X131457483Y-103694091D01*
X131592331Y-103643796D01*
X131707546Y-103557546D01*
X131793796Y-103442331D01*
X131844091Y-103307483D01*
X131850500Y-103247873D01*
X131850500Y-103121153D01*
X154799500Y-103121153D01*
X154799500Y-103278846D01*
X154830261Y-103433489D01*
X154830264Y-103433501D01*
X154890602Y-103579172D01*
X154890609Y-103579185D01*
X154978210Y-103710288D01*
X154978213Y-103710292D01*
X155089707Y-103821786D01*
X155089711Y-103821789D01*
X155220814Y-103909390D01*
X155220827Y-103909397D01*
X155355021Y-103964981D01*
X155366503Y-103969737D01*
X155521153Y-104000499D01*
X155521156Y-104000500D01*
X155521158Y-104000500D01*
X155678844Y-104000500D01*
X155678845Y-104000499D01*
X155833497Y-103969737D01*
X155979179Y-103909394D01*
X156110289Y-103821789D01*
X156221789Y-103710289D01*
X156309394Y-103579179D01*
X156369737Y-103433497D01*
X156400500Y-103278842D01*
X156400500Y-103121158D01*
X156400500Y-103121155D01*
X156400499Y-103121153D01*
X156369738Y-102966510D01*
X156369737Y-102966503D01*
X156369735Y-102966498D01*
X156309397Y-102820827D01*
X156309390Y-102820814D01*
X156221789Y-102689711D01*
X156221786Y-102689707D01*
X156110292Y-102578213D01*
X156110288Y-102578210D01*
X155979185Y-102490609D01*
X155979172Y-102490602D01*
X155833501Y-102430264D01*
X155833489Y-102430261D01*
X155678845Y-102399500D01*
X155678842Y-102399500D01*
X155521158Y-102399500D01*
X155521155Y-102399500D01*
X155366510Y-102430261D01*
X155366498Y-102430264D01*
X155220827Y-102490602D01*
X155220814Y-102490609D01*
X155089711Y-102578210D01*
X155089707Y-102578213D01*
X154978213Y-102689707D01*
X154978210Y-102689711D01*
X154890609Y-102820814D01*
X154890602Y-102820827D01*
X154830264Y-102966498D01*
X154830261Y-102966510D01*
X154799500Y-103121153D01*
X131850500Y-103121153D01*
X131850499Y-101452128D01*
X131844091Y-101392517D01*
X131793796Y-101257669D01*
X131793795Y-101257668D01*
X131793793Y-101257664D01*
X131707547Y-101142455D01*
X131707544Y-101142452D01*
X131592335Y-101056206D01*
X131592328Y-101056202D01*
X131460917Y-101007189D01*
X131404983Y-100965318D01*
X131380566Y-100899853D01*
X131395418Y-100831580D01*
X131416563Y-100803332D01*
X131530104Y-100689792D01*
X131655051Y-100517816D01*
X131702893Y-100423920D01*
X132049499Y-100423920D01*
X132078340Y-100568907D01*
X132078343Y-100568917D01*
X132134912Y-100705488D01*
X132134919Y-100705501D01*
X132217048Y-100828415D01*
X132217051Y-100828419D01*
X132321580Y-100932948D01*
X132321584Y-100932951D01*
X132444498Y-101015080D01*
X132444511Y-101015087D01*
X132543782Y-101056206D01*
X132581087Y-101071658D01*
X132581091Y-101071658D01*
X132581092Y-101071659D01*
X132726079Y-101100500D01*
X132726082Y-101100500D01*
X132873920Y-101100500D01*
X132971462Y-101081096D01*
X133018913Y-101071658D01*
X133155495Y-101015084D01*
X133278416Y-100932951D01*
X133382951Y-100828416D01*
X133465084Y-100705495D01*
X133521658Y-100568913D01*
X133542311Y-100465087D01*
X133550500Y-100423920D01*
X133550500Y-100276079D01*
X133521659Y-100131092D01*
X133521658Y-100131091D01*
X133521658Y-100131087D01*
X133517685Y-100121496D01*
X133465087Y-99994511D01*
X133465080Y-99994498D01*
X133382951Y-99871584D01*
X133382948Y-99871580D01*
X133278419Y-99767051D01*
X133278415Y-99767048D01*
X133155501Y-99684919D01*
X133155488Y-99684912D01*
X133018917Y-99628343D01*
X133018907Y-99628340D01*
X132873920Y-99599500D01*
X132873918Y-99599500D01*
X132726082Y-99599500D01*
X132726080Y-99599500D01*
X132581092Y-99628340D01*
X132581082Y-99628343D01*
X132444511Y-99684912D01*
X132444498Y-99684919D01*
X132321584Y-99767048D01*
X132321580Y-99767051D01*
X132217051Y-99871580D01*
X132217048Y-99871584D01*
X132134919Y-99994498D01*
X132134912Y-99994511D01*
X132078343Y-100131082D01*
X132078340Y-100131092D01*
X132049500Y-100276079D01*
X132049500Y-100276082D01*
X132049500Y-100423918D01*
X132049500Y-100423920D01*
X132049499Y-100423920D01*
X131702893Y-100423920D01*
X131751557Y-100328412D01*
X131817246Y-100126243D01*
X131850500Y-99916287D01*
X131850500Y-99703713D01*
X131817246Y-99493757D01*
X131751557Y-99291588D01*
X131655051Y-99102184D01*
X131655049Y-99102181D01*
X131655048Y-99102179D01*
X131530109Y-98930213D01*
X131379786Y-98779890D01*
X131207820Y-98654951D01*
X131207115Y-98654591D01*
X131199054Y-98650485D01*
X131148259Y-98602512D01*
X131131463Y-98534692D01*
X131153999Y-98468556D01*
X131199054Y-98429515D01*
X131207816Y-98425051D01*
X131229789Y-98409086D01*
X131379786Y-98300109D01*
X131379788Y-98300106D01*
X131379792Y-98300104D01*
X131530104Y-98149792D01*
X131530106Y-98149788D01*
X131530109Y-98149786D01*
X131655048Y-97977820D01*
X131655047Y-97977820D01*
X131655051Y-97977816D01*
X131751557Y-97788412D01*
X131817246Y-97586243D01*
X131850500Y-97376287D01*
X131850500Y-97163713D01*
X131817246Y-96953757D01*
X131751557Y-96751588D01*
X131685097Y-96621153D01*
X153849500Y-96621153D01*
X153849500Y-96778846D01*
X153880261Y-96933489D01*
X153880264Y-96933501D01*
X153940602Y-97079172D01*
X153940609Y-97079185D01*
X154028210Y-97210288D01*
X154028213Y-97210292D01*
X154139707Y-97321786D01*
X154139711Y-97321789D01*
X154270814Y-97409390D01*
X154270827Y-97409397D01*
X154416498Y-97469735D01*
X154416503Y-97469737D01*
X154571153Y-97500499D01*
X154571156Y-97500500D01*
X154571158Y-97500500D01*
X154728844Y-97500500D01*
X154728845Y-97500499D01*
X154883497Y-97469737D01*
X155029179Y-97409394D01*
X155160289Y-97321789D01*
X155271789Y-97210289D01*
X155359394Y-97079179D01*
X155419737Y-96933497D01*
X155450500Y-96778842D01*
X155450500Y-96621158D01*
X155450500Y-96621155D01*
X155450499Y-96621153D01*
X155419738Y-96466510D01*
X155419737Y-96466503D01*
X155388135Y-96390208D01*
X155359397Y-96320827D01*
X155359390Y-96320814D01*
X155271789Y-96189711D01*
X155271786Y-96189707D01*
X155160292Y-96078213D01*
X155160288Y-96078210D01*
X155029185Y-95990609D01*
X155029172Y-95990602D01*
X154883501Y-95930264D01*
X154883489Y-95930261D01*
X154728845Y-95899500D01*
X154728842Y-95899500D01*
X154571158Y-95899500D01*
X154571155Y-95899500D01*
X154416510Y-95930261D01*
X154416498Y-95930264D01*
X154270827Y-95990602D01*
X154270814Y-95990609D01*
X154139711Y-96078210D01*
X154139707Y-96078213D01*
X154028213Y-96189707D01*
X154028210Y-96189711D01*
X153940609Y-96320814D01*
X153940602Y-96320827D01*
X153880264Y-96466498D01*
X153880261Y-96466510D01*
X153849500Y-96621153D01*
X131685097Y-96621153D01*
X131655051Y-96562184D01*
X131655049Y-96562181D01*
X131655048Y-96562179D01*
X131530109Y-96390213D01*
X131379786Y-96239890D01*
X131207817Y-96114949D01*
X131198504Y-96110204D01*
X131147707Y-96062230D01*
X131130912Y-95994409D01*
X131153449Y-95928274D01*
X131198507Y-95889232D01*
X131207555Y-95884622D01*
X131261716Y-95845270D01*
X131261717Y-95845270D01*
X130629408Y-95212962D01*
X130692993Y-95195925D01*
X130807007Y-95130099D01*
X130900099Y-95037007D01*
X130965925Y-94922993D01*
X130982962Y-94859408D01*
X131615270Y-95491717D01*
X131615270Y-95491716D01*
X131654622Y-95437554D01*
X131661569Y-95423920D01*
X157399499Y-95423920D01*
X157428340Y-95568907D01*
X157428343Y-95568917D01*
X157484912Y-95705488D01*
X157484919Y-95705501D01*
X157567048Y-95828415D01*
X157567051Y-95828419D01*
X157671580Y-95932948D01*
X157671584Y-95932951D01*
X157794498Y-96015080D01*
X157794511Y-96015087D01*
X157929894Y-96071164D01*
X157931087Y-96071658D01*
X157931091Y-96071658D01*
X157931092Y-96071659D01*
X158076079Y-96100500D01*
X158076082Y-96100500D01*
X158223920Y-96100500D01*
X158321462Y-96081096D01*
X158368913Y-96071658D01*
X158505495Y-96015084D01*
X158628416Y-95932951D01*
X158732951Y-95828416D01*
X158815084Y-95705495D01*
X158871658Y-95568913D01*
X158897788Y-95437554D01*
X158900500Y-95423920D01*
X158900500Y-95276079D01*
X158871659Y-95131092D01*
X158871658Y-95131091D01*
X158871658Y-95131087D01*
X158860595Y-95104378D01*
X158815087Y-94994511D01*
X158815080Y-94994498D01*
X158732951Y-94871584D01*
X158732948Y-94871580D01*
X158628419Y-94767051D01*
X158628415Y-94767048D01*
X158505501Y-94684919D01*
X158505488Y-94684912D01*
X158368917Y-94628343D01*
X158368907Y-94628340D01*
X158223920Y-94599500D01*
X158223918Y-94599500D01*
X158076082Y-94599500D01*
X158076080Y-94599500D01*
X157931092Y-94628340D01*
X157931082Y-94628343D01*
X157794511Y-94684912D01*
X157794498Y-94684919D01*
X157671584Y-94767048D01*
X157671580Y-94767051D01*
X157567051Y-94871580D01*
X157567048Y-94871584D01*
X157484919Y-94994498D01*
X157484912Y-94994511D01*
X157428343Y-95131082D01*
X157428340Y-95131092D01*
X157399500Y-95276079D01*
X157399500Y-95276082D01*
X157399500Y-95423918D01*
X157399500Y-95423920D01*
X157399499Y-95423920D01*
X131661569Y-95423920D01*
X131751095Y-95248217D01*
X131816757Y-95046130D01*
X131816757Y-95046127D01*
X131850000Y-94836246D01*
X131850000Y-94623753D01*
X131816757Y-94413872D01*
X131816757Y-94413869D01*
X131791442Y-94335956D01*
X131751095Y-94211782D01*
X131654624Y-94022449D01*
X131615270Y-93968282D01*
X131615269Y-93968282D01*
X130982962Y-94600590D01*
X130965925Y-94537007D01*
X130900099Y-94422993D01*
X130807007Y-94329901D01*
X130692993Y-94264075D01*
X130629409Y-94247037D01*
X131261716Y-93614728D01*
X131207550Y-93575375D01*
X131026915Y-93483336D01*
X131026913Y-93483334D01*
X131018220Y-93478905D01*
X130816129Y-93413242D01*
X130606246Y-93380000D01*
X130393754Y-93380000D01*
X130183872Y-93413242D01*
X130183869Y-93413242D01*
X129981782Y-93478904D01*
X129792439Y-93575380D01*
X129738282Y-93614727D01*
X129738282Y-93614728D01*
X130370591Y-94247037D01*
X130307007Y-94264075D01*
X130192993Y-94329901D01*
X130099901Y-94422993D01*
X130034075Y-94537007D01*
X130017037Y-94600591D01*
X129384728Y-93968282D01*
X129384727Y-93968282D01*
X129345380Y-94022439D01*
X129248904Y-94211782D01*
X129183242Y-94413869D01*
X129183242Y-94413872D01*
X129150000Y-94623753D01*
X129150000Y-94836246D01*
X129183242Y-95046127D01*
X129183242Y-95046130D01*
X129248904Y-95248217D01*
X129345375Y-95437550D01*
X129384728Y-95491716D01*
X130017037Y-94859408D01*
X130034075Y-94922993D01*
X130099901Y-95037007D01*
X130192993Y-95130099D01*
X130307007Y-95195925D01*
X130370590Y-95212962D01*
X129738282Y-95845269D01*
X129738282Y-95845270D01*
X129792452Y-95884626D01*
X129792451Y-95884626D01*
X129801495Y-95889234D01*
X129852292Y-95937208D01*
X129869087Y-96005029D01*
X129846550Y-96071164D01*
X129801499Y-96110202D01*
X129792182Y-96114949D01*
X129620213Y-96239890D01*
X129469890Y-96390213D01*
X129344951Y-96562179D01*
X129248444Y-96751585D01*
X129182753Y-96953760D01*
X129149500Y-97163713D01*
X129149500Y-97376286D01*
X129182753Y-97586239D01*
X129248444Y-97788414D01*
X129344951Y-97977820D01*
X129469890Y-98149786D01*
X129620213Y-98300109D01*
X129792182Y-98425050D01*
X129800946Y-98429516D01*
X129851742Y-98477491D01*
X129868536Y-98545312D01*
X129845998Y-98611447D01*
X129800946Y-98650484D01*
X129792182Y-98654949D01*
X129620213Y-98779890D01*
X129469890Y-98930213D01*
X129344949Y-99102182D01*
X129309641Y-99171478D01*
X129261667Y-99222273D01*
X129193846Y-99239068D01*
X129130267Y-99218284D01*
X129005506Y-99134922D01*
X129005488Y-99134912D01*
X128868917Y-99078343D01*
X128868907Y-99078340D01*
X128723920Y-99049500D01*
X128723918Y-99049500D01*
X128576082Y-99049500D01*
X128576080Y-99049500D01*
X128431092Y-99078340D01*
X128431082Y-99078343D01*
X128294511Y-99134912D01*
X128294498Y-99134919D01*
X128166519Y-99220433D01*
X128165346Y-99218678D01*
X128109826Y-99242234D01*
X128040963Y-99230418D01*
X127989420Y-99183247D01*
X127971516Y-99118978D01*
X127975431Y-93376155D01*
X137115500Y-93376155D01*
X137115500Y-93849000D01*
X137857488Y-93849000D01*
X137824575Y-93906007D01*
X137790500Y-94033174D01*
X137790500Y-94164826D01*
X137824575Y-94291993D01*
X137857488Y-94349000D01*
X137115500Y-94349000D01*
X137115500Y-94821844D01*
X137121901Y-94881372D01*
X137121903Y-94881379D01*
X137172145Y-95016086D01*
X137172149Y-95016093D01*
X137258309Y-95131187D01*
X137258312Y-95131190D01*
X137373406Y-95217350D01*
X137373413Y-95217354D01*
X137508120Y-95267596D01*
X137508127Y-95267598D01*
X137567655Y-95273999D01*
X137567672Y-95274000D01*
X138040500Y-95274000D01*
X138040500Y-94532012D01*
X138097507Y-94564925D01*
X138224674Y-94599000D01*
X138356326Y-94599000D01*
X138483493Y-94564925D01*
X138540500Y-94532012D01*
X138540500Y-95274000D01*
X139013328Y-95274000D01*
X139013344Y-95273999D01*
X139072872Y-95267598D01*
X139072879Y-95267596D01*
X139207586Y-95217354D01*
X139207593Y-95217350D01*
X139322686Y-95131191D01*
X139386635Y-95045767D01*
X139442569Y-95003896D01*
X139512261Y-94998912D01*
X139558787Y-95019760D01*
X139674662Y-95103947D01*
X139839456Y-95187915D01*
X139839459Y-95187916D01*
X140015352Y-95245066D01*
X140198027Y-95274000D01*
X140382973Y-95274000D01*
X140565647Y-95245066D01*
X140741540Y-95187916D01*
X140741543Y-95187915D01*
X140906336Y-95103947D01*
X140906345Y-95103942D01*
X140926930Y-95088984D01*
X140926930Y-95088983D01*
X140419909Y-94581962D01*
X140483493Y-94564925D01*
X140597507Y-94499099D01*
X140690599Y-94406007D01*
X140756425Y-94291993D01*
X140773462Y-94228409D01*
X141280483Y-94735430D01*
X141280484Y-94735430D01*
X141295442Y-94714845D01*
X141295447Y-94714836D01*
X141379415Y-94550043D01*
X141379416Y-94550040D01*
X141436566Y-94374147D01*
X141465500Y-94191473D01*
X141465500Y-94006526D01*
X141465494Y-94006486D01*
X143115000Y-94006486D01*
X143115000Y-94191513D01*
X143143945Y-94374265D01*
X143201119Y-94550232D01*
X143201120Y-94550235D01*
X143240919Y-94628343D01*
X143285122Y-94715096D01*
X143393879Y-94864787D01*
X143524713Y-94995621D01*
X143674404Y-95104378D01*
X143755263Y-95145577D01*
X143839264Y-95188379D01*
X143839267Y-95188380D01*
X143862489Y-95195925D01*
X144015236Y-95245555D01*
X144197986Y-95274500D01*
X144197987Y-95274500D01*
X144383013Y-95274500D01*
X144383014Y-95274500D01*
X144565764Y-95245555D01*
X144741735Y-95188379D01*
X144906596Y-95104378D01*
X145056287Y-94995621D01*
X145187121Y-94864787D01*
X145190180Y-94860576D01*
X145245506Y-94817909D01*
X145315119Y-94811926D01*
X145376915Y-94844529D01*
X145390815Y-94860570D01*
X145393879Y-94864787D01*
X145524713Y-94995621D01*
X145674404Y-95104378D01*
X145755263Y-95145577D01*
X145839264Y-95188379D01*
X145839267Y-95188380D01*
X145862489Y-95195925D01*
X146015236Y-95245555D01*
X146197986Y-95274500D01*
X146197987Y-95274500D01*
X146383013Y-95274500D01*
X146383014Y-95274500D01*
X146565764Y-95245555D01*
X146741735Y-95188379D01*
X146906596Y-95104378D01*
X147056287Y-94995621D01*
X147187121Y-94864787D01*
X147190180Y-94860576D01*
X147245506Y-94817909D01*
X147315119Y-94811926D01*
X147376915Y-94844529D01*
X147390815Y-94860570D01*
X147393879Y-94864787D01*
X147524713Y-94995621D01*
X147674404Y-95104378D01*
X147755263Y-95145577D01*
X147839264Y-95188379D01*
X147839267Y-95188380D01*
X147862489Y-95195925D01*
X148015236Y-95245555D01*
X148197986Y-95274500D01*
X148197987Y-95274500D01*
X148383013Y-95274500D01*
X148383014Y-95274500D01*
X148565764Y-95245555D01*
X148741735Y-95188379D01*
X148906596Y-95104378D01*
X149056287Y-94995621D01*
X149187121Y-94864787D01*
X149190180Y-94860576D01*
X149245506Y-94817909D01*
X149315119Y-94811926D01*
X149376915Y-94844529D01*
X149390815Y-94860570D01*
X149393879Y-94864787D01*
X149524713Y-94995621D01*
X149674404Y-95104378D01*
X149755263Y-95145577D01*
X149839264Y-95188379D01*
X149839267Y-95188380D01*
X149862489Y-95195925D01*
X150015236Y-95245555D01*
X150197986Y-95274500D01*
X150197987Y-95274500D01*
X150383013Y-95274500D01*
X150383014Y-95274500D01*
X150565764Y-95245555D01*
X150741735Y-95188379D01*
X150906596Y-95104378D01*
X151056287Y-94995621D01*
X151187121Y-94864787D01*
X151190180Y-94860576D01*
X151245506Y-94817909D01*
X151315119Y-94811926D01*
X151376915Y-94844529D01*
X151390815Y-94860570D01*
X151393879Y-94864787D01*
X151524713Y-94995621D01*
X151674404Y-95104378D01*
X151755263Y-95145577D01*
X151839264Y-95188379D01*
X151839267Y-95188380D01*
X151862489Y-95195925D01*
X152015236Y-95245555D01*
X152197986Y-95274500D01*
X152197987Y-95274500D01*
X152383013Y-95274500D01*
X152383014Y-95274500D01*
X152565764Y-95245555D01*
X152741735Y-95188379D01*
X152906596Y-95104378D01*
X153056287Y-94995621D01*
X153187121Y-94864787D01*
X153295878Y-94715096D01*
X153379879Y-94550235D01*
X153437055Y-94374264D01*
X153466000Y-94191514D01*
X153466000Y-94071153D01*
X153749500Y-94071153D01*
X153749500Y-94228846D01*
X153780261Y-94383489D01*
X153780264Y-94383501D01*
X153840602Y-94529172D01*
X153840609Y-94529185D01*
X153928210Y-94660288D01*
X153928213Y-94660292D01*
X154039707Y-94771786D01*
X154039711Y-94771789D01*
X154170814Y-94859390D01*
X154170827Y-94859397D01*
X154316498Y-94919735D01*
X154316503Y-94919737D01*
X154471153Y-94950499D01*
X154471156Y-94950500D01*
X154471158Y-94950500D01*
X154628844Y-94950500D01*
X154628845Y-94950499D01*
X154783497Y-94919737D01*
X154929179Y-94859394D01*
X155060289Y-94771789D01*
X155171789Y-94660289D01*
X155259394Y-94529179D01*
X155319737Y-94383497D01*
X155350500Y-94228842D01*
X155350500Y-94071158D01*
X155350500Y-94071155D01*
X155350499Y-94071153D01*
X155337636Y-94006486D01*
X155319737Y-93916503D01*
X155319735Y-93916498D01*
X155259397Y-93770827D01*
X155259390Y-93770814D01*
X155171789Y-93639711D01*
X155171786Y-93639707D01*
X155060292Y-93528213D01*
X155060288Y-93528210D01*
X154929185Y-93440609D01*
X154929172Y-93440602D01*
X154783501Y-93380264D01*
X154783489Y-93380261D01*
X154628845Y-93349500D01*
X154628842Y-93349500D01*
X154471158Y-93349500D01*
X154471155Y-93349500D01*
X154316510Y-93380261D01*
X154316498Y-93380264D01*
X154170827Y-93440602D01*
X154170814Y-93440609D01*
X154039711Y-93528210D01*
X154039707Y-93528213D01*
X153928213Y-93639707D01*
X153928210Y-93639711D01*
X153840609Y-93770814D01*
X153840602Y-93770827D01*
X153780264Y-93916498D01*
X153780261Y-93916510D01*
X153749500Y-94071153D01*
X153466000Y-94071153D01*
X153466000Y-94006486D01*
X153437055Y-93823736D01*
X153384473Y-93661903D01*
X153379880Y-93647767D01*
X153379879Y-93647764D01*
X153318963Y-93528211D01*
X153295878Y-93482904D01*
X153187121Y-93333213D01*
X153056287Y-93202379D01*
X152906596Y-93093622D01*
X152741735Y-93009620D01*
X152741732Y-93009619D01*
X152565765Y-92952445D01*
X152426597Y-92930403D01*
X152383014Y-92923500D01*
X152197986Y-92923500D01*
X152154415Y-92930401D01*
X152015234Y-92952445D01*
X151839267Y-93009619D01*
X151839264Y-93009620D01*
X151674403Y-93093622D01*
X151653217Y-93109015D01*
X151524713Y-93202379D01*
X151524711Y-93202381D01*
X151524710Y-93202381D01*
X151393881Y-93333210D01*
X151390814Y-93337432D01*
X151335481Y-93380094D01*
X151265867Y-93386069D01*
X151204074Y-93353459D01*
X151190186Y-93337432D01*
X151187121Y-93333213D01*
X151056287Y-93202379D01*
X150906596Y-93093622D01*
X150741735Y-93009620D01*
X150741732Y-93009619D01*
X150565765Y-92952445D01*
X150426597Y-92930403D01*
X150383014Y-92923500D01*
X150197986Y-92923500D01*
X150154415Y-92930401D01*
X150015234Y-92952445D01*
X149839267Y-93009619D01*
X149839264Y-93009620D01*
X149674403Y-93093622D01*
X149653217Y-93109015D01*
X149524713Y-93202379D01*
X149524711Y-93202381D01*
X149524710Y-93202381D01*
X149393881Y-93333210D01*
X149390814Y-93337432D01*
X149335481Y-93380094D01*
X149265867Y-93386069D01*
X149204074Y-93353459D01*
X149190186Y-93337432D01*
X149187121Y-93333213D01*
X149056287Y-93202379D01*
X148906596Y-93093622D01*
X148741735Y-93009620D01*
X148741732Y-93009619D01*
X148565765Y-92952445D01*
X148426597Y-92930403D01*
X148383014Y-92923500D01*
X148197986Y-92923500D01*
X148154415Y-92930401D01*
X148015234Y-92952445D01*
X147839267Y-93009619D01*
X147839264Y-93009620D01*
X147674403Y-93093622D01*
X147653217Y-93109015D01*
X147524713Y-93202379D01*
X147524711Y-93202381D01*
X147524710Y-93202381D01*
X147393881Y-93333210D01*
X147390814Y-93337432D01*
X147335481Y-93380094D01*
X147265867Y-93386069D01*
X147204074Y-93353459D01*
X147190186Y-93337432D01*
X147187121Y-93333213D01*
X147056287Y-93202379D01*
X146906596Y-93093622D01*
X146741735Y-93009620D01*
X146741732Y-93009619D01*
X146565765Y-92952445D01*
X146426597Y-92930403D01*
X146383014Y-92923500D01*
X146197986Y-92923500D01*
X146154415Y-92930401D01*
X146015234Y-92952445D01*
X145839267Y-93009619D01*
X145839264Y-93009620D01*
X145674403Y-93093622D01*
X145653217Y-93109015D01*
X145524713Y-93202379D01*
X145524711Y-93202381D01*
X145524710Y-93202381D01*
X145393881Y-93333210D01*
X145390814Y-93337432D01*
X145335481Y-93380094D01*
X145265867Y-93386069D01*
X145204074Y-93353459D01*
X145190186Y-93337432D01*
X145187121Y-93333213D01*
X145056287Y-93202379D01*
X144906596Y-93093622D01*
X144741735Y-93009620D01*
X144741732Y-93009619D01*
X144565765Y-92952445D01*
X144426597Y-92930403D01*
X144383014Y-92923500D01*
X144197986Y-92923500D01*
X144154415Y-92930401D01*
X144015234Y-92952445D01*
X143839267Y-93009619D01*
X143839264Y-93009620D01*
X143674403Y-93093622D01*
X143653217Y-93109015D01*
X143524713Y-93202379D01*
X143524711Y-93202381D01*
X143524710Y-93202381D01*
X143393881Y-93333210D01*
X143393881Y-93333211D01*
X143393879Y-93333213D01*
X143355477Y-93386069D01*
X143285122Y-93482903D01*
X143201120Y-93647764D01*
X143201119Y-93647767D01*
X143143945Y-93823734D01*
X143115000Y-94006486D01*
X141465494Y-94006486D01*
X141436566Y-93823852D01*
X141379416Y-93647959D01*
X141379415Y-93647956D01*
X141295449Y-93483165D01*
X141280483Y-93462568D01*
X140773462Y-93969589D01*
X140756425Y-93906007D01*
X140690599Y-93791993D01*
X140597507Y-93698901D01*
X140483493Y-93633075D01*
X140419908Y-93616037D01*
X140926930Y-93109015D01*
X140906334Y-93094050D01*
X140741543Y-93010084D01*
X140741540Y-93010083D01*
X140565647Y-92952933D01*
X140382973Y-92924000D01*
X140198027Y-92924000D01*
X140015352Y-92952933D01*
X139839459Y-93010083D01*
X139839456Y-93010084D01*
X139674666Y-93094049D01*
X139558787Y-93178240D01*
X139492980Y-93201719D01*
X139424926Y-93185893D01*
X139386636Y-93152232D01*
X139322690Y-93066812D01*
X139322687Y-93066809D01*
X139207593Y-92980649D01*
X139207586Y-92980645D01*
X139072879Y-92930403D01*
X139072872Y-92930401D01*
X139013344Y-92924000D01*
X138540500Y-92924000D01*
X138540500Y-93665988D01*
X138483493Y-93633075D01*
X138356326Y-93599000D01*
X138224674Y-93599000D01*
X138097507Y-93633075D01*
X138040500Y-93665988D01*
X138040500Y-92924000D01*
X137567655Y-92924000D01*
X137508127Y-92930401D01*
X137508120Y-92930403D01*
X137373413Y-92980645D01*
X137373406Y-92980649D01*
X137258312Y-93066809D01*
X137258309Y-93066812D01*
X137172149Y-93181906D01*
X137172145Y-93181913D01*
X137121903Y-93316620D01*
X137121901Y-93316627D01*
X137115500Y-93376155D01*
X127975431Y-93376155D01*
X127976493Y-91818794D01*
X127996223Y-91751771D01*
X128049058Y-91706053D01*
X128118224Y-91696156D01*
X128181760Y-91725224D01*
X128188174Y-91731201D01*
X128300490Y-91843517D01*
X128491567Y-91982343D01*
X128590991Y-92033002D01*
X128702003Y-92089566D01*
X128702005Y-92089566D01*
X128702008Y-92089568D01*
X128822412Y-92128689D01*
X128926631Y-92162553D01*
X129159903Y-92199500D01*
X129159908Y-92199500D01*
X129396097Y-92199500D01*
X129629368Y-92162553D01*
X129853992Y-92089568D01*
X130064433Y-91982343D01*
X130255510Y-91843517D01*
X130422517Y-91676510D01*
X130561343Y-91485433D01*
X130668568Y-91274992D01*
X130741553Y-91050368D01*
X130749043Y-91003076D01*
X130778500Y-90817097D01*
X130778500Y-90580902D01*
X130741553Y-90347631D01*
X130692815Y-90197632D01*
X130668568Y-90123008D01*
X130668566Y-90123005D01*
X130668566Y-90123003D01*
X130592139Y-89973008D01*
X130561343Y-89912567D01*
X130422517Y-89721490D01*
X130295447Y-89594420D01*
X130261962Y-89533097D01*
X130266946Y-89463405D01*
X130308818Y-89407472D01*
X130374282Y-89383055D01*
X130383349Y-89382739D01*
X139053726Y-89398374D01*
X139120727Y-89418180D01*
X139166387Y-89471066D01*
X139177500Y-89522374D01*
X139177500Y-91214891D01*
X139211608Y-91342187D01*
X139244554Y-91399250D01*
X139277500Y-91456314D01*
X139370686Y-91549500D01*
X139484814Y-91615392D01*
X139612108Y-91649500D01*
X139612110Y-91649500D01*
X151743890Y-91649500D01*
X151743892Y-91649500D01*
X151871186Y-91615392D01*
X151985314Y-91549500D01*
X152078500Y-91456314D01*
X152144392Y-91342186D01*
X152178500Y-91214892D01*
X152178500Y-89421000D01*
X152198185Y-89353961D01*
X152250989Y-89308206D01*
X152301999Y-89297001D01*
X160942757Y-89262359D01*
X161009873Y-89281775D01*
G37*
%TD.AperFunction*%
%TD*%
M02*
